<?xml version="1.0" encoding="utf-8"?>
<!-- Generator: Adobe Illustrator 27.5.0, SVG Export Plug-In . SVG Version: 6.00 Build 0)  -->
<svg version="1.1" xmlns="http://www.w3.org/2000/svg" xmlns:xlink="http://www.w3.org/1999/xlink" x="0px" y="0px"
	 viewBox="0 0 500 500" style="enable-background:new 0 0 500 500;" xml:space="preserve">
<g id="Floor">
	<path id="Floor_00000098910870603466364880000007081244368683678897_" style="fill:#F5F5F5;" d="M135.904,320.439
		c-65.908,38.052-65.906,99.746,0.004,137.798c65.91,38.052,172.769,38.052,238.676,0c65.908-38.052,65.906-99.746-0.004-137.798
		C308.671,282.387,201.812,282.387,135.904,320.439z"/>
</g>
<g id="Shadow">
	
		<ellipse id="Shadow_00000065756521765461089660000012564694641298834614_" style="fill:#E0E0E0;" cx="257.378" cy="411.096" rx="84.857" ry="48.992"/>
</g>
<g id="Clouds">
	<path id="Cloud_00000101793752825573125640000015428067375703362702_" style="fill:#F5F5F5;" d="M376.465,79.979
		c-0.012-4.28-4.694-7.255-10.006-7.756c-6.259-0.59-10.7,2.2-10.849,7.129c-4.093-1.681-8.409-0.602-8.085,3.898
		c-1.064-1.227-5.049-1.193-6.478-0.851c-1.511,0.362-3.042,1.723-3.565,3.038c-0.423,1.064-0.445,1.557-0.371,2.303
		c-2.387-0.782-7.813-1.26-9.17,0.929c-2.416,3.897,7.236,4.019,9.182,2.841c0.412,3.032,10.785,3.529,13.296,0.732
		c1.962,1.976,4.78,2.412,7.821,2.593c5.132,0.305,8.279-1.433,12.282-3.478c4.352,3.69,11.883,3.758,15.804-0.464
		c1.001,0.944,3.757,1.237,5.965,0.709c1.449-0.346,1.785-0.964,1.785-0.964c0.776,0.359,1.702,0.599,2.662,0.8
		c2.845,0.596,8.139-0.033,5.918-2.596c-0.756-0.872-3.526-1.425-4.7-1.156c-1.241-2.442-6.224-4.755-9.082-2.69
		c-0.11-2.958-2.815-5.271-6.62-5.859C380.981,78.942,377.92,78.771,376.465,79.979z"/>
	<path id="Cloud_00000050657220822065770350000012069076732079082670_" style="fill:#F5F5F5;" d="M429.413,129.049
		c0.058-5.571-5.983-9.524-12.888-10.268c-8.136-0.877-13.964,2.678-14.243,9.09c-5.298-2.258-10.933-0.93-10.59,4.932
		c-1.364-1.616-6.55-1.641-8.416-1.219c-1.973,0.445-3.99,2.189-4.693,3.892c-0.569,1.377-0.606,2.018-0.523,2.991
		c-3.093-1.059-10.147-1.776-11.951,1.049c-3.212,5.029,9.348,5.356,11.901,3.857c0.483,3.953,13.975,4.781,17.292,1.184
		c2.52,2.606,6.179,3.223,10.134,3.511c6.673,0.486,10.54-0.029,15.786-2.62c3.164,2.756,7.088,3.453,11.121,3.506
		c6.484,0.086,10.169-3.493,9.894-3.676c3.745,2.483,8.997,2.44,12.701-0.103c0.262-0.18,0.534-0.378,0.851-0.404
		c0.256-0.021,0.506,0.073,0.748,0.159c1.4,0.494,2.89,0.732,4.374,0.698c1.248-0.028,3.654-0.551,3.956-2.078
		c0.263-1.329-1.585-2.605-2.521-3.197c-1.294-0.818-3.595-1.22-5.094-0.896c-1.573-3.2-8.017-6.297-11.773-3.659
		c-0.092-3.851-3.572-6.909-8.514-7.74C435.308,127.779,431.328,127.503,429.413,129.049z"/>
	<path id="Cloud_00000089574026953045339430000009210486755235546035_" style="fill:#F5F5F5;" d="M100.932,111.4
		c-0.015-5.153-5.651-8.735-12.047-9.338c-7.536-0.71-12.882,2.649-13.061,8.583c-4.928-2.023-10.124-0.725-9.734,4.693
		c-1.282-1.478-6.078-1.437-7.799-1.024c-1.819,0.436-3.663,2.074-4.293,3.658c-0.509,1.281-0.536,1.874-0.446,2.773
		c-2.874-0.941-9.407-1.517-11.041,1.118c-2.908,4.691,8.711,4.838,11.055,3.42c0.496,3.65,12.984,4.249,16.008,0.881
		c2.362,2.379,5.755,2.904,9.417,3.122c6.178,0.368,9.967-0.603,14.787-3.065c5.24,4.443,14.306,5.082,19.028,0
		c1.205,1.136,4.18,1.744,6.839,1.109c1.745-0.417,3.568-1.818,3.568-1.818c0.935,0.433,3.017,0.867,4.199,0.88
		c4.581,0.051,8.295-2.214,5.055-4.32c-1.165-0.757-4.245-1.716-5.658-1.391c-1.494-2.94-7.493-5.725-10.934-3.239
		c-0.133-3.561-3.389-6.346-7.97-7.053C106.369,110.152,102.684,109.946,100.932,111.4z"/>
</g>
<g id="Character">
	<g id="Character_00000108269401011336406370000012438606018324753341_">
		<path style="fill:#263238;" d="M183.203,333.676c19.16-22.415,77.91-30.384,121.126-7.767c0,0-13.647-40.536-16.495-76.203
			c-2.848-35.668-3.809-80.306-3.809-80.306l-62.755-4.452L183.203,333.676z"/>
		<g id="Bottom_00000022520167167615375240000017904143575369590921_">
			<g id="Legs_00000011712946462052017830000005725041880431125656_">
				<path style="fill:#FFA8A7;" d="M301.213,379.647c-3.372-8.522-8.79-20.244-8.79-20.244s-1.357-0.5-2.319-1.257
					c-2.389-1.878-8.586-24.559-12.951-35.764c-6.975-17.906-15.172-28.079-21.121-34.483c2.811-13.388,8.58-41.221,8.58-41.221
					l-8.049-15.125c0,0-26.352-14.176-32.831-24.878c0,0-4.96,27.184-6.242,47.132c-2.257,35.126,2.202,40.103,8.441,50.013
					c2.97,4.717,15.526,22.36,25.296,34.461c8.663,11.578,11.13,15.224,15.521,21.074c3.724,4.96,7.508,10.641,8.973,13.204
					c2.801,4.902,4.621,12.619,5.619,16.668c0.998,4.049,1.233,8.893,0.866,12.182c0,0-1.436,8.896,0.081,8.693
					c1.517-0.204,14.495-7.122,18.312-11.798C304.416,393.63,304.585,388.17,301.213,379.647z"/>
				<g>
					<path style="fill:#BA68C8;" d="M301.93,366.304c0.989,1.879,1.033,4.848,2.41,7.905c1.376,3.057,2.979,6.115,5.653,9.944
						c2.674,3.829,3.055,4.373,3.055,4.373l-1.187,0.829c0,0-3.865-5.533-5.562-7.962c-1.696-2.428-3.495-3.889-4.838-3.339
						C301.461,378.053,296.187,370.316,301.93,366.304z"/>
					<path style="opacity:0.3;" d="M301.93,366.304c0.989,1.879,1.033,4.848,2.41,7.905c1.376,3.057,2.979,6.115,5.653,9.944
						c2.674,3.829,3.055,4.373,3.055,4.373l-1.187,0.829c0,0-3.865-5.533-5.562-7.962c-1.696-2.428-3.495-3.889-4.838-3.339
						C301.461,378.053,296.187,370.316,301.93,366.304z"/>
					<path style="fill:#BA68C8;" d="M291.068,358.47c2.157,1.521,5.514,2.223,8.585,4.675c1.501,1.198,2.282,2.817,2.624,4.062
						c-0.258,1.636-0.639,2.407-0.877,3.573c-0.34,1.668-0.813,3.043-0.276,5.792c0.566,2.899,2.845,8.177,4.266,11.929
						c1.422,3.752-0.56,6.643-2.258,10.126c-1.324,2.716-7.046,8.635-11.359,11.96c-5.885,4.537-11.258,4.005-11.4,0.031
						c-0.121-3.391,1.627-10.797,1.99-11.78c0,0,1.961-1.603,5.766-2.322c4.44-0.839,7.578,0.822,9.978-3.421
						c2.173-3.842,3.559-11.914-2.592-20.439C288.531,362.978,291.068,358.47,291.068,358.47z"/>
				</g>
				<path style="fill:#F28F8F;" d="M264.301,298.044c-1.045-0.929-2.135-1.977-3.26-3.23c0.084-0.25,0.168-0.519,0.252-0.792
					c-1.872-2.365-3.65-4.388-5.261-6.122c2.296-10.934,6.563-31.497,8.051-38.67l-7.52-17.677l-0.001,0
					c-0.011-0.006-17.323-9.321-27.329-18.548c0.201,3.038,0.568,6.334,1.087,9.411c-2.177-0.099-3.702,0.83-4.054,3.376
					c-1.694,12.242,10.627,24.681,10.627,24.681s-1.139,6.658-3.569,20.119c-2.041,11.308-3.428,25.767-3.404,39.129
					c5.261,7.536,14.05,19.574,21.306,28.561c8.663,11.578,11.13,15.224,15.521,21.074c0.05,0.066,0.1,0.134,0.149,0.201
					c4.877-20.381,4.63-28.508,1.292-40.061c0,0,2.329-4.277,3.896-8.477C269.488,305.905,266.845,301.638,264.301,298.044z"/>
				<g>
					<path style="fill:#FFA8A7;" d="M233.468,416.265c1.376-3.937,4.068-11.395,4.399-17.031c0.174-2.947,0.107-9.773-0.302-15.962
						c-0.586-8.86-0.568-13.436-2.215-36.891c-2.445-34.829-3.27-39.785-1.232-55.555c2.038-15.77,5.162-39.913,5.162-39.913
						s-5.212-5.443-10.754-19.01c-2.763-6.764-5.71-20.035-4.796-25.228c0,0,6.832,5.786,25.909,5.266
						c19.5-0.532,27.206-3.894,27.206-3.894c1.118,2.847,4.908,8.441,7.937,14.301c2.169,4.195,5.491,11.168,3.492,24.897
						c-1.404,9.642-5.944,15.847-10.436,31.87c-4.497,16.043-13.241,39.758-13.241,39.758c1.915,12.407,3.59,19.843-1.068,42.081
						c-2.465,11.769-6.716,31.188-5.741,34.065c0.393,1.16,1.256,2.32,1.256,2.32s-1.865,12.778-3.696,21.758
						c-1.832,8.98-4.956,13.461-10.708,15.292c-5.752,1.831-20.401,0.536-21.783-0.122c-1.382-0.659,4.681-7.325,4.681-7.325
						C229.643,424.387,232.092,420.202,233.468,416.265z"/>
					<g>
						<path style="fill:#BA68C8;" d="M263.238,408.312c-0.199,2.114-1.783,4.625-2.3,7.938c-0.517,3.313-0.845,6.75-0.697,11.417
							c0.148,4.668,0.17,5.331,0.17,5.331l-1.447,0.046c0,0-0.215-6.747-0.309-9.708c-0.094-2.961-0.803-5.167-2.228-5.44
							C256.427,417.897,256.236,408.535,263.238,408.312z"/>
						<path style="opacity:0.3;" d="M263.238,408.312c-0.199,2.114-1.783,4.625-2.3,7.938c-0.517,3.313-0.845,6.75-0.697,11.417
							c0.148,4.668,0.17,5.331,0.17,5.331l-1.447,0.046c0,0-0.215-6.747-0.309-9.708c-0.094-2.961-0.803-5.167-2.228-5.44
							C256.427,417.897,256.236,408.535,263.238,408.312z"/>
						<path style="fill:#BA68C8;" d="M258.42,395.817c0.976,2.453,3.404,4.874,4.636,8.605c0.603,1.824,0.372,3.606-0.021,4.836
							c-1.11,1.229-1.85,1.666-2.687,2.514c-1.196,1.211-2.343,2.105-3.395,4.701c-1.109,2.737-2.084,8.403-2.943,12.322
							c-0.859,3.919-4.098,5.258-7.423,7.248c-2.593,1.552-10.619,3.383-16.048,3.812c-7.408,0.585-11.617-2.796-9.565-6.202
							c1.751-2.906,7.261-8.154,8.102-8.779c0,0,2.518-0.271,6.098,1.205c4.178,1.723,5.898,4.828,10.227,2.586
							c3.919-2.031,9.489-8.035,8.995-18.536C253.833,398.207,258.42,395.817,258.42,395.817z"/>
					</g>
				</g>
			</g>
		</g>
		<g id="Top_00000022531775660208234770000014659684592660781487_">
			<g>
				<path style="fill:#263238;" d="M178.874,147.428c-2.072-9.906-0.612-24.56,3.461-33.149c5.545-11.693,12.85-17.354,19.966-8.823
					c7.116,8.53,3.182,34.75-0.622,40.927C197.875,152.559,181.269,157.769,178.874,147.428z"/>
				<g id="Arm_00000181783882319500286350000002643366310584554658_" class="diploma-arm">
					<g>
						<path style="fill:#FFA8A7;" d="M161.562,67.381c-0.711,3.392-0.961,9.821-0.961,9.821s6.933,3.972,8.922,5.011
							c1.989,1.039,4.54,4.156,6.823,11.321c2.021,6.339,7.386,23.918,9.876,31.861c2.014,6.425,2.698,7.396,12.203,16.436
							c7.553,7.184,24.154,20.536,26.512,26.379c16.305-9.223,15.478-28.115,15.478-28.115c-4.002-0.914-9.879-5.544-15.699-9.979
							c-5.576-4.249-16.853-14.039-16.853-14.039s-19.326-36.791-21.781-42.08c-0.658-1.419-1.548-2.748-2.815-3.69
							c-1.49-1.108-2.718-2.671-4.006-4.021c-0.973-1.02-1.962-2.053-3.172-2.777c-0.796-0.476-1.696-0.813-2.623-0.824
							c-0.511-0.006-1.017,0.087-1.522,0.163c-1.661,0.251-3.345,0.332-5.004,0.597c-1.293,0.206-2.583,0.528-3.762,1.111
							c-0.499,0.247-0.746,0.395-0.944,0.899C161.983,66.093,161.704,66.704,161.562,67.381z"/>
						<path style="fill:#F28F8F;" d="M171.393,73.511c1.679,0.414,4.123,2.41,4.76,4.183c-0.95-2.768-1.685-3.586-4.447-5.12
							L171.393,73.511z"/>
						<path style="fill:#F28F8F;" d="M170.995,83.308c0.508,0.486,1.034,1.11,1.57,1.889c0.48,0.043,1.233,0.021,2.046-0.365
							c1.363-0.648,2.4-3.028,2.4-3.028s-0.684,0.753-2.379,1.696C173.352,84.212,171.965,83.857,170.995,83.308z"/>
						<path style="fill:#FFA8A7;" d="M161.315,59.35c-0.097,0.042-0.19,0.094-0.28,0.149c-0.379,0.232-0.726,0.494-0.874,0.902
							c-0.065,0.179-0.093,0.382-0.141,0.567c-0.412,1.609-0.879,3.205-1.373,4.79c-0.415,1.331-0.774,2.832-1.492,4.041
							c-0.846,1.425-2.289,1.748-2.289,1.748s1.107,2.167,2.397,3.293c1.29,1.126,3.336,2.361,3.336,2.361
							c0.93-2.111,1.699-4.309,2.349-6.521c0.558-1.897,1.027-3.839,1.223-5.81c0.184-1.854,0.269-4.363-1.627-5.408
							c-0.261-0.144-0.557-0.247-0.853-0.218C161.562,59.259,161.436,59.297,161.315,59.35z"/>
						<path style="fill:#F28F8F;" d="M162.198,53.351c-0.107,1.505,0.62,2.758,1.528,4.887c0.431,1.011,0.744,1.75,0.954,2.345
							l3.1-0.597C166.747,57.578,164.996,55.738,162.198,53.351z"/>
					</g>
					<g id="Diploma_00000022522028294631663440000016419704478676156335_">
						<g>
							<g>
								<path style="fill:#BA68C8;" d="M144.912,94.647l16.636-28.452l2.114-4.097l15.01-32.561l0.247-0.528
									c0.587-1.133,1.923-1.879,3.87-1.971c3.901-0.18,8.77,2.344,10.873,5.635c1.055,1.647,1.216,3.169,0.628,4.302
									L176.074,68.53l-2.11,4.072l-13.777,30.165l-0.022,0.042c-0.601,1.108-1.934,1.847-3.859,1.932
									c-3.897,0.173-8.76-2.347-10.873-5.635c-1.048-1.644-1.205-3.172-0.618-4.305l0.083-0.161L144.912,94.647z"/>
								<path style="opacity:0.4;fill:#FFFFFF;" d="M144.912,94.647l16.636-28.452l2.114-4.097l15.01-32.561l0.247-0.528
									c0.587-1.133,1.923-1.879,3.87-1.971c3.901-0.18,8.77,2.344,10.873,5.635c1.055,1.647,1.216,3.169,0.628,4.302
									L176.074,68.53l-2.11,4.072l-13.777,30.165l-0.022,0.042c-0.601,1.108-1.934,1.847-3.859,1.932
									c-3.897,0.173-8.76-2.347-10.873-5.635c-1.048-1.644-1.205-3.172-0.618-4.305l0.083-0.161L144.912,94.647z"/>
								<path style="opacity:0.1;" d="M179.565,28.179c-0.267,0.245-0.486,0.521-0.646,0.829l-0.247,0.528l-15.01,32.561
									l-2.114,4.097l-16.635,28.452l-0.014-0.007l-0.083,0.161c-0.587,1.133-0.43,2.662,0.618,4.305
									c1.457,2.267,4.222,4.168,7.076,5.074l33.393-64.421C185.902,39.759,178.831,34.694,179.565,28.179z"/>
								<path style="fill:#BA68C8;" d="M182.793,27.038c-1.95,0.089-3.289,0.836-3.878,1.972c-0.589,1.136-0.427,2.661,0.625,4.305
									c2.104,3.289,6.972,5.812,10.872,5.634c1.95-0.089,3.289-0.836,3.878-1.972c0.589-1.136,0.427-2.661-0.625-4.305
									C191.561,29.383,186.693,26.86,182.793,27.038z"/>
							</g>
							<path style="fill:#BA68C8;" d="M144.633,95.15l0.265-0.511l0.014,0.007l16.636-28.452l2.114-4.097l15.01-32.561
								c-2.099,5.214,4.438,10.19,4.438,10.19l-34.286,66.142C148.824,105.869,141.838,100.545,144.633,95.15z"/>
							<path style="opacity:0.6;fill:#FFFFFF;" d="M144.633,95.15l0.265-0.511l0.014,0.007l16.636-28.452l2.114-4.097l15.01-32.561
								c-2.099,5.214,4.438,10.19,4.438,10.19l-34.286,66.142C148.824,105.869,141.838,100.545,144.633,95.15z"/>
							<path style="opacity:0.25;fill:#FFFFFF;" d="M182.793,27.038c-1.95,0.089-3.289,0.836-3.878,1.972
								c-0.589,1.136-0.427,2.661,0.625,4.305c2.104,3.289,6.972,5.812,10.872,5.634c1.95-0.089,3.289-0.836,3.878-1.972
								c0.589-1.136,0.427-2.661-0.625-4.305C191.561,29.383,186.693,26.86,182.793,27.038z"/>
							<path style="opacity:0.5;fill:#BA68C8;" d="M188.422,34.103c4.179-0.45,1.574-4.99-3.333-6.888l0,0
								c-0.783-0.147-1.557-0.211-2.295-0.177c-1.95,0.089-3.289,0.836-3.878,1.972c-0.589,1.136-0.427,2.661,0.626,4.306
								c1.391,2.175,3.992,4.009,6.722,4.955L188.422,34.103z"/>
							<path style="fill:#BA68C8;" d="M190.329,33.15l-2.843,5.486c-0.42-0.093-0.827-0.217-1.223-0.367l2.159-4.167
								C189.056,34.019,189.941,33.802,190.329,33.15z"/>
							<path style="opacity:0.1;" d="M190.329,33.15l-2.843,5.486c-0.42-0.093-0.827-0.217-1.223-0.367l2.159-4.167
								C189.056,34.019,189.941,33.802,190.329,33.15z"/>
						</g>
						<g>
							<path style="fill:#BA68C8;" d="M162.021,67.915c-3.048,4.956-8.051,8.343-14.23,10.785c1.791,0.436,3.534,0.671,5.17,0.463
								c-0.488,1.491-1.164,2.714-1.905,3.845c5.77-2.631,10.643-6.077,14.175-10.743l-0.703-1.042L162.021,67.915z"/>
							<path style="opacity:0.2;" d="M160.497,70.06l1.562,1.058l1.714,2.916c0.508-0.57,0.996-1.158,1.458-1.769l-0.703-1.042
								l-2.507-3.308C161.559,68.667,161.046,69.378,160.497,70.06z"/>
						</g>
						<g>
							<path style="fill:#BA68C8;" d="M161.546,66.191c-0.46,0.914-0.325,2.134,0.516,3.45c1.698,2.655,5.628,4.692,8.777,4.548
								c1.547-0.07,2.616-0.654,3.103-1.544c0.008-0.014,0.017-0.028,0.025-0.042l2.112-4.075c-0.475,0.916-1.556,1.519-3.13,1.591
								c-3.149,0.144-7.078-1.893-8.777-4.548c-0.849-1.328-0.98-2.559-0.505-3.475l-2.109,4.069
								C161.553,66.174,161.55,66.183,161.546,66.191z"/>
							<path style="opacity:0.15;fill:#FFFFFF;" d="M167.109,68.369c-0.886-0.561-1.681-1.229-2.313-1.967l-2.109,4.07
								c0.631,0.738,1.427,1.406,2.313,1.967L167.109,68.369z M162.062,69.641c0.005,0.007,0.01,0.014,0.015,0.021l2.109-4.07
								c-0.005-0.007-0.01-0.014-0.015-0.021c-0.293-0.458-0.494-0.903-0.621-1.329l-2.11,4.071
								C161.568,68.739,161.769,69.183,162.062,69.641z"/>
							<path style="opacity:0.1;" d="M168.46,73.93c0.81,0.198,1.617,0.293,2.378,0.259c1.547-0.07,2.616-0.654,3.103-1.544
								c0.008-0.014,0.017-0.027,0.025-0.042l2.112-4.075c-0.475,0.917-1.556,1.519-3.131,1.591
								c-0.761,0.035-1.569-0.06-2.379-0.259L168.46,73.93z"/>
						</g>
					</g>
					<g>
						<path style="opacity:0.2;" d="M167.731,63.544c-0.56-1.188-0.965-2.309-1.755-3.369c-0.295-0.397-0.699-0.676-1.098-0.958
							c-0.37-0.26-0.688-0.597-1.051-0.851c-0.869-0.606-2.077-1.017-3.092-1.305l-1.324,11.646l-0.008,0.061l-0.003,0.017
							c-0.136,1.081,0.424,2.266,1.716,3.31c0.249,0.201,0.518,0.386,0.798,0.561l-0.077-0.042c0,0-0.544,0.577-1.543,0.507
							c-0.843-0.058-2.388-1.225-3.742-0.977c0.908-0.033,2.654,1.052,3.52,1.436c1.348,0.598,2.474,0.164,2.856-0.374
							c0.358-0.519,0.484-1.199,0.289-1.888c0.913,0.6,2.869,0.072,3.294-0.958c0.189-0.458,0.231-1.086,0.143-1.57
							c-0.111-0.611-0.535-1.128-0.604-1.761c0.7-0.216,1.615-0.405,2.136-0.962C168.898,65.306,168.078,64.28,167.731,63.544z"/>
						<g>
							<path style="opacity:0.2;" d="M166.706,57.723c0.233,0.04,0.46,0.017,0.671-0.053c0.513-0.171,0.936-0.621,1.126-1.12
								c0.269-0.706,0.209-1.516,0.102-2.247c-0.09-0.614-0.209-1.249-0.449-1.955l-2.207,4.788
								C166.147,57.434,166.389,57.668,166.706,57.723z"/>
							<path style="fill:#FFA8A7;" d="M162.281,52.829c-0.382,1.618,0.487,2.328,1.327,3.395c0.84,1.067,3.011,2.222,3.848,1.368
								c0.879-0.897,0.578-2.552-0.54-4.343c-1.117-1.791-1.908-2.478-2.58-2.376C163.424,51.012,162.433,52.184,162.281,52.829z"/>
							<path style="fill:#FFA8A7;" d="M165.405,68.539c-0.091,0.86-0.599,1.362-1.479,1.565c-0.593,0.137-1.251,0.071-1.684-0.122
								c0.196,1.045,0.29,2.176-0.684,2.881c-1.261,0.913-2.793-0.346-4.038-0.652c-0.678-0.166-1.242,0.186-1.87,0.106
								c-0.698-0.088-0.939-1.196-1.108-1.767c-0.251-0.844-0.323-1.765-0.04-2.598c0.139-0.409,0.361-0.794,0.427-1.221
								c0.066-0.425-0.028-0.856-0.098-1.281c-0.108-0.655-0.147-1.374,0.21-1.933c0.298-0.466,0.839-0.76,1.056-1.269
								c0.162-0.381,0.113-0.813,0.089-1.227c-0.054-0.898,0.027-1.824,0.403-2.641c0.376-0.817,1.081-1.514,1.956-1.725
								c0.559-0.134,1.145-0.068,1.711,0.03c1.445,0.248,3.383,0.53,4.404,1.678c1.002,1.127,1.523,2.758,2.191,4.103
								c0.317,0.637,0.569,1.234,0.192,1.85c-0.338,0.551-0.89,0.984-1.53,1.087c-0.499,0.08-0.916-0.031-1.388-0.141
								C164.815,66.555,165.53,67.357,165.405,68.539z"/>
							<path style="fill:#FFA8A7;" d="M174.159,55.688c0.039,0.048,0.077,0.102,0.114,0.161c0.629,1.011,0.975,2.174,1.568,3.207
								c0.805,1.404,2.028,2.511,3.111,3.714c0.97,1.078,3.634,3.731,5.477,7.718c0.157,0.34,1.495,3.371,1.583,3.359
								c0,0-10.87,1.489-10.87,1.489c0.229-2.141-0.505-4.848-1.014-6.521c-0.348-1.141-1.066-2.736-1.366-3.538
								c-0.323-0.863-1.241-3.028-1.488-5.336c-0.13-1.219,0.053-2.573,0.757-3.605C172.512,55.631,173.495,54.877,174.159,55.688z"
								/>
						</g>
					</g>
				</g>
				<g class="diploma-arm">
					<path style="fill:#455A64;" d="M242.947,140.087c-5.611-2.466-9.227-3.744-18.176-10.812
						c-8.95-7.069-14.176-12.041-14.433-12.997c-0.257-0.955-1.216-3.797-2.797-3.812c0.048-3.161-1.638-5.966-5.24-7.01
						c1.797,3.536,1.668,8.355,1.716,10.075c0.118,4.202,0.037,8.421-0.526,12.592c-0.911,6.751-3.16,13.46-7.433,18.764
						c-1.958,2.431-4.43,4.598-7.435,5.443c-3.005,0.845-7.621,0.162-9.749-4.901c1.347,6.848,6.4,8.353,10.431,8.827
						c4.24,0.499,7.857,0.385,12.626,0.953c5.09,0.607,9.904,1.723,14.806,3.278c3.924,1.245,6.886,5.524,8.285,9.278
						c0,0,9.842-3.635,13.24-12.555C241.659,148.29,242.947,140.087,242.947,140.087z"/>
					<path style="fill:#37474F;" d="M207.891,113.967c-0.014-0.147-0.177-0.175-0.192-0.012c-0.239,2.546-0.236,5.121-0.337,7.675
						c-0.101,2.549-0.248,5.101-0.573,7.632c-0.561,4.369-1.654,8.679-3.55,12.668c-1.048,2.203-2.332,4.334-3.787,6.29
						c-0.07,0.095,0.019,0.367,0.143,0.245c3.137-3.096,5.099-7.083,6.378-11.266c1.436-4.697,2.006-9.656,2.133-14.553
						C208.181,119.758,208.158,116.844,207.891,113.967z"/>
					<path style="fill:#37474F;" d="M211.186,121.265c-0.087-0.971-0.129-2.03-0.413-2.966c-0.053-0.176-0.291-0.226-0.307-0.006
						c-0.067,0.926,0.111,1.898,0.136,2.83c0.027,1.007,0.04,2.015,0.012,3.022c-0.051,1.866-0.209,3.735-0.49,5.581
						c-0.566,3.715-1.58,7.329-2.975,10.815c-0.049,0.121,0.098,0.376,0.19,0.196c1.78-3.476,2.966-7.248,3.539-11.109
						c0.279-1.882,0.423-3.775,0.419-5.678C211.294,123.053,211.265,122.158,211.186,121.265z"/>
				</g>
			</g>
			<g>
				<path style="fill:#BA68C8;" d="M288.848,230.667c-2.379-9.01-6.301-13.835-10.495-24.438
					c-4.194-10.603,1.714-19.832,3.939-28.078c0,0-5.008-1.753-7.614-13.059c-1.182-5.13,0.601-13.321,4.169-17.842l-13.573-4.644
					c0,0-5.081-0.858-16.202-1.734l-8.961-0.827c0,0-13.025,11.477-20.657,21.101c-3.939,4.968-6.343,15.789,2.371,24.269
					c1.083,9.424,1.819,16.691,1.819,16.691c-6.973,22.071-8.598,47.602-10.15,79.022c8.835,15.854,22.428,20.849,40.617,22.876
					s24.631-6.074,24.631-6.074s3.151-12.366,6.437-26.851C288.733,255.409,291.848,242.03,288.848,230.667z"/>
				<path style="opacity:0.2;" d="M241.019,190.673c7.794,6.801,22.802,5.206,26.588-4.051
					C267.406,199.782,247.277,201.904,241.019,190.673z"/>
			</g>
			<g>
				<g>
					<g>
						<polygon style="fill:#263238;" points="266.703,67.487 298.701,105.054 264.424,116.619 230.755,84.326 						"/>
					</g>
				</g>
				<g id="Head_00000135660291022179298570000005243336008876878216_">
					<path style="fill:#263238;" d="M276.429,140.962c3.723,0.426,7.414-1.929,9.242-5.201s2.007-7.265,1.232-10.931
						c-0.49-2.318-1.338-4.542-2.314-6.696c-0.708-1.561-2.495-3.93-2.259-5.714c0.539-4.067,6.991-10.95,5.005-14.61
						c-1.75-3.226-4.45-5.998-7.284-8.301c-5.334-4.334-11.977-7.428-18.839-8.213c-1.66-0.19-3.335-0.208-5.003-0.21
						c-2.134-0.002-4.28,0.027-6.379,0.412c-2.823,0.518-3.749,3.559-4.545,5.921c-0.889,2.638-1.727,5.057-4.623,5.821
						c-2.568,0.677-4.685,2.923-5.401,5.456c-0.727,2.574-0.052,5.499,1.731,7.493c-0.217-1.308-0.084-2.673,0.382-3.915
						c-0.281,0.748,0.632,2.325,1.026,2.913c0.527,0.788,1.359,1.308,1.881,2.083c1.266,1.879-0.032,3.931-1.802,4.833
						c-0.916,0.467-1.914,0.75-2.849,1.177c-3.348,1.528-5.709,5.017-5.883,8.693c-0.174,3.676,1.848,7.373,5.036,9.21
						c-0.871-2.167-0.741-4.399,0.589-6.479c-0.385,2.714,0.613,5.493,2.242,7.698c2.679,3.626,6.453,5.729,10.679,7.029
						c4.109,1.265,8.675,2.616,12.99,2.322c2.141-0.145,4.134-0.017,6.257-0.551c2.021-0.508,3.963-1.294,5.85-2.169
						c1.689-0.783,3.498-1.801,4.086-3.567C277.405,137.338,277.051,139.197,276.429,140.962z"/>
					<path style="fill:#FFA8A7;" d="M280.435,114.645c-3.087-1.781-5.247-0.19-7.436,1.65c-0.809,0.681-2.485,1.309-3.337,0.323
						c-0.694-0.803-0.42-2.336-0.263-3.262c0.348-2.049,0.218-3.497-1.159-5.45c-0.918-1.301-1.65-1.878-2.564-5.161
						c-0.328,2.185,0.158,4.922,1.46,6.783c-4.568-1.697-8.96-5.842-10.213-10.649c-0.216,1.801,0.085,3.807,0.767,5.964
						c-6.454-2.16-9.922-7.263-8.119-13.885c-2.806,1.704-3.955,3.003-5.456,5.186c-1.787,2.6-3.092,5.294-3.889,8.553
						c-0.279,1.142-1.13,4.255-2.146,8.147c-2.986,11.434,0.742,15.533,2.544,17.429c1.83,1.926,5.28,3.626,9.792,4.252l-1.2,6.357
						c0,0-22.784,12.348-10.132,20.464c26.017,10.587,27.791-8.793,30.223-17.144l3.24-17.137c1.029,2.51,4.494,2.523,6.922,0.229
						C283.308,123.666,285.003,117.281,280.435,114.645z"/>
					<g >
						<path id="XMLID_00000045608434767770686850000008887381531605290162_" style="fill:#263238;" d="M260.322,104.969l3.718,3.014
							c0.878-1.003,0.757-2.492-0.27-3.324C262.743,103.827,261.199,103.966,260.322,104.969z"/>
						<polygon id="XMLID_00000017494951171853927710000016129656520517013634_" style="fill:#F28F8F;" points="253.396,106.475 
							250.275,118.537 243.98,115.195 						"/>
					</g>
					<g id="XMLID_00000111884319231038223670000009630318748797671050_">
						<path id="XMLID_00000014600252861321653050000011149580399516680888_" style="fill:#F28F8F;" d="M250.417,134.525
							c7.609,0.761,13.579-0.335,18.205-7.049c0,0-1.126,6.779-6.656,9.309c-4.079,1.866-12.315,1.844-12.315,1.844L250.417,134.525
							z"/>
					</g>
					<path style="fill:#F28F8F;" d="M256.624,115.706c-0.396,2.042,0.939,4.019,2.982,4.414c2.042,0.396,4.019-0.939,4.414-2.982
						c0.396-2.042-0.939-4.018-2.982-4.414C258.996,112.329,257.02,113.664,256.624,115.706z"/>
					<path style="fill:#F28F8F;" d="M243.871,111.306c0.395-2.042-0.939-4.019-2.982-4.414c-0.435-0.084-0.863-0.072-1.278-0.009
						c-0.435,1.514-1.01,3.576-1.53,5.961c-0.056,0.253-0.104,0.497-0.154,0.743c0.441,0.334,0.95,0.588,1.53,0.7
						C241.499,114.683,243.475,113.348,243.871,111.306z"/>
					<g>
						<path style="fill:#263238;" d="M257.26,111.442c-0.399,1.117,0.959,0.173,2.077,0.572c1.117,0.399,1.57,1.99,1.969,0.873
							c0.399-1.117-0.183-2.346-1.301-2.745C258.888,109.742,257.659,110.325,257.26,111.442z"/>
						<path style="fill:#263238;" d="M262.457,112.644c-0.005,0.018-0.012,0.036-0.021,0.052c-0.102,0.188-0.249,0.355-0.436,0.459
							c-0.271,0.15-0.68,0.141-0.913-0.083c-0.082-0.079-0.137-0.185-0.165-0.295c-0.012-0.049-0.02-0.1-0.013-0.15
							c0.008-0.058,0.034-0.112,0.059-0.165c0.042-0.086,0.126-0.453,0.27-0.409c0.04,0.012,0.067,0.048,0.091,0.082
							c0.117,0.162,0.207,0.305,0.396,0.39c0.19,0.086,0.412,0.098,0.61,0.033c0.033-0.011,0.072-0.023,0.101-0.004
							C262.465,112.573,262.466,112.609,262.457,112.644z"/>
					</g>
					<g class="eye">
						<path class="eye" style="fill:#263238;" d="M241.938,107.269c-0.228,1.164,0.974,0.028,2.139,0.256c1.164,0.228,1.849,1.734,2.077,0.569
							s-0.531-2.293-1.695-2.521C243.294,105.345,242.166,106.104,241.938,107.269z"/>
						<path class="eye" style="fill:#263238;" d="M241.02,106.402c-0.005,0.018-0.008,0.038-0.009,0.055c-0.008,0.214,0.032,0.432,0.14,0.617
							c0.157,0.268,0.513,0.469,0.827,0.395c0.111-0.026,0.212-0.089,0.293-0.169c0.036-0.036,0.068-0.076,0.088-0.122
							c0.023-0.054,0.029-0.114,0.034-0.172c0.008-0.095,0.124-0.454-0.023-0.489c-0.04-0.01-0.082,0.007-0.12,0.024
							c-0.184,0.079-0.334,0.157-0.54,0.133c-0.207-0.023-0.404-0.127-0.542-0.283c-0.023-0.026-0.05-0.057-0.085-0.055
							C241.05,106.338,241.03,106.368,241.02,106.402z"/>
					</g>
					<g>
						<path style="fill:#B16668;" d="M248.052,121.437c0.046,1.899,1.65,3.411,3.582,3.378c1.932-0.033,3.461-1.6,3.415-3.499
							L248.052,121.437z"/>
						<path style="fill:#F28F8F;" d="M254.89,122.427c-0.437,1.361-1.72,2.361-3.256,2.388c-0.429,0.007-0.838-0.06-1.221-0.193
							C251.029,122.809,253.037,121.825,254.89,122.427z"/>
					</g>
					<g class="eyebrow" id="XMLID_00000004546027731123787980000018325336736609853321_">
						<path id="XMLID_00000008859884015161197740000006183654743297666737_" style="fill:#263238;" d="M243.54,101.039l4.728,0.198
							c0.084-1.301-0.907-2.401-2.213-2.455C244.75,98.727,243.623,99.738,243.54,101.039z"/>
					</g>
					<g id="XMLID_00000132772476665779323240000003202052614632349849_">
						<path id="XMLID_00000043419984292539661080000009195013567825469577_" style="fill:#263238;" d="M259.333,105.515l4.333,2.621
							c0.786-1.155,0.452-2.678-0.744-3.402C261.726,104.01,260.119,104.36,259.333,105.515z"/>
					</g>
				</g>
				<g>
					<path style="fill:#37474F;" d="M282.33,112.42c0,0-2.941-8.833-10.506-13.816c-7.565-4.982-17.327-3.431-17.327-3.431
						s-3.715-3.25-7.799-3.398c-4.083-0.148-5.993,1.473-5.993,1.473l6.067-12.164c0,0,5.351-4.505,17.575-1.265
						c12.533,3.322,20.488,10.788,22.807,19.71L282.33,112.42z"/>
					<g>
						<polygon style="fill:#455A64;" points="230.755,84.326 231.467,81.962 267.415,65.124 266.703,67.487 						"/>
						<polygon style="opacity:0.2;fill:#FFFFFF;" points="230.755,84.326 231.467,81.962 267.415,65.124 266.703,67.487 						"/>
					</g>
					<polygon style="fill:#37474F;" points="267.415,65.124 266.703,67.487 298.701,105.054 299.413,102.691 					"/>
					<path class="tassel" style="fill:#BA68C8;" d="M308.306,120.838c-4.786,0.889-9.99-1.458-13.007-5.17c-2.62-3.239-3.749-7.336-3.342-11.462
						c0.203-1.999,0.642-3.99,0.923-5.983c0.144-0.972,0.239-1.947,0.245-2.92c0.015-1.345-0.135-2.703-0.591-4.056
						c-0.574-1.735-1.568-3.374-2.981-4.544c-1.599-1.313-3.627-1.901-5.638-2.214l-1.523-1.788
						c0.848,0.095,1.683,0.218,2.497,0.369c2.112,0.399,4.171,1.098,5.832,2.494c1.44,1.212,2.523,2.838,3.184,4.599
						c0.684,1.832,0.977,3.771,0.904,5.731c-0.013,0.422-0.046,0.852-0.098,1.27c-0.09,0.917-0.248,1.819-0.407,2.73
						c-0.19,1.066-0.401,2.141-0.552,3.211c-0.327,2.196-0.337,4.367,0.254,6.516c0.53,1.918,1.5,3.742,2.789,5.257
						c1.371,1.6,3.12,2.875,5.061,3.702c1.997,0.862,4.055,1.069,6.202,1.264C308.595,119.897,309.033,120.707,308.306,120.838z"/>
					<g class="tassel">
						<g>
							<g>
								<path style="fill:#BA68C8;" d="M319.063,111.023c-0.811,0.906-2.641,2.837-5.323,5.009
									c-3.718,2.998-5.933,3.041-5.576,4.261c0.331,1.109,4.457,1.091,8.82-0.058c3.139-0.823,5.142-2.393,6.174-3.376
									c0.165-0.157,0.186-0.412,0.051-0.596c-0.074-0.101-0.264-0.223-0.465-0.124c0.276-0.267,0.478-0.45,0.28-0.783
									c-0.128-0.215-0.432-0.245-0.633-0.096c-1.014,0.751-3.532,2.47-5.9,2.94c2.697-1.179,4.878-3.204,5.914-4.245
									c0.16-0.16,0.178-0.413,0.042-0.594l-0.007-0.01c-0.164-0.219-0.482-0.246-0.679-0.056
									c-1.049,1.015-3.802,3.765-7.949,5.081c3.474-1.56,6.174-4.264,6.99-5.159c0.178-0.195,0.245-0.523,0.035-0.723
									c-0.003-0.003,0,0-0.003-0.003c-0.204-0.188-0.498-0.198-0.727,0.052c-0.782,0.853-3.124,3.111-5.51,4.286
									c0.17-0.148,3.479-3.269,5.189-5.131c0.15-0.164,0.161-0.411,0.026-0.586l-0.05-0.064
									C319.587,110.824,319.253,110.811,319.063,111.023z M313.811,119.907c2.053-0.435,5.5-1.213,8.184-3.236
									C318.802,119.328,316.22,119.643,313.811,119.907z"/>
								<path style="fill:#BA68C8;" d="M307.056,119.579c-0.46,0.729-0.242,1.693,0.487,2.153c0.729,0.46,1.693,0.242,2.153-0.487
									c0.46-0.729,0.242-1.693-0.487-2.153C308.48,118.632,307.516,118.85,307.056,119.579z"/>
								<path style="opacity:0.2;" d="M307.056,119.579c-0.46,0.729-0.242,1.693,0.487,2.153c0.729,0.46,1.693,0.242,2.153-0.487
									c0.46-0.729,0.242-1.693-0.487-2.153C308.48,118.632,307.516,118.85,307.056,119.579z"/>
							</g>
						</g>
					</g>
				</g>
			</g>
			<g>
				<g>
					<path style="fill:#455A64;" d="M286.701,170.879c-0.036,27.128,2.669,41.403,4.642,59.862
						c2.276,21.284,4.431,34.924,6.284,53.14c1.457,14.323,6.938,43.285,6.938,43.285s-2.413,12.577-24.886,22.931
						c-21.983,10.128-36.58,8.261-36.58,8.261s2.253-86.546,6.673-133.409c0,0,7.821-38.858,18.017-50.366
						C277.986,163.076,286.701,170.879,286.701,170.879z"/>
					<path style="fill:#37474F;" d="M284.338,229.09c2.592,5.724,6.226,12.852,8.878,17.934c-0.612-5.014-1.237-10.344-1.872-16.283
						c-1.545-14.447-3.538-26.333-4.313-43.823l-11.921-0.181C277.599,206.712,279.785,219.035,284.338,229.09z"/>
				</g>
				<g id="Arm_00000070083594199725198780000009501504483068492437_">
					<g id="Arm_00000103967992244905727170000014774804832837063099_">
						<path style="fill:#F28F8F;" d="M351.667,260.755c-1.183-0.009-2.364-0.402-3.305-1.122c-0.386-0.295-0.731-0.64-1.064-0.994
							c-0.061-0.065-0.125-0.132-0.21-0.158c-0.098-0.029-0.204,0.004-0.302,0.034c-1.535,0.477-2.997,0.075-4.385-0.63
							c-1.735-0.882-3.47-1.763-5.206-2.645c-0.964-0.49-1.939-0.986-2.763-1.687c-0.825-0.7-1.498-1.635-1.674-2.702
							c-0.103-0.619-0.023-1.292,0.344-1.8c0.233-0.323,0.566-0.562,0.921-0.742c1.091-0.554,2.37-0.584,3.59-0.496
							c3.526,0.255,6.905,1.567,9.73,3.682c1.052,0.788,2.044,1.654,3.031,2.506c0.886,0.764,1.151,2.083,1.535,3.13
							c0.227,0.619,0.5,1.266,0.831,1.836c0.205,0.353,0.771,0.736,0.652,1.198c-0.083,0.321-0.459,0.458-0.786,0.514
							C352.297,260.732,351.982,260.757,351.667,260.755z"/>
						<path style="fill:#FFA8A7;" d="M335.441,257.005c-2.246-1.378-4.645-1.708-7.122-2.452c-1.696-0.509-3.276-1.254-4.972-1.749
							c-1.697-0.494-3.47-0.817-5-1.751c-1.525-0.931-2.454-1.918-3.335-3.46c-1.192-2.086-1.964-3.29-3.184-4.794
							c-3.12-3.845-13.166-15.282-20.307-23.42c-4.909-5.594-6.292-8.035-7.491-12.001c-5.826-19.26-10.113-31.528-10.113-31.528
							c-3.536-10.046-1.077-24.018,4.931-28.599c12.271,3.892,13.138,6.056,18.459,24.226c3.005,10.263,4.1,16.101,8.805,32.749
							c10.906,17.958,19.161,33.422,20.439,34.602c2.022,1.866,7.66,3.002,12.392,5.008c2.48,1.051,4.925,2.026,7.486,2.861
							c0.847,0.276,1.711,0.561,2.42,1.1c0.54,0.411,0.964,0.951,1.383,1.485c1.227,1.567,2.454,3.134,3.681,4.701
							c1.049,1.339,2.411,2.324,3.528,3.612c0.144,0.167,0.286,0.346,0.341,0.559c0.547,2.119-3.448,1.42-4.327,1.064
							c-1.108-0.45-2.093-1.152-3.066-1.849c-1.461-1.054-2.653-2.195-3.899-3.494c-1.292-1.348-2.8-2.318-4.671-2.566
							c-1.316-0.175-2.632-0.35-3.948-0.525c-0.233-0.031-0.572,0.036-0.541,0.269c0.011,0.083,0.074,0.148,0.133,0.207
							c1.863,1.84,3.872,3.533,6.002,5.056c0.337,0.24,0.694,0.499,0.844,0.885c0.302,0.776-0.395,1.595-1.143,1.959
							C340.404,260.498,337.721,258.405,335.441,257.005z"/>
					</g>
					<path style="fill:#455A64;" d="M277.093,146.65c5.955,1.4,11.492,2.786,14.289,7.169c2.797,4.383,4.571,8.461,6.993,17.178
						c2.422,8.717,8.429,32.372,8.429,32.372l20.752,36.176c0,0-2.757,17.359-26.357,16.434
						c-10.146-20.995-17.793-38.709-19.868-44.962c-2.075-6.253-9.184-36.802-9.184-36.802S268.168,159.817,277.093,146.65z"/>
				</g>
				<path style="fill:#37474F;" d="M249.772,224.95c4.346-51.75,13.119-63.43,16.157-70.525c1.886-4.403,3.378-10.222,3.378-10.222
					l0.427-2.258c0,0,16.109,5.604,20.505,8.876c4.396,3.273,6.48,9.983,8.206,15.574c-1.666,4.202-8.026,7.094-11.817,9.267
					C274.492,182.619,262.872,186.174,249.772,224.95z"/>
				<g>
					<path style="fill:#455A64;" d="M214.466,217.142c-3.151,45.074-9.147,131.826-9.147,131.826s-17.9-5.547-22.116-15.292
						c6.716-58.983,16.268-119.841,35.361-174.873C218.564,158.803,215.755,195.048,214.466,217.142z"/>
					<path class="diploma-arm" style="fill:#37474F;" d="M249.682,138.419l-0.465,2.464c0,0-17.288,10.87-23.889,28.069
						c-6.711,17.487-10.861,48.19-10.861,48.19s-3.006-19.502-2.06-45.154c0.651-17.665,1.616-21.994,3.184-28.797
						c2.462-10.68,5.543-16.967,5.543-16.967s7.624,4.9,12.977,8.01C241.956,138.789,249.682,138.419,249.682,138.419z"/>
				</g>
			</g>
			<g>
				<path style="fill:#FFFFFF;" d="M206.939,240.901c-0.019-0.167-0.028-0.329-0.068-0.493c-0.079-0.327-0.176-0.649-0.286-0.966
					c-0.153-0.444-0.363-0.855-0.596-1.256c0.111-0.043,0.217-0.093,0.304-0.17c0.18-0.158,0.308-0.341,0.326-0.587
					c0.013-0.181-0.054-0.379-0.156-0.526c-0.117-0.169-0.267-0.316-0.45-0.413c-0.004-0.002-0.008-0.003-0.012-0.005
					c0.253-1.889,0.505-3.778,0.758-5.667c0.133-0.994,0.259-1.988,0.381-2.984c0.129-1.06,0.22-2.054-0.16-3.074
					c-0.076-0.203-0.568-0.52-0.616-0.126c-0.468,3.857-0.99,7.708-1.502,11.561c-0.041,0.008-0.084,0.011-0.124,0.024
					c-0.336,0.106-0.623,0.328-0.766,0.657c-0.08,0.185-0.1,0.384-0.069,0.581c0.026,0.169,0.121,0.307,0.234,0.431
					c-0.059,0.107-0.112,0.219-0.161,0.323c-0.136,0.294-0.254,0.602-0.337,0.916c-0.159,0.597-0.231,1.224-0.317,1.837
					c-0.011,0.079,0.076,0.211,0.125,0.085c0.174-0.453,0.384-0.887,0.584-1.328c-0.043,0.287-0.082,0.575-0.121,0.861
					c-0.062,0.457-0.165,0.939-0.171,1.401c-0.005,0.461,0.021,0.938,0.053,1.398c0.006,0.091,0.125,0.194,0.161,0.058
					c0.082-0.307,0.152-0.624,0.222-0.938c-0.006,0.249-0.014,0.497-0.022,0.747c-0.004,0.123,0.139,0.276,0.197,0.096
					c0.137-0.422,0.281-0.841,0.397-1.269c0.043-0.159,0.071-0.322,0.1-0.483c-0.028,0.443-0.061,0.886-0.068,1.331
					c-0.007,0.509,0.009,1.062,0.091,1.563c0.018,0.111,0.182,0.241,0.24,0.084c0.101-0.273,0.131-0.582,0.198-0.864
					c0.059-0.246,0.081-0.5,0.109-0.752c0.054-0.483,0.068-0.973,0.093-1.459c0.016,0.076,0.034,0.152,0.071,0.228
					c0.034,0.068,0.159,0.17,0.232,0.089c0.131-0.145,0.133-0.369,0.176-0.555c0.043-0.187,0.014-0.402,0.009-0.594
					c-0.009-0.399-0.022-0.799-0.039-1.198c-0.004-0.098-0.01-0.202-0.015-0.304c0.053,0.152,0.111,0.302,0.158,0.455
					c0.086,0.279,0.157,0.561,0.22,0.846c0.029,0.132,0.078,0.257,0.111,0.388c0.045,0.183,0.085,0.343,0.175,0.51
					c0.05,0.093,0.244,0.183,0.299,0.038C206.975,241.225,206.959,241.079,206.939,240.901z"/>
				<g>
					<path style="fill:#FFFFFF;" d="M249.377,255.813c-0.026-0.166-0.043-0.327-0.089-0.49c-0.093-0.323-0.205-0.64-0.329-0.953
						c-0.173-0.436-0.401-0.839-0.65-1.229c0.109-0.047,0.212-0.103,0.297-0.183c0.172-0.166,0.292-0.354,0.299-0.601
						c0.005-0.181-0.07-0.376-0.179-0.519c-0.125-0.163-0.28-0.304-0.467-0.393c-0.004-0.002-0.008-0.003-0.012-0.004
						c0.169-1.898,0.338-3.797,0.507-5.695c0.089-0.999,0.171-1.998,0.248-2.998c0.082-1.065,0.129-2.062-0.296-3.063
						c-0.085-0.199-0.59-0.494-0.621-0.098c-0.297,3.874-0.648,7.745-0.988,11.616c-0.041,0.01-0.084,0.015-0.123,0.029
						c-0.331,0.12-0.608,0.355-0.736,0.69c-0.072,0.188-0.082,0.388-0.043,0.584c0.033,0.168,0.135,0.302,0.253,0.42
						c-0.054,0.11-0.103,0.223-0.146,0.33c-0.123,0.3-0.227,0.613-0.296,0.93c-0.133,0.604-0.176,1.233-0.235,1.849
						c-0.008,0.079,0.085,0.208,0.128,0.079c0.154-0.46,0.345-0.904,0.524-1.352c-0.03,0.289-0.057,0.578-0.083,0.865
						c-0.042,0.459-0.124,0.946-0.109,1.407c0.015,0.461,0.062,0.937,0.115,1.395c0.01,0.091,0.134,0.188,0.164,0.05
						c0.068-0.311,0.125-0.63,0.18-0.946c0.005,0.249,0.008,0.498,0.011,0.747c0.001,0.123,0.151,0.27,0.202,0.087
						c0.118-0.428,0.243-0.852,0.34-1.285c0.036-0.161,0.056-0.324,0.079-0.487c-0.009,0.444-0.022,0.888-0.008,1.332
						c0.015,0.508,0.056,1.06,0.16,1.558c0.023,0.11,0.192,0.233,0.243,0.073c0.088-0.277,0.105-0.588,0.16-0.872
						c0.048-0.248,0.059-0.503,0.076-0.756c0.033-0.485,0.025-0.975,0.029-1.462c0.019,0.076,0.04,0.151,0.081,0.224
						c0.037,0.066,0.167,0.162,0.236,0.078c0.124-0.15,0.117-0.375,0.151-0.562c0.035-0.189-0.004-0.403-0.017-0.594
						c-0.027-0.399-0.058-0.797-0.092-1.195c-0.008-0.098-0.019-0.202-0.028-0.303c0.059,0.149,0.124,0.297,0.178,0.447
						c0.098,0.275,0.181,0.554,0.257,0.835c0.035,0.131,0.089,0.253,0.128,0.383c0.053,0.181,0.1,0.339,0.198,0.502
						c0.054,0.091,0.252,0.172,0.3,0.025C249.428,256.135,249.405,255.99,249.377,255.813z"/>
					<path style="fill:#BA68C8;" d="M271.278,133.779l11.487,13.199c0,0-6.578-0.824-12.682,12.607
						c-6.105,13.432-10.681,45.039-12.858,71.527l-8.872,10.134l-6.764-11.783c0,0,5.232-48.56,13.136-67.912
						c6.187-15.148,15.867-24.14,15.867-24.14L271.278,133.779z"/>
					<path style="opacity:0.6;fill:#FFFFFF;" d="M271.278,133.779l11.487,13.199c0,0-6.578-0.824-12.682,12.607
						c-6.105,13.432-10.681,45.039-12.858,71.527l-8.872,10.134l-6.764-11.783c0,0,5.232-48.56,13.136-67.912
						c6.187-15.148,15.867-24.14,15.867-24.14L271.278,133.779z"/>
					<path style="fill:#FFFFFF;" d="M280.422,144.285c-2.189,0.971-4.698,2.668-7.309,5.583
						c-7.876,8.791-10.686,21.715-13.794,39.014c-3.055,16.995-4.805,38.148-4.969,40.182l-5.24,6.224l-3.991-6.67
						c0.341-2.616,4.526-34.55,7.426-49.1c3.28-16.464,9.545-26.474,14.636-33.355c1.196-1.616,2.182-2.894,2.991-3.944
						c2.181-2.826,3.128-4.063,3.418-5.783l-0.867-0.997c-0.069,1.957-0.822,2.935-3.326,6.182
						c-0.812,1.054-1.803,2.337-3.003,3.959c-5.152,6.964-11.492,17.093-14.811,33.747c-3.015,15.134-7.414,48.994-7.458,49.334
						l-0.022,0.169l4.872,8.141l6.326-7.515l0.012-0.157c0.018-0.223,1.782-22.508,4.969-40.242
						c3.08-17.138,5.855-29.934,13.559-38.533c2.616-2.92,5.128-4.546,7.277-5.437L280.422,144.285z"/>
				</g>
				<path style="fill:#BA68C8;" d="M245.013,133.1l-4.863,2.265c0,0-11.657,3.748-22.658,23.029
					c-13.129,23.01-16.111,55.094-16.111,55.094l5.148,13.388l10.226-9.7c0,0,4.553-32.285,10.259-48.934
					c5.706-16.65,22.203-27.36,22.203-27.36l1.092-5.784l0.108-0.573C248.604,134.294,246.803,133.803,245.013,133.1z"/>
				<path style="opacity:0.6;fill:#FFFFFF;" d="M245.013,133.1l-4.863,2.265c0,0-11.657,3.748-22.658,23.029
					c-13.129,23.01-16.111,55.094-16.111,55.094l5.148,13.388l10.226-9.7c0,0,4.553-32.285,10.259-48.934
					c5.706-16.65,22.203-27.36,22.203-27.36l1.092-5.784l0.108-0.573C248.604,134.294,246.803,133.803,245.013,133.1z"/>
				<path style="fill:#FFFFFF;" d="M249.519,139.284l0.227-1.199c-8.915,4.293-20.405,15.022-26.769,33.245
					c-5.86,16.779-8.674,40.602-8.937,42.909l-5.964,5.658l-3.115-8.294c2.463-16.295,5.689-33.317,12.512-47.491
					c6.088-12.646,17.81-26.173,31.136-29.913c-0.596-0.132-1.191-0.29-1.785-0.473c-12.988,4.389-24.279,17.593-30.234,29.962
					c-6.897,14.327-10.14,31.487-12.616,47.896l-0.019,0.126l3.724,9.916l7.296-6.922l0.02-0.179
					c0.027-0.252,2.811-25.416,8.908-42.872C230.016,154.147,240.89,143.684,249.519,139.284z"/>
			</g>
		</g>
	</g>
</g>
<g id="Sparkles_00000001641734057676774110000002853363221562959775_">
	<g id="Sparkles">
		<path class="sparkle sparkle-1" style="fill:#455A64;" d="M168.66,232.935c-0.032,2.98,0.075,5.848,4.379,6.518c-4.548-0.061-4.204,2.806-4.426,6.396
			c-0.121-3.59-0.437-6.166-3.981-6.336C168.297,238.906,168.2,237.206,168.66,232.935z"/>
		<path class="sparkle sparkle-2" style="fill:#455A64;" d="M149.429,143.735c-0.064,5.912,0.148,11.601,8.687,12.928c-9.021-0.121-8.339,5.565-8.78,12.687
			c-0.241-7.122-0.867-12.231-7.897-12.569C148.71,155.578,148.518,152.207,149.429,143.735z"/>
		<path class="sparkle sparkle-3" style="fill:#BA68C8;" d="M146.467,244.642c-0.064,5.948,0.149,11.672,8.74,13.008c-9.076-0.122-8.39,5.599-8.834,12.765
			c-0.242-7.165-0.872-12.306-7.946-12.645C145.744,256.557,145.55,253.166,146.467,244.642z"/>
		<path class="sparkle sparkle-4" style="fill:#455A64;" d="M359.249,165.961c-0.046,4.32,0.108,8.477,6.348,9.447c-6.592-0.088-6.093,4.067-6.416,9.27
			c-0.176-5.204-0.633-8.938-5.771-9.184C358.724,174.615,358.583,172.152,359.249,165.961z"/>
		<path class="sparkle sparkle-5" style="fill:#BA68C8;" d="M325.82,140.66c-0.063,5.839,0.146,11.459,8.581,12.77c-8.91-0.119-8.236,5.497-8.672,12.531
			c-0.238-7.034-0.856-12.081-7.8-12.414C325.11,152.358,324.92,149.028,325.82,140.66z"/>
		<path class="sparkle sparkle-6" style="fill:#BA68C8;" d="M321.619,267.481c0.252,6.226,0.689,9.3,6.575,9.777c-5.885,0.288-6.277,3.454-6.575,9.507
			c-0.215-6.017-0.426-9.102-5.98-9.507C321.195,276.781,321.264,273.614,321.619,267.481z"/>
		<path style="fill:#EBEBEB;" d="M128.617,171.348c-0.047,4.382,0.11,9.127,6.439,10.111c-6.686-0.089-6.181,3.597-6.508,8.876
			c-0.179-5.279-0.642-9.066-5.854-9.316C128.085,180.126,127.942,177.628,128.617,171.348z"/>
		<path style="fill:#EBEBEB;" d="M329.984,183.848c0.269,5.861,0.269,8.425,5.95,8.849c-5.681,0.265-5.65,3.751-5.95,8.603
			c-0.164-4.852-0.395-8.148-5.412-8.603C329.526,192.379,329.691,189.77,329.984,183.848z"/>
	</g>
</g>
<g >
<g id="Speech_Bubble_2" class="orbiter2">
	<g id="Speech_Bubble_00000023241866532908115020000001865299813209039038_">
		<g id="Speech_Bubble_00000121993099572581513890000014015396000358884524_">
			<g>
				<path style="fill:#BA68C8;" d="M412.287,280.357l-1.007-3.143c-0.542-2.539,9.816,3.441,10.358,5.98l-3.338,8.984
					c-0.128,0.293-0.326,0.51-0.56,0.654c-0.733,0.451-3.432,1.973-3.667,2.117c-0.739,0.452-1.826,0.169-2.134-0.793l-4.323-14.828
					C407.349,278.076,409.736,278.898,412.287,280.357z"/>
				<path style="opacity:0.2;fill:#FFFFFF;" d="M412.287,280.357l-1.007-3.143c-0.542-2.539,9.816,3.441,10.358,5.98l-3.338,8.984
					c-0.128,0.293-0.326,0.51-0.56,0.654c-0.733,0.451-3.432,1.973-3.667,2.117c-0.739,0.452-1.826,0.169-2.134-0.793l-4.323-14.828
					C407.349,278.076,409.736,278.898,412.287,280.357z"/>
			</g>
			<g id="XMLID_00000104684022178466540370000013926891421289800593_">
				<path id="XMLID_00000010268993553535273300000012740109570031438743_" style="fill:#BA68C8;" d="M398.209,219.969l39.38,22.717
					c0.735,0.424,1.331,1.457,1.331,2.305v46.661c0,0.849-0.599,1.875-1.339,2.292l-2.435,1.377c-0.74,0.417-1.935,0.412-2.67-0.013
					l-39.38-22.717c-0.735-0.424-1.331-1.457-1.331-2.306v-46.661c0-0.849,0.599-1.875,1.339-2.293l2.436-1.377
					C396.279,219.538,397.474,219.544,398.209,219.969z"/>
				<path id="XMLID_00000106831818421717991670000000765478909814553246_" style="opacity:0.2;fill:#FFFFFF;" d="M398.209,219.969
					l39.38,22.717c0.735,0.424,1.331,1.457,1.331,2.305v46.661c0,0.849-0.599,1.875-1.339,2.292l-2.435,1.377
					c-0.74,0.417-1.935,0.412-2.67-0.013l-39.38-22.717c-0.735-0.424-1.331-1.457-1.331-2.306v-46.661
					c0-0.849,0.599-1.875,1.339-2.293l2.436-1.377C396.279,219.538,397.474,219.544,398.209,219.969z"/>
				<path style="fill:#BA68C8;" d="M393.096,222.857l39.38,22.717c0.735,0.424,1.331,1.457,1.331,2.305v46.661
					c0,0.849-0.596,1.193-1.331,0.768l-15.07-8.693l-2.768,7.678c-0.532,1.22-2.291,1.13-2.697-0.137l-3.679-12.816l-15.165-8.748
					c-0.735-0.424-1.331-1.457-1.331-2.306v-46.661C391.765,222.777,392.361,222.432,393.096,222.857z"/>
				<path style="opacity:0.4;fill:#FFFFFF;" d="M393.096,222.857l39.38,22.717c0.735,0.424,1.331,1.457,1.331,2.305v46.661
					c0,0.849-0.596,1.193-1.331,0.768l-15.07-8.693l-2.768,7.678c-0.532,1.22-2.291,1.13-2.697-0.137l-3.679-12.816l-15.165-8.748
					c-0.735-0.424-1.331-1.457-1.331-2.306v-46.661C391.765,222.777,392.361,222.432,393.096,222.857z"/>
				<path id="XMLID_00000101103499298367068500000001624012147187329455_" style="opacity:0.7;fill:#FFFFFF;" d="M391.783,223.384
					c0.104-0.67,0.652-0.91,1.316-0.529l39.375,22.718c0.369,0.215,0.701,0.578,0.941,0.996l5.089-2.938
					c-0.24-0.4-0.56-0.744-0.916-0.947l-39.381-22.718c-0.732-0.424-1.925-0.43-2.668-0.012l-2.433,1.376
					C392.434,221.712,391.875,222.591,391.783,223.384z"/>
			</g>
		</g>
		<path class="star" style="fill:#FFFFFF;" d="M411.38,241.783l-2.649,9.34l-8.572-4.949c-1.049-0.606-1.485,0.932-0.637,2.245l6.935,10.721
			l-2.649,9.34c-0.324,1.143,0.818,2.909,1.667,2.577l6.935-2.714l6.935,10.721c0.849,1.312,1.991,0.865,1.667-0.652l-2.649-12.399
			l6.935-2.714c0.849-0.332,0.413-2.374-0.637-2.98l-8.572-4.949l-2.649-12.399C413.116,241.455,411.704,240.64,411.38,241.783z"/>
	</g>
</g>

<g id="Speech_Bubble_1" class="orbiter">
	<g id="Speech_Bubble_00000065071409747244119150000001705136734481716410_">
		<g id="Speech_Bubble_00000181059137549214233640000017262172443570488721_">
			<g>
				<path style="fill:#BA68C8;" d="M86.512,280.357l1.007-3.143c0.542-2.539-9.816,3.441-10.358,5.98l3.338,8.984
					c0.128,0.293,0.326,0.51,0.56,0.654c0.733,0.451,3.432,1.973,3.667,2.117c0.739,0.452,1.826,0.169,2.134-0.793l4.323-14.828
					C91.449,278.076,89.063,278.898,86.512,280.357z"/>
				<path style="opacity:0.2;fill:#FFFFFF;" d="M86.512,280.357l1.007-3.143c0.542-2.539-9.816,3.441-10.358,5.98l3.338,8.984
					c0.128,0.293,0.326,0.51,0.56,0.654c0.733,0.451,3.432,1.973,3.667,2.117c0.739,0.452,1.826,0.169,2.134-0.793l4.323-14.828
					C91.449,278.076,89.063,278.898,86.512,280.357z"/>
			</g>
			<g class="orbit" id="XMLID_00000168105531540964821520000009519541973650908607_">
				<path id="XMLID_00000121965864895681067690000018058535346576762017_" style="fill:#BA68C8;" d="M100.59,219.969L61.21,242.686
					c-0.735,0.424-1.331,1.457-1.331,2.305v46.661c0,0.849,0.599,1.875,1.339,2.292l2.436,1.377c0.739,0.417,1.935,0.412,2.67-0.013
					l39.38-22.717c0.735-0.424,1.331-1.457,1.331-2.306v-46.661c0-0.849-0.599-1.875-1.339-2.293l-2.436-1.377
					C102.52,219.538,101.325,219.544,100.59,219.969z"/>
				<path id="XMLID_00000175317736259478237690000008620281225433681077_" style="opacity:0.2;fill:#FFFFFF;" d="M100.59,219.969
					L61.21,242.686c-0.735,0.424-1.331,1.457-1.331,2.305v46.661c0,0.849,0.599,1.875,1.339,2.292l2.436,1.377
					c0.739,0.417,1.935,0.412,2.67-0.013l39.38-22.717c0.735-0.424,1.331-1.457,1.331-2.306v-46.661
					c0-0.849-0.599-1.875-1.339-2.293l-2.436-1.377C102.52,219.538,101.325,219.544,100.59,219.969z"/>
				<path style="fill:#BA68C8;" d="M105.703,222.857l-39.38,22.717c-0.735,0.424-1.331,1.457-1.331,2.305v46.661
					c0,0.849,0.596,1.193,1.331,0.768l15.07-8.693l2.769,7.678c0.532,1.22,2.291,1.13,2.697-0.137l3.679-12.816l15.165-8.748
					c0.735-0.424,1.331-1.457,1.331-2.306v-46.661C107.034,222.777,106.438,222.432,105.703,222.857z"/>
				<path style="opacity:0.4;fill:#FFFFFF;" d="M105.703,222.857l-39.38,22.717c-0.735,0.424-1.331,1.457-1.331,2.305v46.661
					c0,0.849,0.596,1.193,1.331,0.768l15.07-8.693l2.769,7.678c0.532,1.22,2.291,1.13,2.697-0.137l3.679-12.816l15.165-8.748
					c0.735-0.424,1.331-1.457,1.331-2.306v-46.661C107.034,222.777,106.438,222.432,105.703,222.857z"/>
				<path id="XMLID_00000178892947039265806550000010156151552760763062_" style="opacity:0.7;fill:#FFFFFF;" d="M107.016,223.384
					c-0.104-0.67-0.652-0.91-1.316-0.529l-39.375,22.718c-0.369,0.215-0.701,0.578-0.941,0.996l-5.089-2.938
					c0.24-0.4,0.56-0.744,0.916-0.947l39.381-22.718c0.732-0.424,1.924-0.43,2.668-0.012l2.433,1.376
					C106.364,221.712,106.924,222.591,107.016,223.384z"/>
			</g>
		</g>
		<g class="aplus">
			<path class="aplus" style="fill:#FFFFFF;" d="M82.569,248.249c0.301-0.174,0.527-0.197,0.678-0.071c0.152,0.125,0.283,0.37,0.396,0.731
				l6.924,19.815c0.018,0.066,0.027,0.148,0.027,0.248c0,0.277-0.076,0.559-0.225,0.846c-0.152,0.29-0.331,0.493-0.538,0.613
				l-2.035,1.175c-0.375,0.216-0.639,0.262-0.791,0.136c-0.149-0.127-0.253-0.274-0.311-0.442l-1.214-3.481l-8.93,5.155
				l-1.216,4.885c-0.055,0.233-0.159,0.499-0.311,0.8c-0.149,0.299-0.414,0.559-0.791,0.777l-2.033,1.174
				c-0.209,0.121-0.386,0.123-0.538,0.009c-0.152-0.113-0.225-0.308-0.225-0.586c0-0.1,0.009-0.192,0.028-0.28l6.924-27.81
				c0.113-0.491,0.244-0.887,0.396-1.188c0.149-0.299,0.375-0.537,0.678-0.712L82.569,248.249z M84.123,263.892l-3.109-8.943
				l-3.107,12.532L84.123,263.892z"/>
			<path class="aplus" style="fill:#FFFFFF;" d="M95.648,251.714v5.074c0,0.204-0.056,0.414-0.167,0.626c-0.112,0.213-0.245,0.365-0.398,0.453
				l-1.589,0.918c-0.153,0.088-0.286,0.09-0.396,0.005c-0.112-0.084-0.167-0.229-0.167-0.434v-5.074l-3.743,2.161
				c-0.153,0.089-0.286,0.091-0.396,0.007c-0.112-0.084-0.168-0.228-0.168-0.432v-1.84c0-0.204,0.056-0.413,0.168-0.627
				c0.111-0.212,0.243-0.364,0.396-0.452l3.743-2.161v-5.046c0-0.204,0.054-0.412,0.167-0.626c0.111-0.212,0.243-0.364,0.396-0.452
				l1.589-0.918c0.153-0.088,0.286-0.09,0.398-0.006c0.111,0.085,0.167,0.229,0.167,0.433v5.046l3.721-2.148
				c0.153-0.088,0.286-0.09,0.398-0.006c0.111,0.085,0.167,0.229,0.167,0.434v1.84c0,0.204-0.056,0.414-0.167,0.626
				c-0.112,0.213-0.245,0.364-0.398,0.452L95.648,251.714z"/>
		</g>
	</g>
</g>


</g>


</svg>
