<?xml version="1.0" encoding="utf-8"?>
<!-- Generator: Adobe Illustrator 27.5.0, SVG Export Plug-In . SVG Version: 6.00 Build 0)  -->
<svg version="1.1" xmlns="http://www.w3.org/2000/svg" xmlns:xlink="http://www.w3.org/1999/xlink" x="0px" y="0px"
	 viewBox="0 0 500 500" style="enable-background:new 0 0 500 500;" xml:space="preserve">
<g id="BACKGROUND">
	<rect y="0" style="fill:#FFFFFF;" width="500" height="500"/>
</g>
<g id="OBJECTS">
	<g>
		<g>
			<ellipse style="fill:#DAE8F2;" cx="246.568" cy="473.104" rx="171.383" ry="13.232"/>
			<circle style="fill:#DAE8F2;" cx="236.898" cy="242.458" r="181.172"/>
		</g>
		<g>
			<path style="fill:#FFC661;" d="M118.433,207.964c-3.362,2.477-8.134,2.773-11.727,0.573c-3.243-1.986-5.031-5.948-4.721-9.704
				c1.977,0.434,4.117,0.361,5.779-0.721c1.997-1.301,2.896-4.386,0.916-6.126c-2.015-1.771-4.933-0.963-6.538,0.914
				c-0.838,0.981-1.418,2.119-1.78,3.334c-1.966-1.008-3.669-2.695-4.535-4.389c-2.155-4.22-0.445-9.51,3.434-12.056
				c1.076-0.707-0.079-2.339-1.156-1.632c-4.588,3.011-6.619,9.332-4.175,14.346c1.17,2.402,3.17,4.369,5.589,5.506
				c0.145,0.068,0.303,0.125,0.454,0.189c-0.357,3.385,0.755,7.04,2.828,9.534c4.096,4.929,11.68,5.629,16.788,1.866
				C120.624,208.834,119.473,207.198,118.433,207.964z M105.208,193.097c0.799-0.25,1.927-0.076,2.401,0.685
				c0.667,1.072-0.312,2.345-1.243,2.817c-1.281,0.65-2.694,0.697-4.072,0.36C102.73,195.326,103.607,193.598,105.208,193.097z"/>
			<path style="fill:#FFC661;" d="M398.501,286.526c-1.225-6.103-8.595-9.565-14.17-7.018c-1.163,0.531-0.477,2.412,0.698,1.875
				c3.642-1.664,8.26-0.311,10.48,3.033c2.299,3.463,0.97,8.252-2.172,10.726c-0.033,0.026-0.073,0.05-0.107,0.076
				c-0.897-1.483-2.141-2.739-3.689-3.561c-2.54-1.349-5.634-0.175-5.497,2.974c0.135,3.107,3.377,4.393,6.093,4.01
				c0.772-0.109,1.509-0.329,2.211-0.626c0.756,2.17,0.722,4.629-0.275,6.689c-2.057,4.249-7.737,5.793-11.816,3.668
				c-1.145-0.596-1.995,1.215-0.855,1.808c4.913,2.559,11.54,0.69,14.252-4.188c1.498-2.695,1.561-6.063,0.461-8.96
				C397.373,294.741,399.296,290.485,398.501,286.526z M387.091,296.243c-0.806-0.487-1.279-1.43-0.972-2.363
				c0.505-1.535,2.35-0.631,3.25,0.022c0.856,0.62,1.565,1.415,2.12,2.311C390.053,296.819,388.397,297.032,387.091,296.243z"/>
			<path style="fill:#FFC661;" d="M328.7,89.531c-0.227-1.256-2.221-1.094-1.992,0.174c0.741,4.105-2.931,8.666-7.283,8.061
				c-1.797-0.25-3.306-1.289-4.325-2.696c1.117-2.412,0.728-5.368-1.454-7.168c-0.636-0.525-1.405-0.11-1.627,0.585
				c-0.701,2.198-0.336,4.575,0.738,6.582c-0.276,0.375-0.601,0.719-0.972,1.011c-1.857,1.465-4.406,1.715-6.597,0.912
				c-4.871-1.784-5.933-8.021-2.365-11.618c0.908-0.915-0.63-2.195-1.532-1.286c-2.321,2.34-3.144,5.856-2.27,9.016
				c0.855,3.093,3.46,5.319,6.527,6.074c2.984,0.735,6.289-0.113,8.385-2.397c1.383,1.619,3.291,2.771,5.453,2.987
				C324.824,100.315,329.659,94.843,328.7,89.531z"/>
			<path style="fill:#FFC661;" d="M283.655,196.748c-2.641-4.357-7.007-7.449-11.912-8.744c-1.947-0.514-3.995-0.708-6.012-0.581
				c-1.39-2.895-4.633-5.109-7.632-5.614c-5.614-0.944-10.963,3.287-11.653,8.88c-0.157,1.274,1.81,1.64,1.968,0.362
				c0.453-3.669,3.375-6.927,7.138-7.34c3.078-0.338,6.453,1.261,8.014,3.972c-1.906,0.398-3.968,1.322-4.647,3.238
				c-0.708,1.996,0.71,3.856,2.703,4.15c2.092,0.309,3.944-0.928,4.546-2.936c0.293-0.979,0.326-1.94,0.167-2.862
				c2.16-0.039,4.421,0.439,6.176,1.039c3.959,1.355,7.342,4.012,9.512,7.593C282.69,199.005,284.32,197.846,283.655,196.748z
				 M262.394,193.112c-0.566,0.03-1.305-0.127-1.568-0.693c-0.408-0.878,0.482-1.65,1.148-2.056
				c0.686-0.418,1.466-0.696,2.295-0.869C264.575,191.016,264.25,193.012,262.394,193.112z"/>
			<path style="fill:#FFC661;" d="M86.711,273.316c-3.372-0.754-6.613,1.099-8.186,4.068c-1.396,2.634-1.203,5.777,0.569,8.096
				c-1.804,0.725-3.412,1.91-4.551,3.529c-3.109,4.422-2.292,10.796,1.689,14.396c0.957,0.865,2.24-0.669,1.286-1.532
				c-3.221-2.912-3.925-8.338-1.243-11.849c1.129-1.479,2.703-2.477,4.426-2.983c2.291,1.641,5.437,2.072,8.013,0.862
				c0.807-0.379,0.841-1.395,0.079-1.842c-2.261-1.325-5.001-1.693-7.571-1.203c-1.734-1.664-2.069-4.152-1.035-6.326
				c1.055-2.217,3.338-3.744,5.836-3.313c2.575,0.444,4.749,2.576,5.052,5.19c0.148,1.276,2.141,1.107,1.992-0.174
				C92.673,276.841,90.029,274.058,86.711,273.316z"/>
			<path style="fill:#E585A3;" d="M106.419,147.408c-2.164,2.071-5.566,2.797-8.367,1.691c-2.117-0.836-3.809-2.675-4.564-4.826
				c1.021-0.162,1.984-0.568,2.807-1.292c1.333-1.173,1.727-3.301,0.613-4.767c-1.159-1.526-3.266-1.286-4.466,0.034
				c-1.04,1.144-1.434,2.538-1.395,3.972c-1.827-0.37-3.62-1.471-4.708-2.682c-2.469-2.751-2.597-7.006-0.49-10.003
				c0.736-1.047-0.791-2.34-1.532-1.286c-2.648,3.767-2.642,9.027,0.471,12.542c1.499,1.693,4.057,3.155,6.589,3.487
				c0.591,2.018,1.88,3.924,3.333,5.131c3.908,3.244,9.651,2.72,13.241-0.714C108.881,147.804,107.341,146.526,106.419,147.408z
				 M94.729,139.127c0.612,0,0.84,0.656,0.826,1.162c-0.02,0.677-0.444,1.183-1.018,1.508c-0.458,0.259-0.952,0.415-1.463,0.494
				c-0.001-0.019-0.006-0.037-0.008-0.056C93.015,141.328,93.453,139.126,94.729,139.127z"/>
			<path style="fill:#E585A3;" d="M73.354,234.163c-0.842-1.624-2.164-2.891-3.717-3.743c2.17-2.222,2.354-5.738,1.042-8.46
				c-1.493-3.098-4.731-4.917-8.078-5.266c-3.921-0.408-7.656,1.087-10.912,3.15c-1.088,0.689,0.069,2.321,1.156,1.632
				c4.406-2.792,11.555-4.761,15.337,0.2c1.432,1.878,1.905,4.753,0.516,6.788c-0.293,0.429-0.677,0.799-1.111,1.107
				c-1.901-0.543-3.967-0.528-5.863,0.146c-0.65,0.231-0.938,1.281-0.294,1.703c1.952,1.281,4.369,1.322,6.381,0.328
				c1.594,0.635,2.978,1.78,3.781,3.345c1.666,3.244,0.455,7.442-2.478,9.499c-1.053,0.739,0.099,2.374,1.156,1.632
				C74.012,243.601,75.482,238.27,73.354,234.163z"/>
			<path style="fill:#E585A3;" d="M315.899,65.366c-2.502,3.129-7.474,3.988-10.765,1.561c-1.9-1.401-2.929-3.711-3.006-6.044
				c1.131-1.476,1.769-3.364,1.559-5.434c-0.081-0.802-1.244-1.295-1.762-0.556c-1.085,1.546-1.67,3.392-1.764,5.259
				c-1.65,1.753-4.342,2.442-6.781,1.085c-3.954-2.199-3.569-7.749,0.216-9.888c1.119-0.632-0.043-2.261-1.156-1.632
				c-2.345,1.325-3.807,3.884-3.904,6.561c-0.104,2.869,1.498,5.403,3.989,6.767c2.681,1.468,5.615,1.072,7.807-0.436
				c0.422,2.278,1.59,4.406,3.517,5.85c4.125,3.091,10.39,2.185,13.583-1.808C318.235,65.646,316.705,64.358,315.899,65.366z"/>
			<path style="fill:#E585A3;" d="M426.39,272.679c-0.808-1.854-2.377-3.977-4.304-5.443c1.244-2.926,0.85-6.606-0.987-9.16
				c-2.948-4.098-9.109-4.741-13.033-1.704c-1.015,0.785,0.134,2.423,1.156,1.632c2.431-1.881,5.943-2.089,8.545-0.396
				c2.563,1.667,3.56,5.027,2.789,7.915c-0.053,0.2-0.125,0.415-0.207,0.635c-1.286-0.616-2.663-0.888-4.044-0.59
				c-1.908,0.411-3.054,2.466-1.849,4.191c1.398,2.002,3.984,1.707,5.657,0.244c0.348-0.304,0.653-0.643,0.932-1
				c1.706,1.283,3.052,3.15,3.739,5.051c1.36,3.762,0.308,7.98-2.365,10.881c-0.874,0.949,0.661,2.231,1.532,1.286
				C427.265,282.625,428.363,277.208,426.39,272.679z M417.46,269.206c-0.838,0.105-2.114-0.876-1.115-1.556
				c0.518-0.352,1.432-0.2,1.989-0.043c0.344,0.097,0.68,0.226,1.009,0.372C418.839,268.616,418.21,269.112,417.46,269.206z"/>
			<path style="fill:#394C9E;" d="M88.85,238.533c-0.777-0.368-1.599,0.007-1.998,0.715c-1.996,3.545-3.992,7.09-5.988,10.635
				c-0.398,0.706,0.02,1.669,0.715,1.998c0.777,0.368,1.599-0.007,1.998-0.715c1.996-3.545,3.992-7.09,5.988-10.635
				C89.963,239.825,89.545,238.862,88.85,238.533z"/>
			<path style="fill:#E585A3;" d="M101.877,232.514c-2.821-0.997-5.641-1.994-8.462-2.991c-0.738-0.261-1.661-0.083-1.998,0.715
				c-0.289,0.686-0.075,1.718,0.715,1.998c2.821,0.997,5.641,1.994,8.462,2.991c0.738,0.261,1.661,0.083,1.998-0.715
				C102.881,233.826,102.667,232.793,101.877,232.514z"/>
			<path style="fill:#E585A3;" d="M101.003,244.023c-0.709-0.299-1.689-0.064-1.998,0.715c-1.102,2.784-2.204,5.568-3.306,8.352
				c-0.288,0.729-0.064,1.669,0.715,1.998c0.709,0.299,1.689,0.064,1.998-0.715c1.102-2.784,2.204-5.568,3.306-8.352
				C102.007,245.292,101.783,244.351,101.003,244.023z"/>
			<path style="fill:#394C9E;" d="M81.894,194.834c-0.51-0.72-1.381-0.753-2.091-0.357c0.309-0.172-0.006,0.002-0.08,0.036
				c-0.125,0.058-0.253,0.11-0.382,0.158c-0.11,0.041-0.221,0.078-0.334,0.112c-0.02,0.006-0.108,0.03-0.179,0.049
				c-0.082,0.014-0.258,0.049-0.284,0.053c-0.116,0.017-0.232,0.03-0.348,0.04c-0.219,0.019-0.436,0.019-0.655,0.02
				c-0.034-0.002-0.073-0.004-0.114-0.008c-0.117-0.011-0.234-0.025-0.351-0.042c-0.234-0.034-0.467-0.08-0.696-0.138
				c-0.066-0.017-0.132-0.036-0.198-0.054c-0.023-0.008-0.178-0.054-0.226-0.072c-0.242-0.09-0.479-0.192-0.711-0.307
				c-0.215-0.106-0.414-0.235-0.626-0.345c-0.008-0.004-0.002,0-0.005,0c-0.017-0.014-0.028-0.023-0.07-0.054
				c-0.111-0.083-0.224-0.163-0.333-0.249c-0.185-0.147-0.364-0.303-0.534-0.468c-0.034-0.033-0.122-0.127-0.15-0.154
				c-0.049-0.057-0.099-0.113-0.146-0.171c-0.147-0.182-0.285-0.372-0.411-0.569c-0.035-0.055-0.068-0.112-0.101-0.168
				c0.004,0.004-0.086-0.151-0.11-0.204c-0.098-0.213-0.184-0.431-0.255-0.654c-0.007-0.021-0.041-0.146-0.067-0.234
				c-0.013-0.079-0.051-0.27-0.055-0.298c-0.115-0.775-0.788-1.475-1.625-1.364c-0.766,0.102-1.487,0.794-1.364,1.625
				c0.396,2.664,2.174,4.843,4.568,6.021c2.419,1.191,5.214,1.202,7.574-0.112C82.244,196.531,82.326,195.444,81.894,194.834z"/>
			<path style="fill:#E585A3;" d="M267.77,160.427c-0.875-0.12-1.51,0.396-1.747,1.204c-0.005,0.017-0.01,0.034-0.015,0.05
				c-0.039,0.074-0.067,0.194-0.094,0.264c-0.073,0.193-0.154,0.382-0.24,0.569c-0.138,0.297-0.296,0.728-0.524,0.974
				c-0.012,0.015-0.027,0.03-0.035,0.042c-0.059,0.085-0.119,0.169-0.18,0.252c-0.123,0.166-0.251,0.328-0.384,0.485
				c-0.122,0.144-0.249,0.285-0.379,0.422c-0.071,0.075-0.144,0.148-0.217,0.221c-0.035,0.035-0.304,0.263-0.122,0.118
				c0.181-0.143-0.053,0.043-0.091,0.075c-0.078,0.067-0.158,0.133-0.238,0.197c-0.161,0.129-0.326,0.253-0.495,0.371
				c-0.169,0.118-0.342,0.231-0.518,0.338c-0.073,0.045-0.148,0.088-0.222,0.131c-0.016,0.009-0.033,0.018-0.049,0.027
				c-0.345,0.169-0.693,0.328-1.056,0.458c-0.194,0.069-0.39,0.132-0.589,0.187c-0.077,0.021-0.154,0.04-0.231,0.061
				c-0.026,0.005-0.053,0.011-0.079,0.016c-0.767,0.151-1.478,0.762-1.364,1.625c0.098,0.735,0.8,1.526,1.625,1.364
				c4.047-0.796,7.286-3.746,8.449-7.706C269.196,161.419,268.515,160.529,267.77,160.427z"/>
			<path style="fill:#E585A3;" d="M255.713,160.491l-4.289-9.523c-0.321-0.714-1.148-1.213-1.93-0.883
				c-0.707,0.299-1.228,1.163-0.883,1.929l4.289,9.523c0.321,0.714,1.148,1.213,1.929,0.883
				C255.538,162.122,256.058,161.257,255.713,160.491z"/>
			<path style="fill:#E585A3;" d="M316.467,111.931c-0.486-0.685-1.408-0.798-2.091-0.357c-0.112,0.072-0.225,0.14-0.34,0.209
				c-0.025,0.015-0.035,0.022-0.051,0.032c-0.02,0.007-0.039,0.014-0.074,0.028c-0.224,0.09-0.441,0.189-0.67,0.265
				c-0.103,0.034-0.208,0.066-0.313,0.096c-0.051,0.014-0.127,0.03-0.178,0.041c-0.238,0.041-0.476,0.079-0.717,0.1
				c-0.241,0.02-0.481,0.02-0.723,0.025c-0.017,0-0.025,0.001-0.033,0.002c-0.01-0.001-0.014-0.002-0.027-0.003
				c-0.132-0.012-0.263-0.023-0.395-0.039c-0.263-0.033-0.524-0.078-0.783-0.136c-0.108-0.024-0.215-0.051-0.322-0.08
				c-0.029-0.008-0.198-0.06-0.265-0.079c-0.066-0.024-0.167-0.061-0.185-0.068c-0.124-0.048-0.247-0.098-0.368-0.152
				c-0.222-0.098-0.44-0.206-0.653-0.324c-0.026-0.014-0.172-0.1-0.235-0.135c-0.057-0.038-0.153-0.101-0.17-0.113
				c-0.215-0.152-0.422-0.315-0.62-0.488c-0.099-0.086-0.195-0.176-0.289-0.267c-0.014-0.014-0.09-0.094-0.138-0.143
				c-0.046-0.056-0.153-0.183-0.171-0.206c-0.068-0.085-0.134-0.172-0.198-0.26c-0.139-0.194-0.266-0.397-0.382-0.606
				c-0.022-0.049-0.069-0.143-0.089-0.189c-0.054-0.122-0.102-0.246-0.149-0.37c-0.68-1.804-3.496-0.766-2.812,1.047
				c1.903,5.047,8.577,7.171,13.081,4.264C316.79,113.584,316.921,112.572,316.467,111.931z"/>
			<path style="fill:#E585A3;" d="M413.858,239.509c-0.774-0.326-1.609-0.029-1.998,0.715c-0.09,0.173-0.183,0.343-0.283,0.511
				c-0.001,0.002-0.044,0.072-0.078,0.127c-0.034,0.051-0.081,0.123-0.092,0.139c-0.221,0.32-0.46,0.628-0.715,0.921
				c-0.128,0.147-0.259,0.29-0.395,0.429c-0.081,0.083-0.164,0.164-0.246,0.245c-0.301,0.262-0.606,0.516-0.931,0.749
				c-0.317,0.227-0.645,0.436-0.984,0.628c-0.066,0.037-0.323,0.163-0.016,0.012c-0.087,0.043-0.174,0.088-0.261,0.13
				c-0.175,0.084-0.353,0.164-0.532,0.239c-0.359,0.149-0.726,0.279-1.1,0.387c-0.093,0.027-0.187,0.053-0.281,0.077
				c-0.024,0.006-0.125,0.029-0.182,0.043c-0.047,0.009-0.093,0.018-0.109,0.021c-0.115,0.021-0.23,0.04-0.346,0.058
				c-0.774,0.12-1.475,0.784-1.364,1.625c0.101,0.762,0.795,1.492,1.625,1.364c3.835-0.595,7.2-2.977,9.001-6.422
				C414.938,240.81,414.584,239.815,413.858,239.509z"/>
			<path style="fill:#394C9E;" d="M396.663,252.785c-0.4-0.678-1.488-0.825-2.091-0.357c-0.686,0.532-0.785,1.366-0.357,2.091
				c0.012,0.019,0.067,0.12,0.098,0.174c0.018,0.038,0.037,0.077,0.042,0.087c0.079,0.169,0.151,0.341,0.215,0.516
				c0.064,0.175,0.121,0.353,0.171,0.532c0.003,0.01,0.01,0.038,0.019,0.069c0.011,0.054,0.039,0.179,0.044,0.205
				c0.065,0.368,0.102,0.741,0.11,1.115c0.002,0.083,0,0.166,0.002,0.25c0,0.019,0.001,0.027,0.001,0.041
				c-0.018,0.185-0.031,0.369-0.057,0.553c-0.049,0.35-0.123,0.697-0.221,1.037c-0.008,0.029-0.016,0.054-0.024,0.077
				c-0.025,0.067-0.049,0.135-0.075,0.202c-0.068,0.174-0.142,0.345-0.223,0.514c-0.081,0.169-0.172,0.33-0.261,0.495
				c-0.017,0.032-0.016,0.032-0.024,0.047c-0.047,0.068-0.093,0.136-0.141,0.203c-0.232,0.321-0.492,0.616-0.775,0.893
				c-0.563,0.551-0.414,1.653,0.185,2.113c0.697,0.536,1.512,0.403,2.113-0.185C398.237,260.699,398.63,256.121,396.663,252.785z"/>
			<path style="fill:#E585A3;" d="M408.016,274.302c-1.997-2.809-3.995-5.619-5.992-8.428c-0.455-0.64-1.451-0.854-2.091-0.357
				c-0.641,0.497-0.844,1.407-0.357,2.091c1.997,2.809,3.995,5.619,5.992,8.428c0.455,0.64,1.451,0.854,2.091,0.357
				C408.3,275.896,408.503,274.987,408.016,274.302z"/>
			<path style="fill:#425DBC;" d="M123.312,121.984c-0.182-0.135-0.357-0.276-0.522-0.431c-0.074-0.07-0.146-0.142-0.217-0.215
				c0.243,0.245-0.029-0.044-0.061-0.084c-0.127-0.158-0.245-0.323-0.355-0.493c-0.06-0.093-0.114-0.187-0.17-0.282
				c-0.01-0.02-0.02-0.04-0.032-0.065c-0.18-0.392-0.321-0.791-0.436-1.207c-0.004-0.016-0.006-0.02-0.01-0.033
				c-0.002-0.018-0.003-0.028-0.008-0.055c-0.016-0.102-0.034-0.202-0.049-0.304c-0.031-0.224-0.052-0.45-0.062-0.676
				c-0.004-0.103-0.005-0.206-0.007-0.308c-0.001-0.034,0-0.061,0-0.086c0.015-0.207,0.034-0.412,0.066-0.617
				c0.035-0.222,0.08-0.443,0.136-0.661c0.005-0.018,0.028-0.101,0.045-0.162c0.021-0.06,0.05-0.147,0.057-0.166
				c0.08-0.209,0.17-0.413,0.272-0.612c0.046-0.09,0.098-0.177,0.145-0.267c0.013-0.025,0.018-0.037,0.026-0.053
				c0.009-0.012,0.014-0.018,0.027-0.035c0.121-0.164,0.24-0.327,0.373-0.481c0.081-0.093,0.167-0.179,0.25-0.269
				c0.01-0.01,0.012-0.014,0.019-0.022c0.015-0.012,0.033-0.027,0.062-0.052c0.615-0.526,0.856-1.388,0.357-2.091
				c-0.436-0.615-1.472-0.886-2.091-0.357c-1.881,1.608-2.796,3.919-2.731,6.378c0.061,2.292,1.123,4.626,2.984,6.005
				c0.651,0.482,1.57,0.462,2.113-0.185C123.994,123.505,123.966,122.468,123.312,121.984z"/>
			<g>
				<path style="fill:#425DBC;" d="M109.544,163.228c0.01,0.018,0.019,0.036,0.029,0.054c-0.001-0.002-0.002-0.005-0.003-0.007
					C109.561,163.259,109.554,163.236,109.544,163.228z"/>
				<path style="fill:#425DBC;" d="M112.035,161.582c-0.399-0.678-1.488-0.825-2.091-0.357c-0.673,0.522-0.774,1.334-0.374,2.05
					c0.014,0.024,0.028,0.043,0.038,0.074c-0.012-0.022-0.024-0.044-0.036-0.066c0.006,0.011,0.007,0.023,0.014,0.034
					c0.009,0.016,0.018,0.032,0.027,0.047c0.012,0.036,0.024,0.073,0.032,0.095c0.046,0.115,0.077,0.233,0.114,0.349
					c0.01,0.063,0.019,0.127,0.026,0.191c0.014,0.131,0.016,0.262,0.019,0.394c-0.004,0.044-0.008,0.089-0.014,0.133
					c-0.018,0.143-0.044,0.285-0.077,0.426c-0.013,0.054-0.028,0.108-0.042,0.162c-0.051,0.132-0.101,0.263-0.162,0.392
					c-0.057,0.121-0.123,0.236-0.188,0.353c-0.039,0.053-0.076,0.107-0.116,0.159c-0.088,0.114-0.182,0.224-0.281,0.329
					c-0.002,0.002-0.005,0.005-0.007,0.007c-0.01,0.011-0.021,0.021-0.033,0.033c-0.038,0.037-0.077,0.073-0.112,0.112
					c0.028-0.032,0.036-0.039,0.057-0.062c-0.107,0.088-0.218,0.171-0.334,0.246c-0.039,0.026-0.08,0.049-0.12,0.074
					c-0.122,0.053-0.242,0.106-0.369,0.147c-0.022,0.007-0.081,0.023-0.13,0.036c-0.017,0.003-0.032,0.006-0.041,0.007
					c-0.774,0.119-1.475,0.785-1.364,1.625c0.101,0.763,0.794,1.491,1.625,1.364c1.83-0.281,3.335-1.482,4.125-3.148
					C113.02,165.108,112.98,163.187,112.035,161.582z"/>
				<path style="fill:#425DBC;" d="M108.885,166.387c0.011-0.011,0.022-0.022,0.033-0.033c0.047-0.052,0.042-0.058-0.088,0.084
					c0.003-0.003,0.007-0.005,0.01-0.008C108.856,166.417,108.87,166.402,108.885,166.387z"/>
			</g>
			<path style="fill:#425DBC;" d="M415.004,295.677c-0.693-0.328-1.702-0.043-1.998,0.715c-0.781,2.006-2.057,3.453-3.902,4.576
				c-0.454,0.276-0.652,0.376-1.214,0.607c-0.499,0.206-1.014,0.375-1.538,0.503c-0.046,0.009-0.15,0.032-0.193,0.04
				c-0.13,0.024-0.26,0.046-0.39,0.066c-0.261,0.038-0.523,0.067-0.786,0.085c-0.29,0.02-0.58,0.026-0.87,0.021
				c-0.037-0.001-0.058,0-0.068,0c-0.026-0.003-0.046-0.005-0.084-0.008c-0.158-0.015-0.316-0.03-0.474-0.049
				c-0.804-0.097-1.595,0.373-1.747,1.204c-0.139,0.76,0.396,1.649,1.204,1.747c5.31,0.641,10.814-2.476,12.775-7.509
				C416.013,296.92,415.771,296.04,415.004,295.677z"/>
			<path style="fill:#425DBC;" d="M398.41,321.305c-0.193,0.13-0.39,0.256-0.595,0.367c-0.042,0.02-0.122,0.059-0.161,0.076
				c-0.113,0.05-0.226,0.101-0.34,0.147c-0.229,0.092-0.463,0.173-0.7,0.242c-0.095,0.028-0.19,0.053-0.286,0.078
				c-0.041,0.011-0.063,0.018-0.086,0.024c-0.025,0.003-0.053,0.006-0.101,0.012c-0.469,0.065-0.931,0.125-1.406,0.131
				c-0.103,0.001-0.206,0-0.309-0.003c-0.039-0.003-0.132-0.009-0.184-0.014c-0.248-0.025-0.495-0.055-0.741-0.098
				c-0.221-0.038-0.44-0.085-0.658-0.14c-0.121-0.03-0.241-0.064-0.36-0.099c-0.01-0.003-0.007-0.002-0.015-0.004
				c-0.037-0.013-0.074-0.026-0.111-0.039c-0.464-0.181-0.916-0.376-1.349-0.624c-0.019-0.011-0.159-0.097-0.216-0.131
				c-0.054-0.039-0.212-0.149-0.207-0.145c-0.199-0.146-0.392-0.301-0.577-0.465c-0.074-0.066-0.147-0.133-0.218-0.201
				c0.004,0.004-0.133-0.135-0.18-0.181c-0.043-0.051-0.151-0.175-0.165-0.192c-0.094-0.116-0.184-0.236-0.272-0.356
				c-1.138-1.556-3.593,0.17-2.449,1.734c3.018,4.125,9.189,5.189,13.419,2.329C401.744,322.672,400.012,320.222,398.41,321.305z"/>
			<g>
				<path style="fill:#425DBC;" d="M329.93,62.024c-0.729-0.1-1.69,0.367-1.747,1.205c-0.029,0.427-0.089,0.851-0.187,1.268
					c-0.024,0.104-0.051,0.207-0.08,0.31c-0.004,0.015-0.008,0.035-0.012,0.055c-0.025,0.172-0.138,0.376-0.203,0.531
					c-0.16,0.38-0.355,0.736-0.557,1.094c-0.006,0.011-0.008,0.015-0.013,0.024c-0.004,0.006-0.005,0.007-0.01,0.014
					c-0.061,0.088-0.121,0.176-0.185,0.263c-0.126,0.173-0.259,0.342-0.398,0.505c-0.138,0.163-0.283,0.322-0.433,0.475
					c-0.055,0.056-0.112,0.11-0.168,0.166c-0.019,0.017-0.038,0.034-0.057,0.051c-0.31,0.268-0.639,0.515-0.984,0.736
					c-0.09,0.057-0.181,0.113-0.273,0.167c-0.028,0.017-0.062,0.031-0.093,0.043c0.022-0.007,0.029-0.009,0.063-0.019
					c-0.196,0.055-0.39,0.191-0.58,0.271c-0.197,0.083-0.397,0.157-0.6,0.223c-0.085,0.027-0.17,0.053-0.256,0.078
					c-0.09,0.026-0.498,0.123-0.075,0.029c-0.763,0.17-1.48,0.748-1.364,1.625c0.095,0.718,0.805,1.547,1.625,1.364
					c2.123-0.474,3.99-1.545,5.424-3.197c1.325-1.526,2.229-3.506,2.367-5.532C331.187,62.991,330.794,62.143,329.93,62.024z"/>
				<path style="fill:#425DBC;" d="M324.529,68.929C324.401,68.967,324.444,68.962,324.529,68.929L324.529,68.929z"/>
			</g>
			<path style="fill:#425DBC;" d="M342.442,70.181c-0.373-0.25-0.723-0.527-1.045-0.84c-0.014-0.014-0.095-0.097-0.144-0.147
				c-0.045-0.053-0.143-0.165-0.14-0.161c-0.142-0.172-0.277-0.35-0.403-0.534c-0.114-0.166-0.222-0.336-0.323-0.509
				c-0.027-0.047-0.059-0.106-0.076-0.137c-0.039-0.078-0.077-0.156-0.113-0.235c-0.187-0.408-0.341-0.831-0.461-1.263
				c-0.024-0.086-0.045-0.172-0.066-0.258c-0.003-0.017-0.004-0.024-0.012-0.07c-0.037-0.222-0.073-0.442-0.096-0.666
				c-0.023-0.223-0.037-0.446-0.042-0.67c-0.002-0.112,0.003-0.224,0-0.335c0-0.009-0.001-0.009-0.001-0.016
				c0.002-0.017,0.003-0.027,0.005-0.051c0.043-0.445,0.109-0.884,0.222-1.318c0.013-0.051,0.028-0.101,0.043-0.152
				c0.003-0.004,0.047-0.142,0.061-0.18c0.087-0.231,0.187-0.456,0.296-0.678c0.357-0.727,0.01-1.655-0.715-1.998
				c-0.744-0.352-1.64-0.014-1.998,0.715c-1.95,3.976-0.632,9.314,3.078,11.8c0.672,0.451,1.553,0.483,2.113-0.185
				C343.104,71.725,343.118,70.635,342.442,70.181z"/>
			<path style="fill:#425DBC;" d="M250.841,122.843c-0.145-0.797-0.764-1.439-1.625-1.364c-0.751,0.066-1.509,0.823-1.364,1.625
				c0.724,3.991-0.4,8.105-3.151,11.142c-1.299,1.434,1.003,3.358,2.298,1.928C250.216,132.624,251.697,127.564,250.841,122.843z"/>
			<path style="fill:#425DBC;" d="M239.029,157.465c-0.182-0.146-0.361-0.296-0.532-0.456c-0.095-0.088-0.187-0.179-0.278-0.271
				c-0.015-0.015-0.04-0.043-0.062-0.067c-0.322-0.367-0.613-0.76-0.871-1.174c-0.068-0.11-0.134-0.221-0.199-0.333
				c-0.012-0.021-0.031-0.056-0.046-0.084c-0.102-0.203-0.197-0.41-0.284-0.619c-0.19-0.456-0.341-0.925-0.463-1.403
				c0.041,0.161,0.001,0.015-0.014-0.063c-0.024-0.128-0.048-0.255-0.068-0.383c-0.036-0.231-0.065-0.463-0.085-0.695
				c-0.02-0.232-0.031-0.466-0.034-0.699c-0.002-0.119-0.001-0.238,0.002-0.356c0.001-0.029,0.003-0.065,0.006-0.095
				c0.045-0.49,0.115-0.974,0.232-1.453c0.025-0.1,0.052-0.2,0.079-0.3c0.037-0.136-0.036,0.078,0.045-0.147
				c0.088-0.244,0.187-0.484,0.294-0.72c0.796-1.761-1.916-3.044-2.713-1.283c-1.979,4.377-0.703,9.889,3.06,12.9
				C238.608,160.969,240.54,158.674,239.029,157.465z"/>
		</g>
	</g>
	<g>
		<g>
			<path style="fill:#E585A3;" d="M244.361,365.092c-6.364,0.002-10.631-6.298-8.088-11.927c1.965-4.349,5.91-8.221,13.727-8.221
				h71.173c0,0,10.104-1.826,18.344-7.417h18.43c0,0,5.768,2.978,6.238,10.698c0.562,9.219-7.381,16.865-16.952,16.842
				L244.361,365.092z"/>
			<path style="fill:#D36A90;" d="M357.947,337.527c0,0,10.937-12.967,11.632-35.764c0.695-22.797,7.892-64.603,23.198-75.885
				H320.59c0,0-18.542,18.473-14.382,44.095s-15.848,67.554-15.848,67.554H357.947z"/>
			<rect x="254.488" y="365.095" style="fill:#394C9E;" width="83.122" height="5.599"/>
			<path d="M368.149,276.069c-4.52,12.339-3.191,25.615-5.223,38.37c-0.58,3.643-1.45,7.246-2.799,10.699
				c-0.226,0.578,0.677,0.994,0.904,0.412c4.784-12.253,3.517-25.555,5.398-38.308c0.539-3.654,1.347-7.277,2.623-10.761
				C369.266,275.901,368.363,275.484,368.149,276.069z"/>
			<path d="M357.283,330.185c-0.243-0.111-0.552-0.007-0.666,0.23c-0.556,1.162-1.112,2.324-1.668,3.487
				c-0.113,0.237-0.007,0.53,0.238,0.642c0.243,0.111,0.552,0.007,0.666-0.23c0.556-1.162,1.112-2.324,1.668-3.487
				C357.635,330.59,357.529,330.297,357.283,330.185z"/>
			<path d="M244.553,349.39c0.446-0.45-0.323-1.067-0.766-0.62c-1.813,1.829-3.37,3.997-3.956,6.5c-0.547,2.34-0.15,4.919,1.4,6.835
				c0.394,0.488,1.214-0.066,0.816-0.558c-1.437-1.778-1.74-4.131-1.187-6.285C241.442,352.997,242.905,351.052,244.553,349.39z"/>
			<path d="M246,351.874c-1.356,3.02-2.773,6.677-0.638,9.706c0.362,0.513,1.179-0.043,0.816-0.558
				c-1.907-2.705-0.472-6.066,0.726-8.736C247.16,351.717,246.256,351.304,246,351.874z"/>
			<rect x="264.431" y="370.694" width="59.335" height="8.203"/>
			<rect x="288.405" y="378.897" width="11.465" height="73.219"/>
			<g>
				<path d="M346.512,458.874h-10c0-3.699-3.119-6.708-6.953-6.708h-70.921c-3.834,0-6.953,3.009-6.953,6.708h-10
					c0-9.018,7.605-16.356,16.954-16.356h70.921C338.906,442.518,346.512,449.856,346.512,458.874z"/>
			</g>
			<g>
				
					<ellipse transform="matrix(0.9138 -0.4061 0.4061 0.9138 -167.0203 140.535)" style="fill:#394C9E;" cx="247.66" cy="463.85" rx="8.018" ry="11.798"/>
				
					<ellipse transform="matrix(0.9138 -0.4061 0.4061 0.9138 -167.0203 140.535)" style="fill:#EF599D;" cx="247.66" cy="463.85" rx="4.995" ry="7.351"/>
			</g>
			<g>
				
					<ellipse transform="matrix(0.9138 -0.4061 0.4061 0.9138 -156.8418 178.2263)" style="fill:#394C9E;" cx="341.569" cy="458.71" rx="8.018" ry="11.798"/>
				
					<ellipse transform="matrix(0.9138 -0.4061 0.4061 0.9138 -156.8418 178.2263)" style="fill:#EF599D;" cx="341.569" cy="458.71" rx="4.995" ry="7.351"/>
			</g>
		</g>
		<g>
			<g>
				<g>
					<path style="fill:#394C9E;" d="M380.99,127.026l-6.254,13.195c0,0-12.69-8.206-24.442-6.281
						c-1.537-11.809-13.038-21.594-13.038-21.594l10.19-9.217l-16.703-20.504l40.028,20.006l8.043,8.536l22.604,24.022
						l-20.333-8.392L380.99,127.026z"/>
					<polygon style="fill:#020616;" points="381.085,126.796 380.99,127.026 357.416,124.365 350.421,106.785 359.441,117.865 					
						"/>
					<polygon style="fill:#020616;" points="378.795,111.152 330.743,82.626 370.771,102.631 					"/>
				</g>
				<path style="fill:#FFBF40;" d="M414.757,158.393c-3.936,2.534-9.067,2.585-13.285,0.721c-4.543-2.007-7.989-5.972-10.09-10.401
					c-2.323-4.897-2.985-10.151-3.574-15.473c-0.275-2.49-0.662-4.979-1.542-7.335c-0.767-2.054-1.857-4-3.189-5.74
					c-2.832-3.699-6.735-6.463-11.16-7.888c-0.125-0.241-0.267-0.472-0.425-0.692c-0.014-0.087-0.044-0.171-0.104-0.24
					c-0.336-0.392-0.723-0.724-1.134-1.024c-0.227-0.172-0.49-0.344-0.767-0.486c-0.041-0.021-0.074-0.052-0.115-0.073
					c-0.378-0.187-0.807-0.378-1.233-0.399c-0.466-0.022-0.906,0.209-1.092,0.649c-0.295,0.699,0.185,1.442,0.628,1.949
					c0.49,0.562,1.054,1.043,1.716,1.391c0.699,0.367,1.528,0.537,2.308,0.376c0.125-0.026,0.23-0.088,0.32-0.164
					c3.987,1.37,7.523,3.963,10.083,7.309c1.388,1.814,2.488,3.834,3.229,5.996c0.871,2.541,1.149,5.221,1.425,7.879
					c0.549,5.299,1.489,10.602,3.987,15.37c2.241,4.278,5.677,8.041,10.131,10.049c4.644,2.093,10.259,1.992,14.592-0.798
					C416.118,158.948,415.407,157.974,414.757,158.393z"/>
				<path style="fill:#FFBF40;" d="M416.335,157.405c0.104-0.243,0.218-0.482,0.343-0.714c0.055-0.102,0.112-0.201,0.17-0.301
					c0.016-0.026,0.032-0.052,0.049-0.078c0.035-0.056,0.071-0.111,0.108-0.166c0.283-0.427,0.604-0.827,0.957-1.198
					c0.218-0.229,0.152-0.667-0.095-0.847c-0.283-0.206-0.614-0.15-0.847,0.095c-0.752,0.79-1.359,1.723-1.788,2.726
					c-0.124,0.29,0.004,0.676,0.31,0.794C415.843,157.832,416.203,157.715,416.335,157.405z"/>
				<path style="fill:#FFBF40;" d="M419.025,153.904c0.829-0.904,1.885-1.698,2.983-2.235c0.282-0.138,0.489-0.458,0.352-0.776
					c-0.118-0.276-0.474-0.5-0.776-0.352c-1.326,0.649-2.503,1.523-3.502,2.612c-0.22,0.24-0.146,0.654,0.095,0.847
					C418.447,154.214,418.804,154.145,419.025,153.904z"/>
				<path style="fill:#FFBF40;" d="M426.477,149.076c-0.133-0.31-0.456-0.459-0.776-0.352c-0.866,0.288-1.732,0.576-2.598,0.863
					c-0.299,0.099-0.477,0.485-0.352,0.776c0.133,0.31,0.456,0.459,0.776,0.352c0.866-0.288,1.732-0.576,2.598-0.863
					C426.424,149.753,426.602,149.367,426.477,149.076z"/>
				<path style="fill:#FFBF40;" d="M420.429,156.104c0.239-0.204,0.347-0.573,0.133-0.842c-0.191-0.239-0.585-0.353-0.842-0.133
					c-0.889,0.76-1.777,1.519-2.666,2.279c-0.239,0.204-0.347,0.573-0.133,0.842c0.191,0.239,0.585,0.353,0.842,0.133
					C418.651,157.623,419.54,156.863,420.429,156.104z"/>
				<path style="fill:#FFBF40;" d="M424.652,153.207c-0.132-0.307-0.457-0.462-0.776-0.352c-0.885,0.304-1.742,0.68-2.566,1.123
					c-0.149,0.08-0.269,0.16-0.34,0.322c-0.058,0.133-0.07,0.319-0.012,0.454c0.114,0.267,0.479,0.512,0.776,0.352
					c0.823-0.443,1.681-0.819,2.566-1.123C424.598,153.88,424.778,153.5,424.652,153.207z"/>
				<path style="fill:#FFBF40;" d="M429.062,152.591c0.09-0.113,0.149-0.29,0.129-0.436c-0.047-0.325-0.324-0.571-0.66-0.54
					c-0.531,0.049-1.061,0.098-1.592,0.147c-0.155,0.014-0.314,0.103-0.411,0.224c-0.09,0.113-0.149,0.29-0.129,0.436
					c0.047,0.325,0.324,0.571,0.66,0.54c0.531-0.049,1.061-0.098,1.592-0.147C428.806,152.801,428.965,152.712,429.062,152.591z"/>
				<path style="fill:#FFBF40;" d="M429.279,154.819c-0.132-0.308-0.457-0.461-0.776-0.352c-1.009,0.345-2.018,0.69-3.027,1.035
					c-0.298,0.102-0.478,0.483-0.352,0.776c0.132,0.308,0.457,0.461,0.776,0.352c1.009-0.345,2.018-0.69,3.027-1.035
					C429.225,155.494,429.404,155.112,429.279,154.819z"/>
				<path style="fill:#FFBF40;" d="M423.182,157.504c0.058-0.133,0.07-0.319,0.012-0.454c-0.115-0.268-0.479-0.51-0.776-0.352
					c-0.822,0.437-1.645,0.874-2.467,1.311c-0.149,0.079-0.269,0.16-0.34,0.322c-0.058,0.133-0.07,0.319-0.012,0.454
					c0.115,0.268,0.479,0.51,0.776,0.352c0.823-0.437,1.645-0.874,2.467-1.311C422.992,157.747,423.111,157.665,423.182,157.504z"/>
				<path style="fill:#FFBF40;" d="M418.6,159.853c0.058-0.133,0.07-0.319,0.012-0.454c-0.062-0.145-0.17-0.281-0.322-0.34
					c-0.141-0.055-0.312-0.077-0.454-0.012c-0.187,0.085-0.383,0.147-0.582,0.199c-0.269,0.056-0.542,0.09-0.817,0.083
					c0.021,0.001,0.042,0.001,0.064,0.002c-0.161-0.007-0.303,0.008-0.439,0.107c-0.12,0.087-0.224,0.244-0.241,0.393
					c-0.018,0.155,0.008,0.323,0.108,0.449c0.093,0.117,0.237,0.234,0.393,0.241c0.666,0.031,1.329-0.068,1.939-0.346
					C418.408,160.108,418.533,160.006,418.6,159.853z"/>
			</g>
			<g>
				<path style="fill:#F9B4C6;" d="M276.12,85.82c0.69-1.7,1.75-3.25,3.08-4.51c0.21-0.2,0.53-0.41,0.77-0.25
					c0.16,0.11,0.2,0.32,0.21,0.51c0.06,0.82-0.09,1.64-0.25,2.44c-1.66,8.85-2.56,17.89-2.05,26.89l-11.46,7.26
					c0.08-3.36,0.16-6.74,0.24-10.11h-0.13c-4.44-8.37-6.31-18.08-5.31-27.51c0.09-0.88,0.21-1.76,0.43-2.62
					c0.05-0.2,0.11-0.41,0.26-0.55c0.31-0.3,0.86-0.16,1.14,0.17c0.27,0.34,0.35,0.79,0.42,1.21c0.53,3.25,1.33,6.45,2.41,9.56
					l0.19-0.06c-0.2-5.44,0.1-11.1,2.58-15.96c0.28-0.55,0.85-1.19,1.41-0.9c0.3,0.15,0.42,0.5,0.5,0.82
					c0.2,0.85,0.27,1.72,0.28,2.6c0.51-1.41,1.25-2.75,2.18-3.93c0.09-0.13,0.21-0.26,0.36-0.27c0.25-0.03,0.41,0.24,0.5,0.47
					c0.46,1.23,0.47,2.56,0.38,3.88c0.53-1.09,1.14-2.13,1.82-3.13c0.12-0.18,0.26-0.37,0.47-0.43c0.35-0.09,0.66,0.22,0.83,0.53
					c0.53,0.96,0.42,2.13,0.29,3.22C277.23,78.72,276.69,82.27,276.12,85.82z"/>
				<path d="M270.336,74.253c-0.576,4.538-1.153,9.076-1.729,13.614c-0.081,0.637,0.903,0.82,0.984,0.181
					c0.576-4.538,1.153-9.076,1.729-13.614C271.4,73.797,270.417,73.614,270.336,74.253z"/>
				<path d="M273.473,74.262c-0.387,4.446-0.775,8.893-1.162,13.339c-0.055,0.637,0.928,0.822,0.984,0.181
					c0.387-4.446,0.775-8.893,1.162-13.339C274.512,73.806,273.529,73.621,273.473,74.262z"/>
				<path d="M276.454,84.568c-0.251-0.046-0.552,0.132-0.582,0.401c-0.159,1.434-0.319,2.868-0.479,4.302
					c-0.03,0.268,0.123,0.531,0.402,0.582c0.251,0.046,0.552-0.132,0.582-0.401c0.159-1.434,0.319-2.868,0.478-4.302
					C276.885,84.882,276.733,84.619,276.454,84.568z"/>
				<path d="M267.066,90.573c-0.323-0.834-0.646-1.669-0.969-2.503c-0.094-0.244-0.392-0.4-0.643-0.294
					c-0.247,0.104-0.395,0.382-0.294,0.643c0.323,0.834,0.646,1.669,0.969,2.503c0.094,0.244,0.392,0.4,0.643,0.294
					C267.019,91.112,267.167,90.834,267.066,90.573z"/>
			</g>
			<g>
				<path style="fill:#F9B4C6;" d="M447.763,119.739c0.48,0.61,1.24,0.79,2.02,0.7c-2.56,3-11.36,9.47-11.36,9.47l-5.48,9.08
					c-3.89-4.72-8.54-9-11.14-11.26v-0.01l6.98-6.38c0,0,1.76-19.28,5.19-25.02c3.43-5.75,4.45,6.67,4.45,6.67l0.1,0.08
					c-0.62,0.75-1.12,1.58-1.49,2.47c-0.3,0.72-0.5,1.61-0.03,2.23c0.5,0.66,1.49,0.66,2.3,0.5c1.39-0.28,2.73-0.84,3.89-1.65
					c-1.04,1.49-1.69,3.24-1.87,5.05c-0.05,0.47,0,1.05,0.44,1.25c0.29,0.12,0.62,0,0.91-0.12c1.2-0.51,2.35-1.15,3.42-1.88
					c-0.93,1.25-1.56,2.73-1.81,4.28c-0.07,0.45-0.11,0.94,0.06,1.37c0.36,0.91,1.56,1.24,2.5,0.95c0.29-0.09,0.56-0.22,0.82-0.38
					C447.283,118.049,447.173,118.999,447.763,119.739z"/>
				<g>
					<path style="fill:#D5F5F7;" d="M426.077,93.01l39.464,29.385c2.093,1.559,2.527,4.519,0.968,6.612l-0.752,1.01
						c-1.559,2.093-4.519,2.527-6.612,0.968L419.681,101.6c-2.093-1.559-2.526-4.519-0.968-6.612l0.752-1.01
						C421.024,91.885,423.984,91.452,426.077,93.01z"/>
					<path d="M417.947,98.759c0.833,0.929,2.042,0.131,2.805-0.458c0.937-0.723,1.931-1.816,2.292-2.969
						c0.153-0.489-0.009-1.103-0.544-1.28c-0.654-0.217-1.249,0.521-1.691,0.886c-0.532,0.44,0.146,1.268,0.677,0.829
						c0.089-0.073,0.177-0.147,0.266-0.22c-0.101,0.175-0.206,0.349-0.323,0.514c-0.457,0.647-1.027,1.203-1.682,1.649
						c-0.208,0.142-0.65,0.498-0.92,0.389c-0.336-0.135-0.308-0.738-0.264-1.02c0.133-0.852,0.676-1.609,1.218-2.255
						c0.526-0.626,1.145-1.172,1.818-1.635c0.509-0.35,1.426-1.031,2.071-0.67c0.598,0.336,0.699,1.174,0.639,1.782
						c-0.07,0.703-0.336,1.373-0.641,2.005c-0.769,1.594-2.173,3.41-3.904,4.007c-0.652,0.225-0.202,1.196,0.444,0.973
						c1.113-0.384,2.036-1.251,2.808-2.112c0.838-0.935,1.514-2.037,1.966-3.209c0.336-0.872,0.557-1.884,0.317-2.808
						c-0.255-0.98-1.018-1.844-2.098-1.797c-1.105,0.048-2.195,0.873-3.01,1.556c-0.902,0.757-1.717,1.68-2.253,2.733
						C417.464,96.579,417.173,97.896,417.947,98.759z"/>
				</g>
				<path style="fill:#F9B4C6;" d="M449.783,120.439c-0.78,0.09-1.54-0.09-2.02-0.7c-0.59-0.74-0.48-1.69-0.1-2.6
					c-0.26,0.16-0.53,0.29-0.82,0.38c-0.94,0.29-2.14-0.04-2.5-0.95c-0.17-0.43-0.13-0.92-0.06-1.37c0.25-1.55,0.88-3.03,1.81-4.28
					c-1.07,0.73-2.22,1.37-3.42,1.88c-0.29,0.12-0.62,0.24-0.91,0.12c-0.44-0.2-0.49-0.78-0.44-1.25c0.18-1.81,0.83-3.56,1.87-5.05
					c-1.16,0.81-2.5,1.37-3.89,1.65c-0.81,0.16-1.8,0.16-2.3-0.5c-0.47-0.62-0.27-1.51,0.03-2.23c0.37-0.89,0.87-1.72,1.49-2.47
					c1.6-2,3.93-3.42,6.47-3.85c0.32-0.05,0.66-0.09,0.96,0.04c0.48,0.22,0.67,0.79,0.75,1.31c0.13,0.84,0.08,1.7-0.14,2.52
					c1-0.48,2.01-0.92,3.04-1.33c0.26-0.1,0.54-0.2,0.81-0.14c0.58,0.13,0.77,0.84,0.78,1.43c0.04,1.46-0.34,2.92-1.09,4.17
					c0.86-0.22,1.58-0.8,2.42-1.1c0.83-0.3,1.97-0.17,2.32,0.65c0.21,0.48,0.07,1.03-0.09,1.53c-0.47,1.41-1.13,2.75-1.95,3.97
					c0.67-0.35,1.54-0.7,2.15-0.24c0.66,0.49,0.49,1.5,0.22,2.28c-0.73,2.07-1.78,4.15-3.58,5.41
					C451.073,120.079,450.423,120.349,449.783,120.439z"/>
				<path d="M446.401,103.129c-0.216-0.181-0.52-0.137-0.704,0.062c-1.041,1.12-2.083,2.24-3.124,3.361
					c-0.184,0.198-0.138,0.537,0.062,0.704c0.216,0.181,0.52,0.137,0.704-0.062c1.041-1.12,2.083-2.24,3.124-3.361
					C446.646,103.636,446.6,103.297,446.401,103.129z"/>
				<path d="M450.352,107.263c-0.222-0.187-0.512-0.129-0.704,0.062c-1.269,1.264-2.538,2.527-3.808,3.791
					c-0.192,0.191-0.132,0.542,0.062,0.704c0.222,0.187,0.512,0.13,0.704-0.062c1.269-1.264,2.538-2.527,3.808-3.791
					C450.605,107.777,450.546,107.426,450.352,107.263z"/>
				<path d="M452.449,112.511c-0.224-0.188-0.511-0.128-0.704,0.062c-1.358,1.329-2.715,2.658-4.073,3.987
					c-0.193,0.189-0.131,0.543,0.062,0.704c0.224,0.188,0.511,0.128,0.704-0.062c1.358-1.329,2.715-2.658,4.073-3.987
					C452.704,113.026,452.642,112.673,452.449,112.511z"/>
			</g>
			<g>
				<path d="M413.45,219.23c-1.57,2.55-3.73,4.74-5.69,6.98c-2.24,2.56-4.48,5.12-6.72,7.68c-2.21,2.54-4.42,5.08-6.64,7.61
					c-1.77,2.01-3.7,4.07-6.31,4.93c-2.85,0.95-5.88,0.37-8.71-0.32c-1.49-0.36-2.96-0.77-4.47-1.04c-1.65-0.3-3.32-0.41-5-0.43
					c-5.84-0.04-11.78,0.95-17.41-1.06c-2.2-0.79-4.27-2.01-5.84-3.76c-1.67-1.89-2.49-4.29-2.69-6.78
					c-0.39-5.17,1.71-10.92-0.9-15.76c-1.99-3.68-5.99-5.72-9.45-7.77c-3.48-2.06-7.14-4.38-8.77-8.25
					c-1.83-4.33-0.48-9.09,0.86-13.36c1.34-4.31,3.2-9.14,1.86-13.68c-1.65-5.54-7.39-8.29-10.98-12.39
					c-1.68-1.92-2.94-4.22-3.08-6.81c-0.05-0.8,0.02-1.6,0.19-2.36c-1.59,0.22-3.21,0.33-4.78,0.05c-0.27-0.05-0.53-0.11-0.79-0.18
					c-2.42-0.64-4.58-2.21-5.96-4.3l-0.67-1.17l-0.05-0.11c-0.1-0.2-0.18-0.4-0.26-0.6c-0.37-0.95-0.56-2.11,0.05-2.92
					c0.82-1.08,2.43-0.89,3.78-0.86c2.73,0.05,5.38-1.03,7.73-2.45c2.34-1.42,4.46-3.18,6.74-4.7c2.67-1.77,5.57-3.2,8.61-4.25
					c3.5-1.2,7.36-1.88,10.91-0.8c3.34,1.02,6.27,3.94,6.54,7.38c0.73-0.38,1.51-0.68,2.33-0.87c4.28-1.02,8.92,0.58,11.18,4.46
					c0.35,0.6,0.63,1.22,0.88,1.85c1.25,2.45,1.93,5.26,2.72,7.93c0.73,2.47,1.74,5.02,3.32,7c3.02,2.51,7.28,3.43,11.08,4.05
					c4.89,0.79,10.3,1.4,14.21,4.74c8.18,6.98,2.21,19.08,7.01,27.53c2.76,4.87,8.28,7.03,12.21,10.74c1.89,1.79,3.6,3.99,4.27,6.55
					C415.45,214.35,414.86,216.95,413.45,219.23z"/>
				<path style="fill:#F9B4C6;" d="M348.21,172.2l4.79,14.62c0,0-29.7,26.07-37.67,43.09l8.77-24.55v-5.7c0,0,11.64-4.08,18.37-17.9
					c-2.77,4.33-8.74,9.68-18.37,8.12h-0.01c-1.43-0.23-2.93-0.61-4.52-1.17c-10.23-3.6-11.66-20.84-11.64-30.4
					c0.01-2.7,0.13-4.79,0.2-5.78c0.26,0.07,0.52,0.13,0.79,0.18c1.69,0.3,3.43,0.16,5.13-0.1c2.51-0.39,4.98-1.05,7.35-1.96
					c3.05-1.17,5.94-2.77,8.55-4.73c0.89-0.67,1.76-1.39,2.78-1.85c1.02-0.46,2.23-0.62,3.24-0.15c0.97,0.45,1.6,1.4,2.12,2.33
					c1.38,2.45,2.38,5.09,3.69,7.57c1.3,2.45,2.98,4.8,5.33,6.27c0.66-0.93,2.2-2.64,4.33-2.24c0.71,0.13,1.49,0.5,2.32,1.2
					C357.99,162.63,348.21,172.2,348.21,172.2z"/>
				<path style="fill:#E585A3;" d="M351.56,159.98c0.16,0.22,0.12,0.59-0.12,0.73c-0.83,0.47-1.54,1.09-2.13,1.84
					c-0.54,0.7-1.12,1.66-1.18,2.57c-0.03,0.35,0.09,0.82,0.47,0.95c0.39,0.13,0.82-0.23,1.08-0.48c0.32-0.29,0.68-0.68,0.85-1.08
					c0.05-0.12,0.11-0.26,0.03-0.38c-0.03-0.05-0.06-0.07-0.1-0.09c-0.01,0.01-0.01,0.01-0.01,0.01c-0.53,0.42-1.14-0.44-0.61-0.86
					c0.47-0.37,1.11-0.2,1.49,0.22c0.42,0.48,0.38,1.15,0.08,1.68c-0.49,0.88-1.41,1.91-2.47,2.04c-1.25,0.15-1.94-1.09-1.85-2.18
					c0.1-1.09,0.74-2.19,1.39-3.04c0.63-0.83,1.44-1.54,2.35-2.05C351.08,159.71,351.39,159.73,351.56,159.98z"/>
				<path style="fill:#E585A3;" d="M338.02,163.94c2.4,0,4.34,1.95,4.34,4.35c0,2.4-1.94,4.35-4.34,4.35c-2.4,0-4.35-1.95-4.35-4.35
					C333.67,165.89,335.62,163.94,338.02,163.94z"/>
				<path d="M332.92,153.82c0.58,0.03,0.91,0.72,0.84,1.23c-0.08,0.61-0.68,0.87-1.22,0.84c-1.85-0.1-3.71-0.2-5.56-0.3
					c-0.58-0.03-0.91-0.72-0.84-1.22c0.08-0.61,0.68-0.87,1.22-0.84C329.21,153.63,331.07,153.72,332.92,153.82z"/>
				<path d="M329.98,157.79c1.19,0,2.16,1.13,2.16,2.53c0,1.4-0.97,2.53-2.16,2.53s-2.15-1.13-2.15-2.53
					C327.83,158.92,328.79,157.79,329.98,157.79z"/>
				<path d="M342.47,181.76c-6.73,13.82-18.37,17.9-18.37,17.9v-9.78C333.73,191.44,339.7,186.09,342.47,181.76z"/>
				<path style="fill:#FFFFFF;" d="M331.33,174.17c0,0,1.68,4.75-4.02,7.01c-5.69,2.27-6.72-2.77-6.72-2.77L331.33,174.17z"/>
				<path style="fill:#E585A3;" d="M320.59,161.75l2.56,8.11c-4.93,4.02-11.03,2.26-7.53,0
					C319.13,167.6,320.59,161.75,320.59,161.75z"/>
				<path d="M315.93,155.85c0.04,0.26-0.07,0.57-0.24,0.77c-0.19,0.23-0.42,0.3-0.71,0.37c-1.51,0.34-3.02,0.68-4.53,1.01
					c-0.58,0.13-1.07-0.45-1.14-0.95c-0.03-0.26,0.08-0.57,0.24-0.77c0.2-0.23,0.43-0.31,0.72-0.37c1.51-0.34,3.02-0.68,4.53-1.02
					C315.37,154.77,315.87,155.35,315.93,155.85z"/>
				<ellipse cx="313.47" cy="161.75" rx="2.15" ry="2.53"/>
				<path style="fill:#FFFFFF;" d="M368.363,162.682c-3.344,0.098-5.604-2.85-6.763-5.643c-1.247-3.007-1.774-6.273-3.477-9.089
					c-0.333-0.551-1.148,0.029-0.816,0.578c1.879,3.109,2.262,6.832,3.901,10.05c1.411,2.772,3.941,5.197,7.242,5.1
					C369.094,163.66,369.005,162.664,368.363,162.682z"/>
				<path style="fill:#FFFFFF;" d="M373.642,166.309c-1.297-0.246-2.595-0.493-3.892-0.739c-0.633-0.12-0.813,0.864-0.181,0.984
					c1.297,0.247,2.595,0.493,3.892,0.739C374.095,167.413,374.274,166.429,373.642,166.309z"/>
				<path style="fill:#FFFFFF;" d="M409.868,212.425c-0.728-2.145-2.4-3.951-4.657-4.443c-0.63-0.137-0.809,0.847-0.181,0.984
					c1.98,0.432,3.366,2.097,3.954,3.972c0.661,2.109,0.128,4.35-0.9,6.247c-2.374,4.381-7.031,6.754-10.431,10.208
					c-1.754,1.782-3.196,3.881-3.808,6.33c-0.156,0.626,0.828,0.802,0.984,0.181c1.3-5.202,6.338-8.061,10.071-11.388
					C408.222,221.555,411.455,217.103,409.868,212.425z"/>
				<path style="fill:#FFFFFF;" d="M394.296,227.985c-0.937,1.786-1.875,3.572-2.812,5.358c-0.3,0.572,0.606,0.996,0.904,0.428
					c0.937-1.786,1.875-3.572,2.812-5.358C395.5,227.841,394.594,227.416,394.296,227.985z"/>
				<path style="fill:#FFFFFF;" d="M313.38,149.19c-1.96,0.232-3.949,0.058-5.83-0.55c-1.526-0.494-3.632-1.299-4.131-2.999
					c-0.181-0.617-1.118-0.267-0.937,0.349c0.562,1.912,2.711,2.89,4.44,3.487c2.103,0.726,4.337,0.971,6.546,0.709
					C314.105,150.111,314.021,149.115,313.38,149.19z"/>
				<path style="fill:#FFFFFF;" d="M321.144,147.549c-0.099-0.266-0.384-0.374-0.643-0.294c-1.541,0.474-3.082,0.949-4.623,1.423
					c-0.258,0.079-0.384,0.4-0.294,0.643c0.099,0.266,0.384,0.374,0.643,0.294c1.541-0.474,3.082-0.948,4.623-1.423
					C321.108,148.112,321.234,147.791,321.144,147.549z"/>
				<path style="fill:#FFFFFF;" d="M316.823,145.662l-4.999,0.775c-0.267,0.041-0.479,0.26-0.455,0.542
					c0.022,0.256,0.273,0.496,0.542,0.455l4.999-0.775c0.267-0.041,0.479-0.26,0.455-0.542
					C317.342,145.86,317.091,145.62,316.823,145.662z"/>
				<path style="fill:#FFFFFF;" d="M344.275,137.712c-1.009-2.483-3.039-4.511-5.541-5.484c-0.252-0.098-0.545-0.018-0.666,0.238
					c-0.109,0.231-0.014,0.568,0.238,0.666c2.265,0.88,4.115,2.673,5.031,4.928C343.579,138.655,344.518,138.311,344.275,137.712z"
					/>
				<path style="fill:#FFFFFF;" d="M335.661,131.502c-1.715-0.197-3.419,0.154-4.923,0.999c-0.235,0.132-0.264,0.493-0.119,0.697
					c0.169,0.239,0.461,0.252,0.697,0.119c1.253-0.704,2.737-0.996,4.164-0.832c0.268,0.031,0.531-0.123,0.582-0.401
					C336.109,131.832,335.931,131.533,335.661,131.502z"/>
			</g>
			<g>
				<path style="fill:#394C9E;" d="M376.9,221.78l-29.55,51.89c0,0,27.37,80.62-34.14,80.62H227.8
					c-12.62-13.3-18.99-24.08-22.19-31.42c-3.04-6.96-3.24-10.84-3.24-10.84l80.06-19.59c0,0,31.31,0.83,42.03,13.32
					c-0.25-0.63-8.62-20.99-40.29-24.12h-0.01c3.97-15.78,13.28-40.49,13.28-40.49c-8.68-12.49,0.62-27.45,8.17-36.37
					c4.05-4.78,7.6-7.83,7.6-7.83l-22.84-18.28h-0.01l-32.26-55.25l8.32-5.26l11.46-7.26l2.19-1.38l21.38,37.43l0.05,0.11
					c0.2,0.41,0.42,0.8,0.67,1.17l5.76,10.08c-0.02,9.56,1.41,26.8,11.64,30.4c1.59,0.56,3.09,0.94,4.52,1.17
					c-13.87,23.07-8.76,40.03-8.76,40.03c10.09-10.45,42.08-29.66,42.08-29.66l-0.19-0.57l27.62-32.62l34.953-41.041
					c0,0,0.77,0.63,2.01,1.71c2.6,2.26,7.25,6.54,11.14,11.26c3.39,4.11,6.2,8.56,6.59,12.32L376.9,221.78z"/>
				<path style="fill:#FFC661;" d="M357.22,199.68l0.19,0.57c0,0-31.99,19.21-42.08,29.66c7.97-17.02,37.67-43.09,37.67-43.09
					L357.22,199.68z"/>
				<path d="M334.48,256.58l-31.23-8.34C308.23,232.39,334.48,256.58,334.48,256.58z"/>
				<path style="fill:#FFC661;" d="M324.1,199.66v5.7l-8.77,24.55c0,0-5.11-16.96,8.76-40.03h0.01V199.66z"/>
				<path d="M284.17,281.64c31.67,3.13,40.04,23.49,40.29,24.12c-10.72-12.49-42.03-13.32-42.03-13.32
					c-0.14-2.24,0.56-6.13,1.73-10.8H284.17z"/>
				<path d="M290.37,178.67l22.84,18.28c0,0-3.55,3.05-7.6,7.83l-15.25-26.11H290.37z"/>
				<path style="fill:#EF599D;" d="M301.5,147.06l0.67,1.17C301.92,147.86,301.7,147.47,301.5,147.06z"/>
				<path style="fill:#FFFFFF;" d="M375.485,164.118c-1.111-0.253-2.221-0.507-3.332-0.76c-0.255-0.058-0.547,0.142-0.582,0.401
					c-0.038,0.278,0.128,0.52,0.402,0.582c1.11,0.253,2.221,0.507,3.332,0.76c0.255,0.058,0.547-0.142,0.582-0.401
					C375.925,164.422,375.758,164.181,375.485,164.118z"/>
				<path d="M284.202,160.12c-1.967-3.195-3.934-6.389-5.902-9.584c-0.338-0.548-1.153,0.031-0.816,0.578
					c1.967,3.195,3.934,6.389,5.902,9.584C283.724,161.246,284.539,160.667,284.202,160.12z"/>
				<path d="M288.696,168.13c-0.991-1.79-1.983-3.58-2.974-5.37c-0.131-0.236-0.494-0.263-0.697-0.119
					c-0.24,0.17-0.25,0.46-0.119,0.697c0.991,1.79,1.983,3.58,2.974,5.369c0.131,0.236,0.494,0.263,0.697,0.119
					C288.817,168.657,288.827,168.367,288.696,168.13z"/>
				<path d="M288.124,161.474c-0.86-1.177-1.72-2.355-2.58-3.532c-0.159-0.218-0.475-0.277-0.697-0.119
					c-0.218,0.155-0.279,0.478-0.119,0.697c0.86,1.177,1.72,2.355,2.58,3.532c0.159,0.218,0.475,0.277,0.697,0.119
					C288.224,162.016,288.284,161.693,288.124,161.474z"/>
				<path d="M388.12,202.84c-2.655,3.028-5.31,6.057-7.964,9.085c-0.425,0.485,0.342,1.127,0.766,0.643
					c2.655-3.028,5.31-6.057,7.964-9.085C389.311,202.998,388.545,202.355,388.12,202.84z"/>
				<path d="M394.736,194.819c-1.56,1.902-3.12,3.805-4.68,5.707c-0.408,0.498,0.357,1.141,0.766,0.643
					c1.56-1.902,3.12-3.805,4.68-5.707C395.911,194.963,395.145,194.32,394.736,194.819z"/>
				<path d="M388.826,197.431c-1.44,1.714-2.88,3.427-4.32,5.141c-0.415,0.493,0.351,1.136,0.766,0.643
					c1.44-1.714,2.88-3.427,4.32-5.141C390.006,197.58,389.24,196.937,388.826,197.431z"/>
				<path d="M349.425,301.054c-0.134-0.621-1.132-0.541-0.996,0.087c0.979,4.536,1.046,9.209,0.182,13.769
					c-0.12,0.633,0.864,0.813,0.984,0.181C350.473,310.45,350.421,305.671,349.425,301.054z"/>
				<path d="M348.077,318.303c-1.001,3.641-2.003,7.282-3.004,10.924c-0.171,0.621,0.814,0.797,0.984,0.181
					c1.001-3.641,2.003-7.282,3.004-10.924C349.231,317.863,348.246,317.687,348.077,318.303z"/>
				<path d="M345.176,311.955c-0.312,2.594-0.624,5.188-0.936,7.783c-0.077,0.637,0.907,0.82,0.984,0.181
					c0.312-2.594,0.624-5.188,0.936-7.783C346.237,311.499,345.253,311.315,345.176,311.955z"/>
				<path d="M212.459,325.931c-1.442-3.265-2.883-6.53-4.325-9.795c-0.258-0.585-1.198-0.242-0.937,0.349
					c1.442,3.265,2.883,6.53,4.325,9.795C211.78,326.865,212.72,326.522,212.459,325.931z"/>
				<path d="M219.144,335.521c-1.643-2.426-3.285-4.853-4.928-7.279c-0.361-0.533-1.178,0.044-0.816,0.578l4.928,7.279
					C218.689,336.632,219.506,336.055,219.144,335.521z"/>
				<path d="M220.284,330.496c-1.479-2.35-2.958-4.699-4.438-7.049c-0.343-0.545-1.159,0.034-0.816,0.578
					c1.479,2.35,2.958,4.699,4.438,7.049C219.811,331.618,220.627,331.04,220.284,330.496z"/>
			</g>
			<g>
				<path style="fill:#EF599D;" d="M246.6,474.8l-0.13,3.65l-54.71,0.57c0,0-9.35-8.86,0.3-14.87c0,0-13.86-13.91-9.06-18.51
					c6.35-6.11,13.39,15.81,13.39,15.81l3.99-0.77c0,0,4.69-20.94,10.72-20.22c6.59,0.8-0.35,12.5-3.97,17.96
					c-1.12,1.68-1.92,2.77-1.92,2.77s5.4,2.35,6.71,11.46c0.07,0.45,0.13,0.91,0.17,1.39L246.6,474.8z"/>
				<path style="fill:#F9B4C6;" d="M235.94,429.12c0,0,6.63,17.42,5.82,19.28c-0.81,1.86-20.05,22.31-20.05,22.31l-9.79,1.94
					c-1.31-9.11-6.71-11.46-6.71-11.46s0.8-1.09,1.92-2.77h1.81l10.38-24.11c4.72-0.04,12.77-0.84,16.18-5.36L235.94,429.12z"/>
				<path style="fill:#FFC661;" d="M219.32,434.31c-2.15,0.03-3.61-0.1-3.61-0.1l-16.79-54.23l16.37-21.8l12.51-3.89l8.34,73.67
					c-0.19,0.35-0.4,0.68-0.64,0.99C232.09,433.47,224.04,434.27,219.32,434.31z"/>
				<path d="M227.8,354.29l-12.51,3.89l-16.37,21.8l14.15-25.69C213.07,354.29,218.24,354.29,227.8,354.29z"/>
				<path style="fill:#FFC661;" d="M168.58,430.73c-3.62-0.62-10.75-2.54-14.54-8.27c-0.63-0.93-1.16-1.97-1.57-3.12
					c0,0,30.3-87.01,37.25-90.63c4.77-2.48,11.89-4.69,15.89-5.84c3.2,7.34,9.57,18.12,22.19,31.42c-9.56,0-14.73,0-14.73,0
					l-14.15,25.69l-28.11,51.04C170.81,431.02,169.95,430.97,168.58,430.73z"/>
				<path style="fill:#F9B4C6;" d="M168.58,430.73c-1.27,5.25-4.46,17.68-6.41,18.29c-2.43,0.75-25.67,5.15-26.27,5.27h-0.01
					l-9.93-9.67c2.95-3.81,4.05-7.16,4.36-9.71l20.29-6.48l3.43-5.97C157.83,428.19,164.96,430.11,168.58,430.73z"/>
				<path style="fill:#EF599D;" d="M151.97,469.93l-2.72,2.72l-42.51-38.76c0,0-0.85-13.52,10.88-11.23c0,0-0.69-20.63,6.3-20.74
					c9.26-0.15-1.02,21.76-1.02,21.76l3.61,2.27c0,0,18.62-12.76,22.74-7.88c0.38,0.46,0.63,0.9,0.77,1.34
					c1.93,6.23-20.15,10.39-20.15,10.39s0.84,1.93,0.45,5.11c-0.31,2.55-1.41,5.9-4.36,9.71l9.93,9.67h0.01L151.97,469.93z"/>
				<path d="M211.13,342.945c-0.082-0.637-1.078-0.553-0.996,0.087l0.928,7.228c0.082,0.637,1.078,0.553,0.996-0.087
					C211.749,347.763,211.439,345.354,211.13,342.945z"/>
				<path d="M208.808,351.066c-1.603-1.856-3.205-3.713-4.808-5.569c-0.176-0.204-0.462-0.286-0.697-0.119
					c-0.204,0.145-0.296,0.492-0.119,0.697c1.603,1.856,3.205,3.713,4.808,5.569c0.176,0.204,0.462,0.286,0.697,0.119
					C208.893,351.619,208.986,351.272,208.808,351.066z"/>
				<path d="M210.623,404.326c-0.662-2.599-1.325-5.198-1.987-7.797c-0.159-0.622-1.095-0.27-0.937,0.349
					c0.662,2.599,1.325,5.198,1.987,7.797C209.844,405.297,210.781,404.945,210.623,404.326z"/>
				<path d="M215.807,420.687c-1.147-4.085-2.294-8.169-3.441-12.254c-0.174-0.619-1.111-0.268-0.937,0.349l3.441,12.254
					C215.043,421.655,215.98,421.305,215.807,420.687z"/>
				<path d="M215.95,408.786c-0.68-2.039-1.359-4.077-2.039-6.116c-0.203-0.61-1.141-0.262-0.937,0.349
					c0.68,2.039,1.359,4.077,2.039,6.116C215.216,409.745,216.153,409.397,215.95,408.786z"/>
				<path d="M159.406,404.292l-3.557,10.614c-0.202,0.604,0.7,1.037,0.904,0.428l3.557-10.614
					C160.512,404.116,159.61,403.683,159.406,404.292z"/>
				<path d="M165.193,390.699l-4.161,9.681c-0.254,0.591,0.65,1.02,0.904,0.428l4.161-9.681
					C166.351,390.536,165.447,390.107,165.193,390.699z"/>
				<path d="M163.826,400.304c-0.292-0.053-0.502,0.142-0.582,0.401l-1.61,5.207c-0.08,0.258,0.158,0.538,0.401,0.582
					c0.292,0.053,0.502-0.142,0.582-0.402l1.61-5.207C164.307,400.628,164.069,400.348,163.826,400.304z"/>
				<g>
					
						<ellipse transform="matrix(0.0564 -0.9984 0.9984 0.0564 -283.7341 635.7914)" style="fill:#FFFFFF;" cx="194.492" cy="468.002" rx="2.062" ry="1.455"/>
					
						<ellipse transform="matrix(0.0564 -0.9984 0.9984 0.0564 -276.6554 642.2026)" style="fill:#FFFFFF;" cx="201.423" cy="467.463" rx="2.062" ry="1.455"/>
					<path d="M199.056,470.784c-0.083-0.186-0.201-0.363-0.365-0.488c-0.161-0.123-0.357-0.218-0.562-0.23
						c-0.165-0.01-0.283,0.001-0.445,0.043c-0.007,0.002-0.014,0.008-0.021,0.01c-0.023,0.005-0.045,0.002-0.068,0.011
						c-0.168,0.066-0.309,0.176-0.426,0.308c-0.008,0.008-0.018,0.014-0.026,0.022c-0.002,0.002-0.003,0.005-0.004,0.007
						c-0.132,0.16-0.225,0.353-0.261,0.561c-0.068,0.395,0.061,0.845,0.395,1.089c0.332,0.243,0.763,0.305,1.151,0.163
						c0.374-0.137,0.683-0.484,0.717-0.89C199.159,471.184,199.141,470.976,199.056,470.784z"/>
					<path d="M209.478,442.988c-0.192-0.161-0.55-0.161-0.704,0.062c-1.353,1.949-2.529,4.014-3.501,6.178
						c-0.264,0.588,0.64,1.015,0.904,0.428c0.937-2.086,2.059-4.085,3.363-5.963C209.694,443.471,209.698,443.173,209.478,442.988z"
						/>
					<path d="M204.429,451.143c-0.728,1.882-1.455,3.763-2.183,5.645c-0.231,0.598,0.672,1.028,0.904,0.428
						c0.728-1.882,1.455-3.763,2.183-5.645C205.565,450.972,204.661,450.542,204.429,451.143z"/>
					<path d="M208.467,448.571c-0.194-0.163-0.548-0.16-0.704,0.062c-0.824,1.167-1.427,2.455-1.795,3.835
						c-0.069,0.261,0.151,0.536,0.401,0.582c0.284,0.052,0.513-0.14,0.582-0.401c0.319-1.198,0.859-2.357,1.577-3.373
						C208.685,449.055,208.686,448.754,208.467,448.571z"/>
					<path d="M191.217,453.63c-1.272-1.994-2.544-3.987-3.817-5.98c-0.346-0.543-1.162,0.036-0.816,0.578
						c1.272,1.994,2.544,3.987,3.817,5.981C190.747,454.751,191.563,454.172,191.217,453.63z"/>
					<path d="M193.806,459.194c-0.417-0.973-0.835-1.945-1.252-2.918c-0.103-0.24-0.386-0.403-0.643-0.294
						c-0.239,0.101-0.405,0.386-0.294,0.643c0.417,0.973,0.835,1.945,1.252,2.918c0.103,0.24,0.386,0.403,0.643,0.294
						C193.751,459.736,193.916,459.451,193.806,459.194z"/>
					<path d="M190.956,457.039l-1.458-2.781c-0.121-0.231-0.373-0.409-0.643-0.294c-0.224,0.095-0.424,0.395-0.294,0.643
						l1.458,2.781c0.121,0.231,0.372,0.409,0.643,0.294C190.885,457.588,191.086,457.287,190.956,457.039z"/>
					<path style="fill:#F9B4C6;" d="M193.071,472.299c-0.542-0.65-1.477-0.759-2.192-0.331c-0.671,0.401-0.887,1.321-0.572,2.015
						c0.014,0.031,0.034,0.06,0.05,0.09c0.082,0.202,0.204,0.387,0.36,0.539c0.63,0.612,1.726,0.489,2.295-0.135
						C193.536,473.902,193.572,472.9,193.071,472.299z"/>
					<path style="fill:#F9B4C6;" d="M207.23,470.649c-0.542-0.65-1.477-0.759-2.192-0.331c-0.671,0.401-0.887,1.321-0.572,2.015
						c0.014,0.031,0.034,0.06,0.05,0.09c0.082,0.202,0.204,0.387,0.36,0.539c0.63,0.612,1.726,0.489,2.295-0.135
						C207.695,472.252,207.731,471.25,207.23,470.649z"/>
					<path d="M201.664,472.284c-0.285-0.052-0.511,0.14-0.582,0.401c-0.159,0.582-0.436,1.314-1.18,1.068
						c-0.753-0.25-1.018-1.145-1.246-1.816c-0.079-0.233-0.345-0.365-0.578-0.309c-0.26,0.063-0.38,0.271-0.389,0.527
						c-0.02,0.596-0.037,1.324-0.5,1.767c-0.286,0.274-0.818,0.319-0.936-0.134c-0.068-0.261-0.408-0.381-0.643-0.294
						c-0.274,0.102-0.363,0.381-0.294,0.643c0.258,0.99,1.488,1.22,2.272,0.736c0.428-0.264,0.68-0.651,0.837-1.086
						c0.339,0.484,0.791,0.863,1.435,0.985c0.56,0.106,1.116-0.059,1.517-0.463c0.385-0.387,0.55-0.929,0.69-1.442
						C202.136,472.606,201.913,472.33,201.664,472.284z"/>
				</g>
				<g>
					
						<ellipse transform="matrix(0.7779 -0.6284 0.6284 0.7779 -242.8754 168.0836)" style="fill:#FFFFFF;" cx="116.336" cy="427.618" rx="2.062" ry="1.455"/>
					
						<ellipse transform="matrix(0.7779 -0.6284 0.6284 0.7779 -244.7541 172.3192)" style="fill:#FFFFFF;" cx="121.389" cy="432.393" rx="2.062" ry="1.455"/>
					<path d="M117.338,432.868c0.082-0.187,0.134-0.393,0.117-0.598c-0.017-0.202-0.078-0.411-0.207-0.571
						c-0.104-0.129-0.191-0.209-0.331-0.301c-0.006-0.004-0.015-0.005-0.021-0.009c-0.019-0.013-0.032-0.032-0.053-0.043
						c-0.161-0.08-0.338-0.111-0.514-0.109c-0.011,0-0.023-0.004-0.034-0.004c-0.003,0-0.005,0.001-0.008,0.001
						c-0.207,0.01-0.413,0.071-0.591,0.184c-0.338,0.215-0.585,0.613-0.542,1.024c0.043,0.409,0.286,0.77,0.652,0.962
						c0.353,0.185,0.817,0.182,1.141-0.066C117.111,433.213,117.254,433.06,117.338,432.868z"/>
					<path d="M144.937,421.934c-0.009-0.251-0.249-0.516-0.519-0.481c-2.353,0.305-4.673,0.82-6.93,1.552
						c-0.613,0.199-0.323,1.156,0.29,0.957c2.175-0.706,4.409-1.216,6.677-1.51C144.724,422.418,144.948,422.222,144.937,421.934z"
						/>
					<path d="M135.504,423.666c-1.883,0.724-3.766,1.447-5.65,2.171c-0.599,0.23-0.311,1.188,0.29,0.957
						c1.883-0.724,3.766-1.447,5.65-2.171C136.392,424.393,136.105,423.435,135.504,423.666z"/>
					<path d="M140.121,424.932c-0.01-0.253-0.249-0.514-0.518-0.481c-1.418,0.172-2.778,0.59-4.048,1.244
						c-0.24,0.124-0.296,0.472-0.162,0.688c0.152,0.245,0.448,0.286,0.688,0.162c1.102-0.568,2.324-0.945,3.559-1.095
						C139.908,425.418,140.132,425.218,140.121,424.932z"/>
					<path d="M124.791,415.542c0.624-2.281,1.247-4.562,1.871-6.843c0.17-0.621-0.807-0.838-0.976-0.217
						c-0.624,2.281-1.247,4.562-1.871,6.844C123.645,415.946,124.621,416.163,124.791,415.542z"/>
					<path d="M122.405,421.196c0.441-0.962,0.882-1.925,1.322-2.887c0.109-0.237,0.04-0.557-0.214-0.674
						c-0.236-0.11-0.558-0.041-0.674,0.214c-0.441,0.962-0.882,1.925-1.322,2.887c-0.109,0.237-0.04,0.557,0.214,0.674
						C121.966,421.519,122.288,421.451,122.405,421.196z"/>
					<path d="M122.089,417.637l1.082-2.947c0.09-0.245,0.053-0.551-0.214-0.674c-0.22-0.102-0.578-0.049-0.674,0.214l-1.082,2.947
						c-0.09,0.245-0.053,0.551,0.214,0.674C121.634,417.953,121.992,417.9,122.089,417.637z"/>
					<path style="fill:#F9B4C6;" d="M112.198,429.448c0.118-0.838-0.429-1.604-1.225-1.847c-0.748-0.228-1.574,0.23-1.877,0.929
						c-0.014,0.031-0.021,0.065-0.033,0.097c-0.094,0.196-0.15,0.411-0.158,0.629c-0.031,0.877,0.797,1.608,1.641,1.61
						C111.321,430.869,112.089,430.223,112.198,429.448z"/>
					<path style="fill:#F9B4C6;" d="M122.925,438.836c0.118-0.838-0.429-1.604-1.225-1.847c-0.748-0.228-1.574,0.23-1.877,0.929
						c-0.014,0.031-0.021,0.065-0.033,0.097c-0.094,0.196-0.15,0.411-0.158,0.629c-0.031,0.877,0.797,1.608,1.641,1.61
						C122.049,440.257,122.816,439.61,122.925,438.836z"/>
					<path d="M117.977,435.807c-0.153-0.246-0.447-0.285-0.688-0.162c-0.538,0.273-1.267,0.559-1.583-0.158
						c-0.32-0.726,0.166-1.523,0.51-2.143c0.12-0.215,0.039-0.501-0.159-0.636c-0.221-0.151-0.456-0.1-0.652,0.065
						c-0.455,0.385-1.006,0.861-1.645,0.815c-0.395-0.028-0.785-0.392-0.529-0.784c0.148-0.226,0.009-0.559-0.214-0.674
						c-0.26-0.135-0.526-0.013-0.674,0.214c-0.56,0.856,0.095,1.921,0.98,2.178c0.483,0.14,0.939,0.066,1.367-0.109
						c-0.131,0.577-0.109,1.166,0.233,1.725c0.297,0.486,0.793,0.787,1.361,0.814c0.545,0.026,1.058-0.217,1.532-0.457
						C118.056,436.374,118.111,436.023,117.977,435.807z"/>
				</g>
			</g>
		</g>
	</g>
	<g>
		<g>
			<g>
				<rect x="100.205" y="281.64" style="fill:#FFC661;" width="234.275" height="12.06"/>
				<path d="M205.798,288.741H104.609c-0.643,0-0.552,0.996,0.087,0.996h101.189C206.529,289.737,206.438,288.741,205.798,288.741z"
					/>
				<path d="M301.983,289.297h-88.958c-0.643,0-0.552,0.996,0.087,0.996h88.958C302.714,290.293,302.623,289.297,301.983,289.297z"
					/>
				<rect x="100.205" y="293.7" width="234.275" height="2.767"/>
				<polygon points="102.135,296.467 111.303,475.116 120.96,475.116 120.96,296.467 				"/>
				<polygon points="325.032,296.467 315.864,475.116 306.208,475.116 306.208,296.467 				"/>
			</g>
			<g>
				<g>
					<polygon style="fill:#E585A3;" points="140.511,281.64 129.524,225.014 209.578,225.014 223.214,276.582 260.957,276.582 
						260.042,281.64 					"/>
					<polygon style="fill:#F9B4C6;" points="129.524,225.014 223.214,276.582 209.578,225.014 					"/>
					<polygon style="fill:#E585A3;" points="260.957,276.582 139.026,276.582 140.511,281.64 260.042,281.64 					"/>
				</g>
				<path d="M138.205,246.037c-0.117-0.627-1.115-0.546-0.996,0.087c0.984,5.252,1.967,10.504,2.95,15.756
					c0.117,0.627,1.115,0.546,0.996-0.087C140.172,256.54,139.188,251.289,138.205,246.037z"/>
				<path d="M142.002,267.517c-0.108-0.63-1.106-0.548-0.996,0.087c0.362,2.102,0.724,4.204,1.087,6.306
					c0.109,0.63,1.106,0.548,0.996-0.087C142.727,271.721,142.365,269.619,142.002,267.517z"/>
				<path d="M144.498,262.497c-0.054-0.265-0.251-0.48-0.542-0.454c-0.245,0.021-0.509,0.275-0.455,0.542
					c0.379,1.852,0.757,3.703,1.136,5.555c0.054,0.265,0.251,0.48,0.542,0.455c0.245-0.021,0.509-0.275,0.455-0.542
					C145.255,266.2,144.877,264.348,144.498,262.497z"/>
				<path d="M217.417,264.605c-1.79-7.228-3.581-14.456-5.371-21.684c-0.154-0.623-1.091-0.271-0.937,0.349
					c1.79,7.228,3.581,14.456,5.371,21.684C216.634,265.577,217.57,265.224,217.417,264.605z"/>
				<path d="M219.469,271.273c-0.309-0.988-0.618-1.977-0.927-2.965c-0.078-0.25-0.404-0.396-0.643-0.294
					c-0.26,0.11-0.378,0.375-0.294,0.643c0.309,0.988,0.618,1.977,0.927,2.965c0.078,0.25,0.404,0.396,0.643,0.294
					C219.435,271.806,219.552,271.541,219.469,271.273z"/>
			</g>
			<g>
				<path style="fill:#E585A3;" d="M240.183,243.443c-0.06-2.801,1.428-5.324,2.12-7.969c0.617-2.358,0.585-4.878-0.975-6.868
					c-1.306-1.664-3.221-2.717-4.528-4.374c-1.725-2.188-1.208-4.954-1.342-7.541c-0.238-4.566-3.064-9.388-8.031-9.766
					c-2.091-0.159-4.217,0.569-5.496,2.291c-1.14,1.536-1.609,3.675-0.874,5.487c0.842,2.077,3.098,2.786,4.31,4.541
					c1.626,2.354-0.284,5.302-1.156,7.553c-0.813,2.1-1.054,4.382,0.402,6.254c1.113,1.432,2.748,2.32,4.232,3.308
					c1.534,1.022,3.108,2.246,3.474,4.163c0.399,2.089-0.501,4.234-1.09,6.199c-0.592,1.973-1.065,4.142-0.233,6.122
					c0.96,2.282,3.165,3.608,4.524,5.603c0.271,0.398,0.505,0.818,0.674,1.256c-0.242,0.029-0.461,0.206-0.426,0.519
					c0.068,0.598,0.306,1.122,0.641,1.572c-0.014,0.073-0.021,0.145-0.04,0.218c-0.123,0.474,0.413,0.687,0.75,0.493
					c0.855,0.647,1.989,0.946,3.079,0.712c2.262-0.484,3.722-2.653,4.038-4.837C245.025,252.923,240.297,248.727,240.183,243.443z
					 M243.235,258.3c-0.331,2.072-2.138,4.547-4.532,3.916c-0.467-0.123-0.898-0.369-1.238-0.701
					c0.522-4.457-5.689-6.421-5.917-10.743c-0.206-3.898,3.095-7.705,1.397-11.589c-1.427-3.264-5.306-4-7.43-6.603
					c-3.371-4.13,3.075-8.7,1.085-13.169c-0.858-1.926-2.956-2.643-4.157-4.268c-1.155-1.562-0.859-3.782,0.253-5.286
					c1.308-1.767,3.587-2.264,5.654-1.778c2.271,0.533,4.048,2.202,5.033,4.279c1.056,2.227,1.093,4.532,1.094,6.944
					c0.001,1.228,0.063,2.478,0.472,3.648c0.327,0.936,0.892,1.75,1.566,2.469c1.361,1.454,3.172,2.501,4.296,4.174
					c1.469,2.187,0.838,4.94,0.025,7.248c-0.826,2.344-1.831,4.683-1.619,7.225c0.208,2.489,1.36,4.759,2.385,6.993
					C242.624,253.29,243.635,255.798,243.235,258.3z"/>
				<path style="fill:#E585A3;" d="M290.43,221.14c-0.24,5.69-6.18,7.93-10.33,10.44c-2.42,1.46-4.42,3.27-5.4,5.98
					c-0.85,2.36-1.07,4.89-1.88,7.26c-0.78,2.28-2.2,4.11-4.31,5.29c-1.95,1.1-4.12,1.68-6.2,2.47c-2.16,0.82-4.24,1.94-5.36,4.06
					c-0.65,1.24-1.02,2.59-1.57,3.87c-0.52,1.24-1.24,2.36-2.22,3.29c-1.63,1.55-4.19,2.91-6.52,2.47c-1-0.18-1.94-0.81-2.12-1.87
					c-0.04-0.22-0.03-0.44,0-0.64c-0.13-0.21-0.14-0.49,0.1-0.68c0.05-0.04,0.09-0.1,0.14-0.14c0.29-0.61,0.79-1.14,1.28-1.6
					c0.24-0.45,0.46-0.91,0.61-1.4c1.72-5.42-1.84-11.66,1.78-16.64c1.6-2.21,4.24-2.64,6.62-3.58c1.12-0.44,2.12-1.05,2.86-2.02
					c0.67-0.89,1.05-1.97,1.34-3.03c0.58-2.14,0.8-4.41,1.74-6.45c1.01-2.19,2.88-3.49,5.18-4.08c2.45-0.62,5.1-0.63,7.39-1.79
					c2.55-1.3,4.32-3.64,6.65-5.23c2.04-1.38,4.78-2.34,7.18-1.35C289.54,216.65,290.53,218.93,290.43,221.14z"/>
				<path style="fill:#F9B4C6;" d="M259.2,229.41c-0.16,1.28,0.19,2.55,0.56,3.76c0.72,2.41,1.51,4.84,0.38,7.27
					c-1.07,2.27-3.16,3.79-5.06,5.33c-1.04,0.83-2.06,1.71-2.84,2.81c-0.83,1.16-1.26,2.53-1.52,3.92c-0.1,0.55-0.17,1.12-0.24,1.68
					c0,0.72-0.03,1.44-0.11,2.16c-0.29,2.59-1.09,5.38-2.64,7.51c-1.3,1.77-3.59,3.19-5.73,1.92c-1.94-1.16-2.72-3.8-3.34-5.83
					c-0.4-1.34-0.69-2.77-0.46-4.17c0.19-1.16,0.76-2.19,1.49-3.09c1.58-1.93,3.65-3.34,4.09-5.97c0.48-2.86-0.64-5.67-1.31-8.4
					c-0.65-2.63-0.89-5.3,0.33-7.8c1-2.06,2.6-3.73,3.72-5.72c0.53-0.96,0.94-1.99,1.02-3.1c0.1-1.45-0.38-2.86-0.82-4.22
					c-0.69-2.15-1.29-4.46-0.31-6.63c0.99-2.19,3.31-2.71,5.43-1.86c1.33,0.54,2.5,1.43,3.67,2.24l3.95,2.73
					c1.91,1.32,4.49,2.72,4.91,5.24c0.46,2.75-1.8,4.88-3.4,6.78C260.13,226.98,259.37,228.08,259.2,229.41z"/>
				<path style="fill:#E585A3;" d="M258.789,221.093c0.517-0.382-0.059-1.2-0.578-0.816c-1.484,1.098-2.969,2.195-4.453,3.292
					c-0.214-2.474,0.069-4.944,2.377-6.282c0.556-0.322-0.024-1.137-0.578-0.816c-2.332,1.352-2.916,3.988-2.84,6.51
					c-0.844-1.18-1.687-2.359-2.531-3.539c-0.374-0.523-1.192,0.053-0.816,0.578c1.176,1.644,2.351,3.288,3.527,4.932
					c0.275,1.86,0.723,3.738,0.563,5.631c-0.139,1.645-0.808,2.973-1.891,4.195c-0.145,0.164-0.299,0.321-0.45,0.48
					c-0.856-1.707-1.713-3.414-2.569-5.121c-0.285-0.568-1.227-0.227-0.937,0.349c0.925,1.844,1.85,3.688,2.775,5.531
					c-0.616,0.625-1.227,1.254-1.737,1.969c-0.852,1.194-1.279,2.524-1.207,3.999c0.068,1.412,0.503,2.77,0.721,4.16
					c-0.756-0.627-1.513-1.254-2.269-1.881c-0.202-0.167-0.539-0.153-0.704,0.062c-0.164,0.214-0.154,0.526,0.062,0.704
					c1.011,0.838,2.021,1.676,3.032,2.514c-0.032,1.642-0.75,3.137-1.635,4.508c-0.491,0.761-1.054,1.55-1.594,2.365
					c-0.289-1.429-0.579-2.858-0.869-4.288c-0.054-0.265-0.251-0.48-0.542-0.455c-0.246,0.022-0.508,0.275-0.455,0.542
					c0.366,1.807,0.732,3.614,1.098,5.422c-1.18,2.011-1.963,4.177-1.047,6.502c0.235,0.597,1.174,0.252,0.937-0.349
					c-1.324-3.358,1.539-6.489,3.236-9.096c0.849-1.305,1.614-2.722,1.819-4.289c0.053-0.402,0.064-0.801,0.047-1.198
					c0.036-0.013,0.074-0.023,0.108-0.044c1.573-0.977,3.146-1.953,4.719-2.93c0.229-0.142,0.268-0.486,0.119-0.697
					c-0.164-0.232-0.467-0.262-0.697-0.119c-1.453,0.902-2.906,1.804-4.359,2.706c-0.127-0.848-0.332-1.689-0.499-2.532
					c-0.323-1.629-0.376-3.196,0.534-4.651c0.526-0.84,1.225-1.554,1.925-2.259c0.027-0.005,0.053-0.002,0.081-0.011
					c2.068-0.652,4.137-1.303,6.206-1.955c0.614-0.193,0.265-1.131-0.349-0.937c-1.521,0.479-3.043,0.959-4.564,1.438
					c0.701-0.83,1.294-1.734,1.621-2.793c0.478-1.548,0.416-3.209,0.204-4.797c-0.109-0.817-0.271-1.736-0.405-2.681
					c0.023-0.088,0.008-0.184-0.032-0.282c0.06-0.015,0.121-0.04,0.181-0.084C255.644,223.418,257.216,222.256,258.789,221.093z"/>
				<path style="fill:#F9B4C6;" d="M287.263,219.598c-1.743-1.394-4.145-0.751-5.651,0.668c-1.76,1.66-2.439,4.078-3.984,5.897
					c-2.613,3.077-7.273,2.43-10.271,4.908c-1.629,1.347-2.164,3.298-2.274,5.338c-0.117,2.177,0.141,4.605-1.123,6.516
					c-1.079,1.631-2.897,2.591-4.539,3.553c-1.703,0.998-3.404,2.071-4.524,3.741c-1.471,2.194-1.88,4.845-2.525,7.354
					c-0.608,2.366-1.569,4.86-3.753,6.186c-0.55,0.334,0.029,1.149,0.578,0.816c3.933-2.387,3.986-7.445,5.34-11.335
					c0.736-2.114,1.962-3.7,3.819-4.937c1.584-1.056,3.344-1.858,4.818-3.076c1.511-1.25,2.433-2.849,2.699-4.801
					c0.293-2.15-0.118-4.472,0.659-6.54c1.414-3.766,6.35-3.645,9.431-5.204c0.994-0.503,1.861-1.165,2.563-2.035
					c0.805-0.997,1.38-2.151,2.013-3.258c0.634-1.109,1.371-2.253,2.463-2.964c1.07-0.697,2.57-0.902,3.619-0.063
					C287.123,220.766,287.767,220.001,287.263,219.598z"/>
				<polygon style="fill:#FFC661;" points="256.816,281.64 237.421,281.64 233.005,260.176 260.957,260.176 				"/>
				<path d="M261.026,259.83h-28.355c-0.643,0-0.552,0.996,0.087,0.996h28.355C261.756,260.826,261.666,259.83,261.026,259.83z"/>
			</g>
		</g>
		<g>
			<g>
				<path style="fill:#FFFFFF;" d="M214.78,164.724c0,20.52-14.25,37.71-33.4,42.22l-9.99,13.58l-12.24-14.17v-0.01
					c-18-5.27-31.15-21.91-31.15-41.62c0-23.97,19.43-43.39,43.39-43.39C195.35,121.334,214.78,140.754,214.78,164.724z"/>
			</g>
			<g>
				<g>
					<g>
						<rect x="138.454" y="147.229" style="fill:#FFFFFF;" width="65.872" height="38.783"/>
					</g>
					<g>
						<path style="fill:#FFC661;" d="M205.326,187.012h-67.872v-40.783h67.872V187.012z M139.454,185.012h63.872v-36.783h-63.872
							V185.012z"/>
					</g>
				</g>
				<polygon style="fill:#FFC661;" points="187.876,177.346 187.379,183.046 191.285,181.044 194.948,183.046 193.787,177.346 				
					"/>
				<g>
					<g>
						<path style="fill:#FFC661;" d="M191.285,179.398c-4.185,0-7.59-3.405-7.59-7.59c0-4.185,3.405-7.59,7.59-7.59
							s7.59,3.405,7.59,7.59C198.876,175.993,195.471,179.398,191.285,179.398z M191.285,166.378c-2.994,0-5.429,2.436-5.429,5.429
							c0,2.994,2.436,5.429,5.429,5.429c2.994,0,5.429-2.436,5.429-5.429C196.715,168.814,194.279,166.378,191.285,166.378z"/>
					</g>
					<g>
						<circle style="fill:#F9B4C6;" cx="191.285" cy="171.808" r="6.51"/>
					</g>
					<g>
						<circle style="fill:#E585A3;" cx="190.262" cy="171.788" r="4.686"/>
					</g>
				</g>
				<rect x="145.703" y="151.726" style="fill:#394C9E;" width="53.173" height="2.965"/>
				<rect x="145.703" y="159.324" style="fill:#394C9E;" width="33.822" height="2.131"/>
				<rect x="145.703" y="165.312" style="fill:#394C9E;" width="33.822" height="2.131"/>
				<rect x="145.703" y="170.198" style="fill:#394C9E;" width="33.822" height="2.131"/>
				<rect x="145.703" y="176.186" style="fill:#394C9E;" width="33.822" height="2.131"/>
			</g>
			<path style="fill:#FFC661;" d="M171.147,128.751c-0.023-1.287-2.016-1.108-1.992,0.174c0.081,4.448,0.162,8.896,0.243,13.344
				c0.023,1.287,2.016,1.108,1.992-0.174C171.309,137.647,171.228,133.199,171.147,128.751z"/>
			<path style="fill:#FFC661;" d="M163.551,141.529l-5.536-6.553c-0.348-0.412-0.927-0.569-1.394-0.238
				c-0.412,0.292-0.588,0.98-0.238,1.394l5.536,6.553c0.348,0.412,0.927,0.569,1.394,0.238
				C163.725,142.631,163.902,141.944,163.551,141.529z"/>
			<path style="fill:#FFC661;" d="M184.864,134.607c-0.515-0.244-1.07,0.003-1.332,0.477c-1.224,2.213-2.447,4.427-3.671,6.64
				c-0.261,0.473,0.01,1.111,0.477,1.332c0.515,0.244,1.07-0.003,1.332-0.477c1.224-2.213,2.447-4.427,3.671-6.64
				C185.602,135.465,185.33,134.827,184.864,134.607z"/>
		</g>
	</g>
</g>
</svg>
