<svg width="500" height="500" viewBox="0 0 500 500" fill="none" xmlns="http://www.w3.org/2000/svg">
<rect width="500" height="500" fill="#E5E5E5"/>
<path d="M270.948 231.764C270.948 258.485 250.004 273.433 224.169 273.433C198.334 273.433 177.39 258.485 177.39 231.764C177.39 205.043 198.334 183.381 224.169 183.381C250.004 183.381 270.948 205.042 270.948 231.764Z" fill="#A0D2F4"/>
<path d="M222.803 196.247C223.113 208.692 223.424 221.136 223.734 233.581C223.754 234.385 224.63 234.632 225.198 234.187C234.392 226.982 243.894 220.18 253.67 213.787C254.59 213.185 253.732 211.7 252.805 212.306C242.905 218.78 233.295 225.679 223.985 232.975C224.473 233.177 224.961 233.379 225.449 233.581C225.138 221.136 224.828 208.692 224.518 196.247C224.49 195.145 222.775 195.141 222.803 196.247Z" fill="#421B36"/>
<path d="M224.093 191.229C224.432 189.262 224.532 187.268 224.346 185.279C224.304 184.834 223.981 184.4 223.489 184.422C223.06 184.441 222.587 184.801 222.632 185.279C222.803 187.112 222.749 188.984 222.44 190.773C222.364 191.213 222.557 191.718 223.039 191.828C223.455 191.923 224.012 191.702 224.093 191.229Z" fill="#421B36"/>
<path d="M189.922 203.782C191.738 204.887 193.554 205.993 195.37 207.098C195.754 207.331 196.329 207.195 196.543 206.79C196.763 206.373 196.645 205.866 196.236 205.617C194.42 204.512 192.604 203.406 190.788 202.301C190.405 202.068 189.829 202.204 189.615 202.609C189.394 203.026 189.512 203.533 189.922 203.782Z" fill="#421B36"/>
<path d="M179.46 231.89C181.75 231.832 184.04 231.773 186.33 231.715C187.431 231.687 187.436 229.972 186.33 230C184.04 230.058 181.75 230.117 179.46 230.175C178.359 230.204 178.355 231.919 179.46 231.89Z" fill="#421B36"/>
<path d="M260.241 229.19C262.423 229.713 264.714 229.667 266.869 229.037C267.313 228.907 267.592 228.434 267.468 227.982C267.346 227.54 266.859 227.253 266.413 227.383C264.549 227.929 262.585 227.989 260.697 227.536C260.247 227.428 259.768 227.678 259.642 228.135C259.522 228.572 259.789 229.082 260.241 229.19Z" fill="#421B36"/>
<path d="M249.781 204.738C251.574 203.494 253.367 202.25 255.16 201.006C255.417 200.828 255.673 200.65 255.93 200.472C256.31 200.208 256.484 199.721 256.237 199.299C256.017 198.923 255.446 198.726 255.064 198.991C253.271 200.235 251.478 201.479 249.685 202.723C249.428 202.901 249.171 203.079 248.915 203.257C248.535 203.521 248.361 204.008 248.607 204.43C248.828 204.806 249.399 205.003 249.781 204.738Z" fill="#421B36"/>
<path d="M228.398 270.545C228.398 267.861 228.398 265.176 228.398 262.492C228.398 261.389 226.683 261.387 226.683 262.492C226.683 265.176 226.683 267.861 226.683 270.545C226.683 271.648 228.398 271.65 228.398 270.545Z" fill="#421B36"/>
<path d="M248.397 255.933C248.616 256.074 248.832 256.221 249.043 256.374C249.093 256.41 249.143 256.447 249.193 256.485C249.209 256.497 249.369 256.62 249.284 256.553C249.198 256.486 249.357 256.611 249.373 256.624C249.431 256.671 249.489 256.718 249.546 256.765C249.938 257.09 250.311 257.437 250.664 257.804C250.836 257.983 251.003 258.167 251.165 258.355C251.254 258.458 251.342 258.563 251.428 258.669C251.467 258.717 251.505 258.766 251.544 258.815C251.631 258.922 251.427 258.657 251.569 258.848C251.882 259.266 252.172 259.698 252.438 260.148C252.666 260.534 253.221 260.707 253.611 260.456C254 260.205 254.163 259.696 253.919 259.283C252.768 257.333 251.166 255.68 249.263 254.454C248.885 254.211 248.3 254.364 248.09 254.762C247.865 255.186 247.994 255.673 248.397 255.933Z" fill="#421B36"/>
<path d="M203.321 264.087C205.008 262.298 206.695 260.509 208.381 258.721C208.689 258.394 208.729 257.828 208.381 257.509C208.047 257.202 207.497 257.16 207.169 257.509C205.482 259.298 203.795 261.086 202.109 262.875C201.801 263.202 201.761 263.768 202.109 264.088C202.443 264.394 202.993 264.436 203.321 264.087Z" fill="#421B36"/>
<path d="M263.536 248.469C263.536 248.469 276.273 263.84 274.309 265.294C272.346 266.748 254.551 261.542 254.551 261.542L263.536 248.469Z" fill="#A0D2F4"/>
<path d="M204.986 258.483C204.986 270.232 196.315 277.548 184.566 277.548C172.818 277.548 162.441 270.231 162.441 258.483C162.441 246.735 171.965 237.21 183.714 237.21C195.462 237.211 204.986 246.735 204.986 258.483Z" fill="#8380FF"/>
<path d="M194.708 245.262C193.681 246.104 180.577 264.358 180.577 264.358C180.577 264.358 172.339 253.12 172.171 252.778C172.171 252.778 168.465 254.614 168.207 255.867C167.948 257.12 177.332 270.977 180.672 270.459C184.012 269.941 199.223 248.343 199.223 248.343L194.708 245.262Z" fill="#A0D2F4"/>
<path d="M349.591 195.485C348.497 195.023 301.03 201.714 301.57 204.748C301.858 206.364 308.699 238.817 312.28 240.195C315.861 241.573 357.892 230.933 358.845 229.81C359.798 228.687 351.747 196.395 349.591 195.485Z" fill="#8380FF"/>
<path d="M300.94 205.961C306.402 209.07 311.963 212 317.625 214.727C320.358 216.043 323.113 217.313 325.889 218.537C327.277 219.149 328.67 219.748 330.068 220.337C331.157 220.796 332.305 221.428 333.477 221.608C335.718 221.953 337.211 220.255 338.462 218.644C340.125 216.504 341.675 214.276 343.11 211.978C346.161 207.092 348.65 201.881 350.614 196.469C350.991 195.43 349.335 194.982 348.961 196.013C347.185 200.907 344.954 205.615 342.266 210.075C340.957 212.247 339.543 214.355 338.033 216.392C337.298 217.383 336.547 218.552 335.568 219.333C334.18 220.441 332.738 219.61 331.329 219.021C321.2 214.788 311.346 209.911 301.806 204.481C300.845 203.934 299.98 205.415 300.94 205.961Z" fill="#421B36"/>
<path d="M313.581 240.545C317.466 232.917 321.351 225.288 325.236 217.66C325.736 216.679 324.257 215.81 323.755 216.795C319.87 224.423 315.985 232.052 312.1 239.68C311.6 240.661 313.079 241.529 313.581 240.545Z" fill="#421B36"/>
<path d="M340.227 216.26C346.727 219.812 352.717 224.206 358.049 229.348C358.844 230.114 360.058 228.903 359.261 228.135C353.829 222.897 347.714 218.398 341.092 214.779C340.123 214.25 339.257 215.73 340.227 216.26Z" fill="#421B36"/>
<path d="M263.846 440.309C260.032 440.126 186.622 439.117 180.017 436.769C173.412 434.421 137.972 352.322 149.396 346.832C160.82 341.342 248.718 335.353 260.763 340.858C272.809 346.362 278.664 415.979 278.664 415.979C278.664 415.979 327.998 417.996 329.274 424.019C330.551 430.041 267.132 440.466 263.846 440.309Z" fill="#421B36"/>
<path d="M156.263 351.28C156.263 351.28 182.582 424.778 186.226 426.46C189.869 428.142 272.535 417.888 273.096 417.047C273.656 416.206 263.847 347.586 259.083 345.046C254.317 342.506 160.096 345.473 156.263 351.28Z" fill="#A0D2F4"/>
<path d="M191.255 421.637C191.255 421.637 167.265 356.767 168.177 355.841C169.089 354.916 253.228 349.853 255.133 352.384C257.038 354.915 269.421 410.161 266.881 412.701C264.339 415.242 193.418 423.269 191.255 421.637Z" fill="white"/>
<path d="M189.625 362.556C188.742 362.556 210 419.678 210 419.678Z" fill="white"/>
<path d="M189.397 361.73C187.752 362.169 189.879 366.654 190.154 367.471C191.673 371.992 193.285 376.483 194.898 380.971C198.688 391.518 202.557 402.037 206.446 412.549C207.353 415.002 208.262 417.455 209.174 419.906C209.556 420.931 211.213 420.488 210.828 419.45C208.518 413.242 206.224 407.028 203.94 400.81C200.206 390.647 196.463 380.483 192.916 370.253C192.296 368.465 191.678 366.675 191.103 364.871C190.931 364.331 190.755 363.79 190.609 363.242C190.271 361.974 190.809 363.128 189.854 363.383C190.918 363.099 190.466 361.444 189.397 361.73Z" fill="#421B36"/>
<path d="M170.962 364.654C199.515 362.764 228.125 361.902 256.678 360.012C257.773 359.94 257.781 358.224 256.678 358.297C228.125 360.187 199.515 361.049 170.962 362.939C169.866 363.012 169.858 364.727 170.962 364.654Z" fill="#421B36"/>
<path d="M201.269 373.751C201.15 372.354 202.137 370.893 203.615 370.779C205.062 370.667 206.319 371.996 206.349 373.389C206.366 374.168 207.59 374.649 207.947 373.822C209.488 370.243 213.69 368.847 217.029 370.927C217.968 371.512 218.83 370.029 217.894 369.446C213.837 366.919 208.368 368.536 206.466 372.956C206.999 373.1 207.531 373.245 208.064 373.389C208.014 371.063 206.007 368.959 203.615 369.064C201.257 369.168 199.357 371.425 199.555 373.751C199.648 374.843 201.363 374.853 201.269 373.751Z" fill="#421B36"/>
<path d="M202.923 383.241C204.98 380.72 208.863 380.219 211.383 382.377C211.656 382.611 212.096 382.736 212.422 382.511C216.375 379.782 221.495 379.439 225.741 381.718C226.114 381.919 226.721 381.847 226.914 381.411C227.935 379.111 230.262 378.421 232.57 378.06C235.108 377.663 237.674 377.4 240.222 377.074C245.08 376.454 249.938 375.833 254.796 375.213C255.876 375.075 255.889 373.359 254.796 373.498C249.055 374.231 243.314 374.964 237.572 375.698C233.459 376.223 227.419 376.07 225.433 380.546C225.824 380.444 226.215 380.341 226.606 380.238C221.851 377.686 216.01 377.956 211.556 381.031C211.902 381.076 212.249 381.12 212.595 381.165C209.417 378.444 204.395 378.738 201.71 382.029C201.018 382.877 202.224 384.097 202.923 383.241Z" fill="#421B36"/>
<path d="M205.288 390.733C222.307 388.361 239.325 385.989 256.344 383.616C257.432 383.464 256.969 381.812 255.888 381.963C238.869 384.335 221.851 386.707 204.832 389.08C203.744 389.231 204.207 390.884 205.288 390.733Z" fill="#421B36"/>
<path d="M207.725 397.958C224.255 395.949 240.785 393.94 257.315 391.931C258.397 391.8 258.41 390.083 257.315 390.216C240.785 392.225 224.255 394.234 207.725 396.243C206.643 396.375 206.63 398.091 207.725 397.958Z" fill="#421B36"/>
<path d="M211.803 406.667C212.344 405.052 213.83 403.828 215.568 403.817C216.411 403.812 217.261 404.092 217.948 404.581C218.301 404.833 218.635 405.149 218.883 405.505C218.946 405.604 219.009 405.703 219.071 405.803C219.377 406.228 219.404 406.685 219.154 407.176C218.476 406.793 219.615 405.454 219.941 405.12C220.514 404.533 221.252 404.096 222.048 403.898C223.844 403.451 225.586 404.261 226.694 405.671C226.962 406.012 227.638 405.999 227.906 405.671C229.891 403.25 232.831 402.059 235.941 402.404C237.036 402.526 237.027 400.81 235.941 400.689C232.439 400.3 228.927 401.735 226.694 404.458C227.098 404.458 227.502 404.458 227.906 404.458C225.866 401.862 222.106 401.299 219.444 403.289C218.344 404.112 217.253 405.485 217.231 406.926C217.211 408.24 218.342 409.307 219.661 408.817C221.099 408.282 221.33 406.673 220.778 405.397C220.176 404.007 218.922 402.961 217.516 402.448C214.41 401.315 211.168 403.17 210.149 406.211C209.798 407.26 211.453 407.709 211.803 406.667Z" fill="#421B36"/>
<path d="M239.635 404.053C240.738 404.053 240.74 402.338 239.635 402.338C238.532 402.338 238.53 404.053 239.635 404.053Z" fill="#421B36"/>
<path d="M216.185 414.648C219.76 414.125 223.334 413.603 226.909 413.08C227.368 413.013 227.62 412.432 227.508 412.025C227.373 411.533 226.913 411.359 226.453 411.426C222.878 411.949 219.304 412.471 215.729 412.994C215.27 413.061 215.018 413.642 215.13 414.049C215.266 414.541 215.725 414.715 216.185 414.648Z" fill="#421B36"/>
<path d="M172.595 359.039C172.639 359.139 172.684 359.239 172.728 359.34C172.782 359.44 172.856 359.52 172.949 359.581C173.032 359.657 173.129 359.708 173.241 359.735C173.355 359.771 173.469 359.776 173.583 359.75C173.697 359.745 173.803 359.711 173.902 359.648C173.96 359.603 174.018 359.559 174.076 359.514C174.182 359.407 174.256 359.281 174.296 359.136C174.306 359.06 174.317 358.984 174.327 358.908C174.326 358.753 174.288 358.609 174.21 358.475C174.166 358.375 174.121 358.275 174.077 358.174C174.023 358.074 173.949 357.994 173.856 357.933C173.773 357.857 173.676 357.806 173.565 357.78C173.451 357.744 173.337 357.739 173.223 357.765C173.109 357.77 173.003 357.804 172.904 357.867C172.846 357.912 172.788 357.956 172.731 358.001C172.625 358.108 172.551 358.234 172.51 358.379C172.5 358.455 172.49 358.531 172.479 358.607C172.479 358.761 172.518 358.905 172.595 359.039Z" fill="#421B36"/>
<path d="M177.724 358.937C177.773 358.888 177.822 358.839 177.871 358.79C177.955 358.712 178.014 358.62 178.048 358.514C178.102 358.412 178.126 358.302 178.122 358.184C178.127 358.066 178.102 357.956 178.048 357.854C178.013 357.748 177.954 357.656 177.871 357.578C177.813 357.533 177.755 357.489 177.697 357.444C177.563 357.367 177.419 357.328 177.264 357.327C177.188 357.337 177.112 357.347 177.036 357.358C176.891 357.399 176.765 357.472 176.658 357.578C176.609 357.627 176.56 357.676 176.511 357.725C176.427 357.803 176.368 357.895 176.334 358.001C176.28 358.103 176.256 358.213 176.26 358.331C176.256 358.449 176.28 358.559 176.334 358.661C176.369 358.767 176.428 358.859 176.511 358.937C176.569 358.982 176.627 359.026 176.685 359.071C176.819 359.149 176.963 359.188 177.118 359.188C177.194 359.178 177.27 359.168 177.346 359.157C177.491 359.117 177.617 359.043 177.724 358.937Z" fill="#421B36"/>
<path d="M180.796 358.894C180.894 358.894 180.992 358.894 181.09 358.894C181.208 358.898 181.318 358.874 181.42 358.82C181.526 358.785 181.618 358.726 181.696 358.643C181.78 358.565 181.839 358.473 181.873 358.367C181.927 358.265 181.951 358.155 181.947 358.037C181.937 357.961 181.926 357.885 181.916 357.809C181.875 357.664 181.802 357.538 181.695 357.431C181.637 357.386 181.579 357.342 181.522 357.297C181.388 357.219 181.244 357.18 181.089 357.18C180.991 357.18 180.893 357.18 180.795 357.18C180.677 357.176 180.567 357.2 180.465 357.254C180.359 357.289 180.267 357.348 180.189 357.431C180.105 357.509 180.046 357.601 180.012 357.707C179.958 357.809 179.934 357.919 179.938 358.037C179.948 358.113 179.958 358.189 179.969 358.265C180.01 358.41 180.083 358.536 180.19 358.643C180.248 358.688 180.306 358.732 180.364 358.777C180.497 358.854 180.641 358.893 180.796 358.894Z" fill="#421B36"/>
<path d="M200.889 430.401C200.889 430.401 247.769 433.027 252.51 432.35C257.252 431.673 305.346 422.874 303.765 421.854C302.184 420.834 280.796 419.73 280.796 419.73L200.889 430.401Z" fill="#8380FF"/>
<path d="M333.499 242.834C332.378 241.076 331.941 238.938 332.334 236.914C332.422 236.46 332.206 235.989 331.735 235.859C331.315 235.743 330.769 236.001 330.68 236.458C330.197 238.945 330.651 241.556 332.018 243.699C332.267 244.089 332.78 244.247 333.191 244.007C333.58 243.78 333.749 243.226 333.499 242.834Z" fill="#421B36"/>
<path d="M218.754 339.343C218.632 336.79 218.51 334.237 218.387 331.684C218.365 331.221 218.009 330.827 217.53 330.827C217.083 330.827 216.65 331.22 216.673 331.684C216.795 334.237 216.917 336.79 217.04 339.343C217.062 339.806 217.418 340.2 217.897 340.2C218.343 340.201 218.776 339.808 218.754 339.343Z" fill="#421B36"/>
<path d="M219.304 326.924C220.83 323.265 223.086 319.926 225.871 317.11C226.648 316.325 225.436 315.111 224.659 315.898C221.652 318.938 219.295 322.526 217.651 326.469C217.473 326.896 217.843 327.412 218.25 327.524C218.744 327.658 219.125 327.353 219.304 326.924Z" fill="#421B36"/>
<path d="M230.399 315.461C233.735 313.663 237.402 312.487 241.169 312.045C241.629 311.991 242.026 311.69 242.026 311.188C242.026 310.767 241.632 310.276 241.169 310.331C237.087 310.81 233.155 312.03 229.534 313.982C228.562 314.504 229.427 315.985 230.399 315.461Z" fill="#421B36"/>
<path d="M247.741 312.508C251.735 312.736 255.688 313.658 259.362 315.246C259.79 315.431 260.277 315.369 260.535 314.939C260.751 314.579 260.652 313.949 260.227 313.766C256.259 312.05 252.059 311.04 247.74 310.793C246.639 310.731 246.642 312.446 247.741 312.508Z" fill="#421B36"/>
<path d="M269.035 320.826C272.191 321.321 275.116 322.767 277.391 325.015C278.176 325.792 279.39 324.58 278.603 323.803C276.136 321.364 272.922 319.71 269.491 319.173C269.034 319.101 268.569 319.29 268.436 319.772C268.325 320.179 268.575 320.754 269.035 320.826Z" fill="#421B36"/>
<path d="M284.947 328.668C287.059 329.769 289.237 330.759 291.472 331.584C292.265 331.876 293.067 332.152 293.886 332.362C294.401 332.494 294.977 332.649 295.512 332.6C295.973 332.558 296.369 332.236 296.369 331.743C296.369 331.312 295.976 330.843 295.512 330.886C295.425 330.894 295.341 330.891 295.254 330.889C295.114 330.885 295.05 330.865 295.103 330.874C294.829 330.827 294.559 330.765 294.29 330.695C293.489 330.486 292.704 330.217 291.928 329.931C289.831 329.157 287.794 328.221 285.812 327.188C284.835 326.678 283.967 328.157 284.947 328.668Z" fill="#421B36"/>
<path d="M307.048 329.909C310.433 329.437 313.502 327.399 315.339 324.531C315.936 323.599 314.453 322.738 313.858 323.665C312.243 326.187 309.545 327.843 306.592 328.255C306.133 328.319 305.882 328.905 305.993 329.31C306.129 329.805 306.587 329.974 307.048 329.909Z" fill="#421B36"/>
<path d="M318.374 319.893C319.638 318.768 320.521 317.177 320.783 315.503C320.852 315.062 320.671 314.559 320.184 314.448C319.774 314.355 319.204 314.573 319.129 315.047C319.071 315.415 318.985 315.778 318.868 316.132C318.838 316.223 318.806 316.313 318.772 316.403C318.757 316.443 318.741 316.482 318.725 316.522C318.649 316.717 318.777 316.413 318.725 316.523C318.643 316.697 318.563 316.87 318.471 317.039C318.384 317.198 318.291 317.353 318.192 317.505C318.14 317.585 318.085 317.664 318.03 317.742C318.005 317.777 317.979 317.81 317.955 317.845C317.895 317.931 318.055 317.723 317.953 317.848C317.71 318.146 317.449 318.424 317.162 318.68C316.826 318.979 316.834 319.592 317.162 319.892C317.52 320.222 318.016 320.212 318.374 319.893Z" fill="#421B36"/>
<path d="M237.901 126.268C264.943 126.386 263.116 94.408 262.603 94.088L209.359 85.796C208.773 85.942 197.207 115.811 222.976 124.01C222.976 124.01 198.085 126.206 196.475 155.928L225.758 160.467L225.773 160.38L253.31 164.785C260.912 136.008 237.901 126.268 237.901 126.268Z" fill="white"/>
<path d="M237.901 127.125C244.808 127.111 251.56 124.922 256.224 119.638C259.908 115.465 261.982 110.092 262.969 104.669C263.367 102.483 263.61 100.262 263.673 98.04C263.707 96.831 263.83 95.402 263.524 94.213C263.316 93.406 262.908 93.291 262.171 93.159C260.673 92.891 259.159 92.69 257.656 92.456C245.438 90.553 233.22 88.651 221.002 86.748C217.304 86.172 213.587 85.419 209.865 85.014C207.712 84.78 207.139 89.073 206.749 90.604C203.757 102.333 205.587 115.889 216.994 122.363C218.815 123.396 220.759 124.191 222.747 124.839C222.823 124.278 222.899 123.716 222.975 123.155C213.111 124.048 203.938 131.053 199.597 139.742C197.079 144.78 195.947 150.338 195.617 155.931C195.597 156.269 195.895 156.703 196.246 156.758C204.766 158.079 213.287 159.399 221.807 160.72C223.048 160.912 224.288 161.105 225.528 161.297C225.949 161.362 226.499 161.195 226.583 160.698C226.588 160.669 226.593 160.64 226.598 160.611C226.246 160.811 225.895 161.01 225.543 161.21C234.722 162.678 243.901 164.147 253.08 165.615C253.532 165.687 254.008 165.504 254.135 165.016C256.358 156.421 256.453 147.209 252.331 139.158C249.827 134.266 245.915 130.119 241.294 127.164C240.349 126.56 239.366 125.97 238.332 125.529C237.328 125.101 236.454 126.578 237.467 127.01C245.899 130.603 251.998 139.331 253.539 148.166C254.491 153.629 253.861 159.229 252.482 164.56C252.834 164.36 253.185 164.161 253.537 163.961C244.358 162.493 235.179 161.024 226 159.556C225.58 159.489 225.029 159.659 224.945 160.155C224.94 160.184 224.935 160.213 224.93 160.242C225.282 160.042 225.633 159.843 225.985 159.643C217.464 158.322 208.944 157.002 200.424 155.681C199.184 155.489 197.943 155.296 196.703 155.104C196.913 155.38 197.123 155.655 197.332 155.931C197.84 147.33 200.535 138.757 206.884 132.671C210.569 129.139 215.221 126.657 220.163 125.412C221.083 125.18 222.379 124.923 222.976 124.869C223.923 124.783 224.16 123.496 223.204 123.185C216.42 120.975 210.756 116.494 208.448 109.577C206.732 104.435 206.828 98.8 207.85 93.526C208.208 91.68 208.674 89.847 209.293 88.071C209.455 87.606 209.756 87.083 209.835 86.673C209.848 86.603 210.03 86.389 210.011 86.334C210.067 86.495 209.081 86.496 209.201 86.636C209.5 86.984 211.45 86.986 211.882 87.054C213.866 87.363 215.85 87.672 217.834 87.981C229.517 89.801 241.201 91.62 252.884 93.439C254.963 93.763 257.042 94.087 259.122 94.41C259.723 94.504 261.645 95.16 262.216 94.892C262.239 94.881 262.359 94.934 262.372 94.916C262.393 94.886 261.702 94.489 261.825 94.43C261.82 94.433 261.867 94.603 261.862 94.612C261.848 94.64 261.934 95.424 261.949 95.751C262.02 97.335 261.953 98.928 261.814 100.507C260.848 111.485 255.371 122.44 243.727 124.866C241.808 125.266 239.858 125.408 237.901 125.412C236.798 125.413 236.796 127.128 237.901 127.125Z" fill="#421B36"/>
<path d="M206.827 79.406C206.827 79.406 205.045 85.641 205.936 86.978C206.827 88.314 265.395 98.335 266.063 97.445C266.731 96.554 267.772 89.312 266.879 89.013C265.958 88.702 207.287 77.652 206.827 79.406Z" fill="#421B36"/>
<path d="M198.89 158.126C198.618 157.854 198.436 150.593 199.435 150.321C200.433 150.049 219.31 152.499 223.122 150.321C226.934 148.143 227.354 144.605 227.172 141.973C227.023 139.809 227.296 128.721 226.837 125.103C226.74 124.342 226.253 123.691 225.549 123.386C221.505 121.634 208.728 113.46 208.882 103.889C208.882 103.889 258.629 105.25 258.357 105.613C258.085 105.976 254.6 123.947 236.457 123.877C236.457 123.877 235.012 124.818 234.649 125.998C234.286 127.178 233.56 142.969 233.56 142.969C233.56 142.969 233.56 149.322 235.466 149.776C237.372 150.23 252.8 150.32 252.8 150.32C252.8 150.32 251.983 162.281 250.531 163.742C249.078 165.205 198.89 158.126 198.89 158.126Z" fill="#A0D2F4"/>
<path d="M193.848 154.762C193.848 154.762 192.067 160.997 192.957 162.334C193.848 163.67 254.074 173.747 254.742 172.857C255.41 171.966 256.451 164.724 255.558 164.425C254.636 164.114 194.308 153.008 193.848 154.762Z" fill="#421B36"/>
<path d="M104.846 403.451C104.75 403.998 104.144 444.193 107.305 448.935C110.466 453.677 149.452 458.418 150.506 446.125C151.56 433.832 153.14 402.398 148.925 400.115C144.71 397.832 106.075 396.427 104.846 403.451Z" fill="#A0D2F4"/>
<path d="M164.971 414.645C161.453 410.008 154.644 408.216 149.3 410.522L151.209 418.395C153.023 416.989 155.626 416.557 157.692 417.556C159.759 418.555 161.06 421.06 160.443 423.27C160.024 424.771 158.833 425.97 157.457 426.7C155.035 427.985 151.949 427.916 149.587 426.524L148.923 434.474C154.192 436.947 161.054 435.371 164.716 430.846C168.378 426.323 168.489 419.283 164.971 414.645Z" fill="#A0D2F4"/>
<path d="M109.144 405.649C121.462 410.09 135.167 409.846 147.314 404.952C148.459 404.491 147.959 402.611 146.798 403.079C134.932 407.86 121.697 408.115 109.661 403.776C108.483 403.351 107.975 405.227 109.144 405.649Z" fill="#421B36"/>
<path d="M150.726 408.533C151.403 419.404 151.333 430.303 150.518 441.164C150.424 442.411 152.368 442.405 152.461 441.164C153.277 430.303 153.346 419.404 152.669 408.533C152.591 407.291 150.648 407.282 150.726 408.533Z" fill="#421B36"/>
<path d="M119.991 433.173C117.671 431.083 116.727 427.656 117.445 424.617C118.163 421.578 120.439 418.999 123.279 417.703C125.277 416.792 127.486 416.587 129.642 416.662C129.642 416.662 141.309 416.402 140.948 427.417C140.948 427.417 140.763 431.802 139.073 433.457C140.085 434.114 140.995 434.927 141.761 435.86C142.361 436.59 142.888 437.609 142.437 438.439C141.889 439.448 140.33 439.315 139.414 438.623C138.498 437.931 137.908 436.874 136.983 436.195C137.305 437.174 137.632 438.192 137.515 439.216C137.398 440.241 136.707 441.277 135.69 441.445C134.719 441.606 133.766 440.926 133.294 440.063C132.821 439.2 132.724 438.188 132.636 437.208C132.757 438.351 132.873 439.535 132.512 440.626C132.151 441.717 131.172 442.692 130.023 442.665C128.926 442.639 128.018 441.708 127.662 440.67C127.306 439.632 127.385 438.502 127.467 437.408L126.994 437.526C126.698 438.624 126.377 439.769 125.603 440.602C124.829 441.435 123.453 441.828 122.536 441.154C121.875 440.668 121.633 439.766 121.725 438.951C121.817 438.136 122.189 437.383 122.555 436.649C121.658 437.572 120.679 438.54 119.415 438.784C118.152 439.028 116.601 438.142 116.683 436.858C116.789 435.166 119.247 434.701 119.991 433.173Z" fill="#8380FF"/>
<path d="M124.099 421.036C125.243 420.208 126.635 419.73 128.065 419.584L127.86 419.586C130.025 419.129 132.379 419.381 134.302 420.434C136.225 421.487 137.669 423.365 137.976 425.458C138.283 427.551 137.378 429.805 135.583 431.047C134.386 431.875 132.901 432.228 131.439 432.445C128.735 432.847 125.723 432.768 123.589 431.136C122 429.921 121.13 427.929 121.257 425.992C121.386 424.054 122.477 422.211 124.099 421.036Z" fill="white"/>
<path d="M130.373 420.873C130.373 420.873 133.543 421.529 133.455 424.611C133.367 427.693 132.999 431.163 130.021 431.083C127.331 431.011 126.853 427.48 127.292 423.951C127.709 420.596 129.642 420.849 130.373 420.873Z" fill="#A0D2F4"/>
<path d="M113.905 405.983C122.621 403.082 132.161 402.704 141.08 404.907C133.431 408.026 124.73 408.493 116.791 406.208" fill="#421B36"/>
<path d="M106.005 166.305C105.194 166.589 77.25 185.112 94.305 209.38C111.36 233.648 129.83 217.985 130.427 217.867C131.023 217.749 132.991 222.07 134.78 221.717C136.569 221.364 150.086 212.626 149.401 210.407C148.715 208.188 145.908 205.892 145.908 205.892C145.908 205.892 163.479 190.588 144.696 168.338C128.266 148.878 106.005 166.305 106.005 166.305Z" fill="#8380FF"/>
<path d="M135.976 216.956C132.261 212.016 128.675 206.937 124.79 202.129C122.048 198.735 117.742 195.413 113.135 197.276C109.348 198.807 108.61 203.32 110.411 206.654C112.476 210.474 117.064 211.549 121.098 211.206C130.133 210.438 138.269 203.592 141.215 195.126C142.593 191.168 143.321 185.798 140.125 182.485C137.52 179.785 132.935 180.045 130.347 182.641C126.587 186.413 129.371 192.091 131.382 195.969C134.508 201.998 138.227 207.694 142.465 212.999C143.355 214.113 145.112 212.759 144.219 211.642C141.34 208.038 138.688 204.262 136.317 200.304C134.295 196.928 131.798 193.111 130.928 189.216C130.128 185.636 132.472 181.981 136.492 182.878C140.673 183.811 140.467 189.32 139.683 192.538C137.973 199.558 132.441 205.472 125.685 207.918C122.346 209.127 118.153 209.748 114.877 208.027C112.092 206.563 109.954 201.727 113.352 199.634C118.045 196.743 122.424 202.63 124.818 205.811C127.954 209.977 131.087 214.146 134.221 218.313C135.079 219.454 136.834 218.097 135.976 216.956Z" fill="#421B36"/>
<path d="M130.393 222.612C130.393 222.612 136.529 229.019 138.328 230.2C140.127 231.382 144.557 231.959 147.786 230.033C151.016 228.106 154.154 225.107 154.154 225.107C154.154 225.107 157.523 221.071 155.239 216.403C152.956 211.735 150.505 207.455 150.505 207.455C148.619 207.454 129.105 221.284 130.393 222.612Z" fill="#421B36"/>
<path d="M134.325 227.028C141.365 223.159 147.768 218.256 153.357 212.488C154.346 211.467 152.565 210.143 151.582 211.157C146.293 216.615 140.143 221.315 133.482 224.975C132.244 225.657 133.076 227.715 134.325 227.028Z" fill="#8380FF"/>
<path d="M139.072 230.958C145.787 228.073 151.706 223.538 156.244 217.81C157.13 216.692 155.357 215.359 154.469 216.479C150.176 221.897 144.581 226.177 138.229 228.905C136.918 229.47 137.76 231.522 139.072 230.958Z" fill="#8380FF"/>
<path d="M275.794 131.21C275.794 131.21 296.426 191.531 318.393 206.992L403.876 162.319C403.876 162.319 353.046 102.771 355.213 101.897C357.38 101.022 275.794 131.21 275.794 131.21Z" fill="white"/>
<path d="M318.341 207.794L317.998 207.553C296.101 192.142 275.99 133.903 275.145 131.432L274.929 130.799L275.557 130.567C275.557 130.567 295.417 123.219 315.28 115.878C325.21 112.207 335.144 108.539 342.595 105.792C346.32 104.418 349.426 103.276 351.6 102.477C353.211 101.886 354.181 101.53 354.781 101.356L354.876 101.306C354.857 101.317 354.84 101.331 354.822 101.345C355.695 101.096 355.75 101.253 355.896 101.632L356.14 102.262L355.958 102.336C358.128 106.92 385.76 140.04 404.398 161.875L404.958 162.529L318.341 207.794ZM276.663 131.62C278.932 138.06 298.237 191.52 318.449 206.189L402.796 162.109C388.593 145.464 358.178 109.488 354.786 102.771C347.511 105.409 283.742 129.001 276.663 131.62ZM355.472 102.532L355.471 102.533L355.472 102.532Z" fill="#421B36"/>
<path d="M276.144 129.345C276.144 129.345 299.927 185.398 321.933 200.802L407.301 155.909C407.301 155.909 356.319 96.492 358.483 95.612C360.648 94.732 276.144 129.345 276.144 129.345Z" fill="white"/>
<path d="M321.882 201.604L321.539 201.364C312.327 194.914 301.776 180.871 290.184 159.625C281.571 143.839 275.572 129.753 275.512 129.613L275.241 128.973L275.884 128.71C276.695 128.378 356.256 95.79 358.221 94.979L358.225 94.978C358.233 94.975 358.24 94.972 358.248 94.969C358.252 94.968 358.255 94.966 358.256 94.966C358.73 94.789 359.057 95.088 359.16 95.338C359.252 95.566 359.313 95.712 359.156 95.886C360.686 99.766 388.883 133.394 407.821 155.465L408.381 156.118L321.882 201.604ZM277.051 129.715C279.753 135.927 301.744 185.45 321.987 199.999L406.22 155.704C391.987 139.107 361.513 103.248 358.067 96.503C357.459 96.775 356.559 97.144 355.247 97.682L277.051 129.715ZM358.752 96.171L358.776 96.234C358.902 96.183 358.986 96.089 359.039 95.991C358.966 96.046 358.871 96.105 358.752 96.171Z" fill="#421B36"/>
<path d="M293.099 150.242C296.831 157.894 301.926 164.853 307.12 171.564C312.433 178.429 318.063 185.036 323.609 191.712C324.315 192.562 325.522 191.343 324.821 190.5C319.396 183.969 313.887 177.507 308.68 170.8C303.451 164.065 298.329 157.064 294.58 149.376C294.096 148.385 292.617 149.253 293.099 150.242Z" fill="#421B36"/>
<path d="M327.011 191.652C350.392 178.941 374.012 166.673 397.858 154.854C398.395 154.588 398.356 153.901 398.032 153.507C388.87 142.393 379.707 131.28 370.545 120.166C369.234 118.576 367.924 116.987 366.613 115.397C365.911 114.545 364.704 115.764 365.401 116.609C374.563 127.723 383.726 138.837 392.888 149.95C394.199 151.54 395.509 153.129 396.82 154.719C396.878 154.27 396.936 153.821 396.994 153.372C373.149 165.19 349.529 177.459 326.148 190.17C325.176 190.699 326.041 192.18 327.011 191.652Z" fill="#421B36"/>
<path d="M301.546 161.733C325.643 149.461 350.145 137.997 375.008 127.361C376.02 126.928 375.147 125.451 374.143 125.88C349.281 136.516 324.778 147.981 300.681 160.252C299.697 160.753 300.563 162.233 301.546 161.733Z" fill="#421B36"/>
<path d="M311.73 175.752C336.272 164.038 361.205 153.055 384.875 139.61C385.834 139.065 384.971 137.583 384.009 138.129C360.339 151.573 335.406 162.557 310.864 174.27C309.869 174.747 310.738 176.226 311.73 175.752Z" fill="#421B36"/>
<path d="M306.238 143.977C316.644 157.247 327.509 170.15 337.915 183.42C338.595 184.288 339.801 183.067 339.127 182.208C328.721 168.938 317.856 156.035 307.45 142.765C306.77 141.896 305.564 143.117 306.238 143.977Z" fill="#421B36"/>
<path d="M321.943 135.631C332.034 149.722 342.892 163.321 354.54 176.158C355.283 176.977 356.493 175.762 355.753 174.946C344.203 162.216 333.431 148.739 323.424 134.766C322.786 133.876 321.298 134.732 321.943 135.631Z" fill="#421B36"/>
<path d="M339.388 129.272C348.933 142.622 358.521 155.988 369.556 168.166C370.299 168.986 371.508 167.77 370.768 166.954C359.83 154.883 350.33 141.639 340.868 128.407C340.233 127.516 338.745 128.372 339.388 129.272Z" fill="#421B36"/>
<path d="M354.405 121.911C363.95 135.261 373.538 148.627 384.573 160.805C385.315 161.625 386.525 160.409 385.785 159.592C374.847 147.521 365.346 134.277 355.885 121.045C355.249 120.156 353.762 121.011 354.405 121.911Z" fill="#421B36"/>
<path d="M283.212 134.296C283.212 134.296 290.099 148.072 292.502 148.872C294.905 149.672 366.736 116.356 367.019 115.235C367.302 114.114 358.263 102.515 356.822 102.675C355.38 102.836 281.996 131.936 283.212 134.296Z" fill="#8380FF"/>
<path d="M298.521 137.439C299.386 134.363 301.803 131.923 304.847 130.947C306.319 130.475 307.97 130.316 309.48 130.71C310.343 130.935 311.256 131.315 311.827 132.029C312.392 132.735 312.63 134.76 311.19 134.832C310.622 134.86 310.238 134.044 310.196 133.603C310.166 133.293 310.3 132.897 310.391 132.6C310.615 131.87 311.04 131.227 311.48 130.612C312.516 129.162 313.793 127.836 315.342 126.934C318.206 125.268 322.298 125.471 324.072 128.6C324.51 129.372 325.624 128.986 325.67 128.167C326.1 120.485 335.145 116.558 341.028 121.548C341.402 121.866 341.864 121.87 342.241 121.548C343.976 120.062 345.712 118.576 347.447 117.09C348.287 116.371 347.069 115.163 346.235 115.877C344.5 117.363 342.764 118.849 341.029 120.335C341.433 120.335 341.837 120.335 342.242 120.335C339.038 117.617 334.509 116.722 330.589 118.403C326.68 120.079 324.191 123.978 323.957 128.167C324.49 128.023 325.022 127.879 325.555 127.734C323.638 124.353 319.322 123.402 315.848 124.784C312.643 126.06 308.535 129.876 308.484 133.602C308.433 137.305 313.169 137.3 313.986 133.966C314.993 129.858 309.246 128.502 306.335 128.871C301.897 129.433 298.08 132.68 296.871 136.982C296.568 138.047 298.223 138.501 298.521 137.439Z" fill="#421B36"/>
<path d="M352.367 113.898C353.47 113.898 353.472 112.183 352.367 112.183C351.264 112.183 351.262 113.898 352.367 113.898Z" fill="#421B36"/>
<path d="M310.991 167.51C311.895 164.83 312.974 162.218 314.228 159.684C314.433 159.269 314.339 158.756 313.92 158.511C313.541 158.29 312.953 158.402 312.747 158.819C311.428 161.484 310.287 164.237 309.337 167.055C308.985 168.102 310.64 168.552 310.991 167.51Z" fill="#421B36"/>
<path d="M314.458 167.717C314.832 166.905 315.206 166.094 315.579 165.283C315.678 165.068 315.73 164.858 315.665 164.622C315.61 164.423 315.457 164.208 315.271 164.11C315.072 164.005 314.831 163.952 314.61 164.024C314.409 164.089 314.189 164.219 314.098 164.418C313.724 165.229 313.35 166.041 312.977 166.852C312.878 167.067 312.826 167.277 312.891 167.513C312.946 167.712 313.099 167.927 313.285 168.025C313.484 168.13 313.725 168.183 313.946 168.111C314.146 168.046 314.366 167.916 314.458 167.717Z" fill="#421B36"/>
<path d="M340.941 177.531C340.963 174.516 341.187 171.503 341.635 168.52C341.704 168.063 341.52 167.598 341.036 167.465C340.631 167.354 340.051 167.603 339.981 168.064C339.51 171.2 339.249 174.359 339.226 177.531C339.218 178.635 340.933 178.636 340.941 177.531Z" fill="#421B36"/>
<path d="M336.592 172.76C336.626 171.88 336.66 171 336.694 170.12C336.711 169.671 336.287 169.242 335.837 169.263C335.358 169.284 334.998 169.64 334.98 170.12C334.946 171 334.912 171.88 334.878 172.76C334.861 173.209 335.285 173.638 335.735 173.617C336.214 173.596 336.573 173.24 336.592 172.76Z" fill="#421B36"/>
<path d="M328.559 136.889C330.34 138.597 332.121 140.306 333.902 142.014C334.478 142.567 335.651 142.022 335.335 141.18C334.731 139.571 334.126 137.961 333.522 136.351C333.17 136.703 332.819 137.054 332.467 137.406C333.509 137.78 334.551 138.153 335.593 138.527C336.043 138.688 336.514 138.342 336.648 137.928C336.842 137.33 336.691 136.785 336.638 136.184C336.633 136.132 336.621 135.798 336.655 135.807C336.661 135.808 336.556 135.884 336.533 135.889C336.36 135.922 336.211 135.687 336.166 135.574C336.335 136.005 336.74 136.305 337.221 136.173C337.631 136.06 337.99 135.552 337.82 135.118C337.635 134.649 337.319 134.314 336.812 134.213C336.313 134.114 335.764 134.265 335.407 134.635C335.043 135.013 334.901 135.555 334.917 136.068C334.931 136.528 335.141 137.023 334.995 137.472C335.347 137.272 335.698 137.073 336.05 136.873C335.008 136.499 333.966 136.126 332.924 135.752C332.335 135.541 331.646 136.211 331.869 136.807C332.473 138.416 333.078 140.026 333.682 141.636C334.16 141.358 334.637 141.08 335.115 140.802C333.334 139.094 331.553 137.385 329.772 135.677C328.975 134.912 327.761 136.123 328.559 136.889Z" fill="#421B36"/>
<path d="M281.84 125.656C280.991 125.044 280.862 123.711 281.288 122.823C281.841 121.669 283.171 121.019 284.406 120.948C285.793 120.868 287.227 121.388 288.125 122.475C288.927 123.446 289.2 124.943 288.663 126.102C288.102 127.313 286.68 128.06 285.374 127.72C284.305 127.442 283.849 129.095 284.918 129.373C286.776 129.856 288.731 129.04 289.83 127.496C290.968 125.898 290.864 123.601 289.859 121.968C287.779 118.586 282.053 118.164 279.925 121.745C278.867 123.526 279.29 125.919 280.976 127.136C281.352 127.407 281.931 127.201 282.149 126.828C282.4 126.397 282.216 125.928 281.84 125.656Z" fill="#421B36"/>
<path d="M295.474 120.105C294.625 119.493 294.496 118.16 294.922 117.272C295.475 116.118 296.805 115.468 298.04 115.397C299.427 115.317 300.861 115.837 301.759 116.924C302.561 117.895 302.834 119.392 302.297 120.551C301.736 121.762 300.314 122.509 299.008 122.169C297.939 121.891 297.483 123.544 298.552 123.822C300.41 124.305 302.365 123.489 303.464 121.946C304.602 120.348 304.498 118.051 303.493 116.418C301.413 113.036 295.687 112.614 293.559 116.195C292.501 117.976 292.924 120.369 294.61 121.586C294.986 121.857 295.565 121.651 295.783 121.278C296.034 120.846 295.85 120.377 295.474 120.105Z" fill="#421B36"/>
<path d="M309.108 114.554C308.259 113.942 308.13 112.609 308.556 111.721C309.109 110.567 310.439 109.917 311.674 109.846C313.061 109.766 314.495 110.286 315.393 111.373C316.195 112.344 316.468 113.841 315.931 115C315.37 116.211 313.948 116.958 312.642 116.618C311.573 116.34 311.117 117.993 312.186 118.271C314.044 118.754 315.999 117.938 317.098 116.394C318.236 114.796 318.132 112.499 317.127 110.866C315.047 107.484 309.321 107.062 307.193 110.643C306.135 112.424 306.558 114.817 308.244 116.034C308.62 116.305 309.199 116.099 309.417 115.726C309.668 115.295 309.484 114.826 309.108 114.554Z" fill="#421B36"/>
<path d="M322.742 109.003C321.894 108.391 321.764 107.058 322.19 106.17C322.743 105.016 324.072 104.366 325.308 104.295C326.695 104.215 328.129 104.735 329.027 105.822C329.829 106.793 330.102 108.29 329.564 109.449C329.003 110.661 327.582 111.407 326.275 111.067C325.206 110.789 324.75 112.442 325.819 112.72C327.677 113.203 329.632 112.387 330.73 110.843C331.868 109.245 331.764 106.948 330.759 105.315C328.679 101.934 322.953 101.511 320.825 105.092C319.767 106.873 320.19 109.266 321.876 110.483C322.252 110.754 322.831 110.548 323.049 110.175C323.302 109.744 323.118 109.275 322.742 109.003Z" fill="#421B36"/>
<path d="M336.376 103.452C335.528 102.84 335.398 101.507 335.824 100.619C336.377 99.465 337.707 98.815 338.942 98.744C340.329 98.664 341.763 99.184 342.661 100.271C343.463 101.242 343.736 102.739 343.198 103.898C342.637 105.11 341.216 105.856 339.909 105.516C338.84 105.238 338.384 106.891 339.453 107.169C341.311 107.652 343.266 106.836 344.365 105.293C345.503 103.695 345.399 101.398 344.394 99.765C342.314 96.383 336.588 95.961 334.46 99.542C333.402 101.323 333.825 103.716 335.511 104.933C335.887 105.204 336.466 104.998 336.684 104.625C336.936 104.193 336.752 103.724 336.376 103.452Z" fill="#421B36"/>
<path d="M350.01 97.901C349.162 97.289 349.032 95.956 349.458 95.068C350.011 93.914 351.341 93.264 352.576 93.193C353.963 93.113 355.397 93.633 356.295 94.72C357.097 95.691 357.37 97.188 356.832 98.347C356.271 99.558 354.849 100.305 353.543 99.965C352.474 99.687 352.018 101.34 353.087 101.619C354.945 102.102 356.9 101.286 357.999 99.742C359.137 98.144 359.033 95.847 358.028 94.214C355.948 90.832 350.222 90.41 348.094 93.991C347.036 95.772 347.459 98.165 349.145 99.382C349.521 99.653 350.1 99.447 350.318 99.074C350.57 98.642 350.386 98.173 350.01 97.901Z" fill="#421B36"/>
<path d="M378.29 171.408C377.546 172.142 407.742 196.554 413.786 207.009C419.938 217.652 382.451 277.375 384.65 280.124C386.849 282.873 419.833 295.517 425.88 292.768C431.927 290.019 456.665 223.502 452.817 201.512C448.969 179.523 399.493 152.036 399.493 152.036L378.29 171.408Z" fill="#FFAE7A"/>
<path d="M389.143 266.838C384.195 266.838 346.264 328.43 352.861 336.115C359.458 343.8 410.889 363.919 410.889 363.919C410.889 363.919 437.52 288.827 437.52 282.23C437.52 275.633 389.143 266.838 389.143 266.838Z" fill="#8380FF"/>
<path d="M353.437 302.233L353.907 243.778C326.468 235.307 312.873 255.124 312.873 255.124C306.927 253.785 300.981 252.446 295.034 251.106C294.31 250.943 293.52 250.786 292.841 251.117C291.534 251.754 291.537 253.625 291.851 255.038C292.911 259.811 295.184 264.273 298.392 267.881L297.203 270.856C292.475 279.047 291.484 289.621 295.537 297.977C301.133 309.514 314.774 313.743 323.825 315.498L335.231 336.504L365.91 327.107L353.437 302.233Z" fill="#FFAE7A"/>
<path d="M389.111 280.377C389.824 274.099 387.619 266.073 384.557 260.546C380.463 253.155 376.435 249.853 371.026 246.587C361.95 241.108 348.891 237.811 338.996 241.616C331.683 258.26 342.019 276.317 344.748 294.291C345.564 299.665 338.153 310.398 350.001 326.574L349.884 322.098C358.48 318.305 384.09 324.623 389.111 280.377Z" fill="#421B36"/>
<path d="M320.021 261.258C319.404 262.349 319.681 263.674 320.641 264.217C321.601 264.76 322.879 264.315 323.496 263.223C324.113 262.132 323.835 260.807 322.876 260.264C321.916 259.721 320.638 260.166 320.021 261.258Z" fill="#421B36"/>
<path d="M338.629 257.294C336.603 252.464 332.345 247.508 326.55 247.668C325.286 247.703 324.985 249.589 326.123 250.074C328.327 251.013 330.498 251.422 332.495 252.849C334.357 254.179 336.253 255.947 337.397 257.918C337.792 258.598 338.934 258.02 338.629 257.294Z" fill="#421B36"/>
<g opacity="0.2">
<path d="M331.423 280.598C330.505 282.222 326.995 281.975 323.585 280.046C320.174 278.118 318.154 275.237 319.072 273.614C319.99 271.99 323.5 272.237 326.91 274.166C330.321 276.094 332.341 278.974 331.423 280.598Z" fill="#421B36"/>
</g>
<path d="M295.225 279.457C297.567 280.995 299.944 281.845 302.791 281.734C305.132 281.643 308.559 281.02 309.899 278.905C310.254 278.346 309.646 277.519 309.018 277.62C307.978 277.787 307.184 278.369 306.213 278.763C305.157 279.191 304.05 279.461 302.916 279.568C300.59 279.788 298.026 279.418 295.913 278.401C295.29 278.101 294.611 279.053 295.225 279.457Z" fill="#421B36"/>
<path d="M128.783 256.718C128.783 256.718 63.982 277.98 56.637 281.185C49.293 284.391 78.517 376.901 88.623 377.926C98.729 378.951 168.432 353.222 162.315 348.589C156.199 343.957 128.783 256.718 128.783 256.718Z" fill="white"/>
<path d="M128.555 255.891C118.125 259.313 107.705 262.764 97.292 266.236C84.053 270.651 70.628 274.786 57.623 279.864C56.433 280.329 55.493 280.666 55.025 281.945C54.522 283.318 54.573 284.925 54.637 286.361C54.885 291.9 56.149 297.437 57.403 302.817C61.032 318.384 65.921 333.734 71.577 348.678C74.04 355.187 76.659 361.674 79.806 367.888C81.537 371.306 83.575 375.897 86.89 378.116C88.059 378.898 89.324 378.868 90.679 378.732C93.057 378.492 95.408 377.955 97.725 377.386C104.843 375.639 111.837 373.352 118.76 370.957C126.648 368.229 134.465 365.279 142.158 362.039C147.984 359.586 153.951 357.081 159.316 353.702C161.3 352.453 164.995 350.254 162.684 347.771C161.812 346.834 161.106 345.406 160.483 344.162C159.355 341.909 158.363 339.587 157.403 337.259C151.477 322.887 146.545 308.083 141.606 293.35C137.709 281.726 133.911 270.068 130.209 258.381C130.01 257.751 129.81 257.121 129.612 256.491C129.282 255.442 127.626 255.89 127.959 256.947C130.561 265.225 133.238 273.481 135.946 281.725C140.904 296.819 145.949 311.897 151.497 326.785C153.592 332.407 155.716 338.05 158.26 343.488C158.979 345.024 159.714 346.601 160.686 347.998C160.994 348.44 161.324 348.828 161.711 349.197C161.938 349.413 161.879 349.275 161.819 349.374C161.116 350.533 159.731 351.412 158.53 352.173C156.261 353.61 153.854 354.834 151.441 356.007C144.623 359.32 137.578 362.171 130.499 364.871C122.96 367.747 115.339 370.429 107.629 372.813C102.246 374.478 96.677 376.298 91.06 376.976C89.657 377.145 88.682 377.296 87.717 376.608C86.468 375.718 85.495 374.252 84.653 372.969C81.543 368.227 79.224 362.932 77.021 357.725C70.878 343.203 65.919 328.104 61.749 312.905C59.975 306.437 58.325 299.908 57.191 293.293C56.798 291.001 56.458 288.688 56.354 286.363C56.297 285.1 56.22 283.478 56.683 282.393C56.857 281.984 56.791 282.069 57.227 281.861C57.701 281.635 58.54 281.341 59.149 281.113C61.458 280.246 63.786 279.429 66.114 278.614C73.147 276.154 80.208 273.773 87.271 271.399C100.391 266.99 113.53 262.638 126.679 258.314C127.457 258.058 128.235 257.802 129.013 257.547C130.055 257.202 129.608 255.546 128.555 255.891Z" fill="#421B36"/>
<path d="M128.382 255.597C128.382 255.597 65.742 274.789 58.41 277.874C51.078 280.959 80.58 370.736 90.686 371.76C100.792 372.785 170.393 348.057 164.264 343.547C158.135 339.038 128.382 255.597 128.382 255.597Z" fill="white"/>
<path d="M128.154 254.77C117.803 257.942 107.462 261.145 97.128 264.373C89.326 266.811 81.528 269.261 73.748 271.767C68.777 273.368 63.74 274.883 58.868 276.772C56.011 277.88 56.278 281.065 56.478 283.706C56.896 289.226 58.202 294.705 59.538 300.062C63.337 315.291 68.335 330.303 74.152 344.877C76.626 351.075 79.246 357.259 82.431 363.13C84.075 366.16 86.146 370.518 89.366 372.213C90.609 372.867 92.104 372.659 93.443 372.495C95.878 372.196 98.282 371.657 100.664 371.078C107.673 369.375 114.573 367.201 121.411 364.914C129.132 362.331 136.791 359.544 144.332 356.475C150.043 354.151 155.877 351.778 161.169 348.582C162.513 347.77 164.139 346.841 165.037 345.503C165.791 344.379 165.363 343.46 164.724 342.823C162.27 340.377 160.792 336.309 159.341 333.159C153.016 319.425 147.691 305.204 142.346 291.068C138.088 279.809 133.928 268.512 129.859 257.183C129.642 256.579 129.425 255.975 129.209 255.37C128.841 254.338 127.184 254.783 127.556 255.826C130.406 263.817 133.328 271.783 136.279 279.737C141.666 294.254 147.136 308.754 153.092 323.048C155.319 328.392 157.564 333.759 160.222 338.906C160.973 340.361 161.745 341.845 162.74 343.152C163.028 343.53 163.589 344.095 163.737 344.218C163.807 344.276 163.915 344.162 163.693 344.431C161.314 347.318 156.759 349.116 153.344 350.715C146.711 353.82 139.871 356.492 133.002 359.025C125.632 361.743 118.188 364.274 110.666 366.538C105.152 368.198 99.514 369.925 93.796 370.732C93.011 370.843 92.215 370.935 91.421 370.934C90.797 370.933 90.621 370.929 90.19 370.712C88.956 370.089 88.003 368.76 87.214 367.666C84.075 363.312 81.782 358.301 79.597 353.423C73.355 339.484 68.354 324.914 64.084 310.26C62.209 303.825 60.467 297.328 59.208 290.741C58.764 288.415 58.369 286.07 58.19 283.707C58.084 282.305 57.93 280.702 58.355 279.346C58.473 278.97 58.647 278.724 58.71 278.681C58.916 278.538 59.811 278.24 60.288 278.066C62.43 277.284 64.595 276.566 66.759 275.849C73.604 273.58 80.48 271.404 87.357 269.236C100.322 265.148 113.307 261.125 126.301 257.133C127.069 256.897 127.838 256.661 128.606 256.426C129.662 256.102 129.213 254.446 128.154 254.77Z" fill="#421B36"/>
<path d="M128.382 255.597C128.382 255.597 66.839 273.398 59.856 277.207C52.872 281.016 87.614 365.089 97.772 365.089C107.93 365.089 178.348 335.734 171.796 331.865C165.243 327.996 128.382 255.597 128.382 255.597Z" fill="white"/>
<path d="M128.154 254.77C118.165 257.66 108.195 260.616 98.241 263.623C90.617 265.926 83 268.258 75.42 270.703C70.422 272.315 65.298 273.83 60.486 275.957C59.386 276.443 58.616 276.92 58.283 278.141C57.893 279.569 58.085 281.17 58.271 282.611C58.952 287.893 60.587 293.078 62.228 298.126C66.919 312.551 72.82 326.672 79.492 340.289C82.367 346.157 85.397 352 88.985 357.47C90.815 360.259 93.263 364.484 96.603 365.71C97.855 366.169 99.253 365.848 100.52 365.598C102.737 365.159 104.915 364.514 107.072 363.847C113.667 361.808 120.142 359.369 126.563 356.84C139.963 351.563 153.616 346.023 166.071 338.732C167.859 337.685 169.661 336.59 171.246 335.247C172.031 334.582 173.125 333.622 173.081 332.484C173.039 331.379 171.884 330.921 171.263 330.253C170.002 328.898 168.96 327.325 167.934 325.792C160.06 314.03 153.461 301.337 146.774 288.881C141.084 278.283 135.504 267.626 130.019 256.92C129.72 256.336 129.42 255.751 129.122 255.166C128.621 254.182 127.141 255.049 127.641 256.031C131.506 263.621 135.446 271.174 139.42 278.708C146.394 291.929 153.43 305.145 161.061 318.002C163.57 322.229 166.081 326.566 169.158 330.414C169.576 330.937 170.006 331.464 170.496 331.922C170.698 332.111 170.909 332.283 171.129 332.451C171.351 332.62 171.424 332.632 171.398 332.62C171.271 332.559 171.528 332.423 171.206 332.843C170.936 333.195 170.461 333.672 170.032 334.035C166.325 337.166 161.6 339.33 157.295 341.482C150.759 344.75 144.08 347.735 137.354 350.588C130.374 353.549 123.325 356.36 116.196 358.943C111.101 360.789 105.923 362.681 100.615 363.83C99.48 364.076 98.041 364.469 97.101 364.075C95.957 363.596 94.835 362.363 93.972 361.369C90.534 357.414 87.924 352.668 85.431 348.088C78.35 335.077 72.443 321.35 67.301 307.467C65.073 301.453 62.97 295.364 61.36 289.152C60.551 286.029 59.074 281.652 59.971 278.472C60.076 278.099 60.144 278.041 60.364 277.908C60.889 277.589 61.499 277.371 62.066 277.14C64.205 276.267 66.397 275.516 68.583 274.769C75.28 272.482 82.039 270.379 88.801 268.295C101.296 264.445 113.832 260.725 126.386 257.071C127.127 256.855 127.868 256.64 128.609 256.425C129.668 256.118 129.218 254.463 128.154 254.77Z" fill="#421B36"/>
<path d="M64.968 274.971C64.631 273.198 65.564 271.56 66.938 270.492C68.336 269.405 70.059 268.997 71.805 269.271C73.851 269.592 75.731 270.759 76.732 272.598C77.657 274.297 77.808 276.506 76.885 278.24C75.826 280.23 73.632 281.397 71.397 281.166C70.301 281.052 70.308 282.768 71.397 282.881C73.926 283.143 76.409 281.883 77.891 279.857C79.387 277.812 79.575 274.992 78.646 272.672C76.772 267.988 70.576 265.925 66.355 268.81C64.149 270.317 62.804 272.731 63.315 275.427C63.52 276.51 65.173 276.052 64.968 274.971Z" fill="#421B36"/>
<path d="M76.524 270.489C76.187 268.716 77.12 267.078 78.494 266.01C79.892 264.923 81.615 264.515 83.361 264.789C85.407 265.11 87.287 266.277 88.288 268.116C89.213 269.815 89.364 272.024 88.441 273.758C87.382 275.748 85.188 276.915 82.953 276.684C81.857 276.57 81.864 278.286 82.953 278.399C85.482 278.661 87.965 277.401 89.447 275.375C90.943 273.33 91.131 270.51 90.202 268.19C88.328 263.506 82.132 261.443 77.911 264.328C75.706 265.835 74.36 268.249 74.872 270.945C75.076 272.027 76.729 271.569 76.524 270.489Z" fill="#421B36"/>
<path d="M88.948 266.11C88.612 264.337 89.544 262.699 90.918 261.631C92.316 260.544 94.039 260.136 95.785 260.41C97.831 260.731 99.711 261.898 100.712 263.737C101.637 265.436 101.788 267.645 100.865 269.379C99.806 271.369 97.612 272.536 95.377 272.305C94.281 272.191 94.289 273.907 95.377 274.02C97.906 274.282 100.389 273.022 101.871 270.996C103.367 268.951 103.555 266.131 102.626 263.811C100.752 259.127 94.556 257.064 90.335 259.949C88.129 261.456 86.784 263.87 87.296 266.566C87.5 267.649 89.153 267.19 88.948 266.11Z" fill="#421B36"/>
<path d="M100.604 262.174C100.267 260.401 101.2 258.763 102.574 257.695C103.972 256.608 105.695 256.2 107.441 256.474C109.487 256.795 111.367 257.963 112.368 259.801C113.293 261.5 113.444 263.709 112.521 265.443C111.462 267.433 109.268 268.6 107.033 268.369C105.937 268.255 105.944 269.971 107.033 270.084C109.562 270.346 112.045 269.086 113.527 267.06C115.023 265.015 115.211 262.195 114.282 259.875C112.408 255.192 106.212 253.128 101.991 256.014C99.785 257.521 98.44 259.935 98.952 262.631C99.156 263.713 100.809 263.254 100.604 262.174Z" fill="#421B36"/>
<path d="M112.759 258.122C112.422 256.349 113.355 254.711 114.729 253.643C116.127 252.556 117.85 252.148 119.596 252.422C121.642 252.743 123.522 253.91 124.522 255.749C125.447 257.448 125.598 259.657 124.675 261.391C123.616 263.381 121.422 264.548 119.187 264.317C118.091 264.203 118.098 265.919 119.187 266.032C121.716 266.294 124.199 265.034 125.681 263.008C127.177 260.963 127.365 258.143 126.436 255.823C124.562 251.139 118.366 249.076 114.145 251.962C111.94 253.469 110.594 255.883 111.106 258.579C111.311 259.661 112.964 259.202 112.759 258.122Z" fill="#421B36"/>
<path d="M69.761 296.484C69.912 296.757 72.787 306.528 74.603 307.3C76.419 308.071 87.275 301.134 87.275 301.134C87.275 301.134 82.559 291.814 81.953 291.382C81.348 290.95 69.329 295.706 69.761 296.484Z" fill="#A0D2F4"/>
<path d="M74.865 297.948L73.314 300.176C73.314 300.176 78.391 302.816 79.713 302.814C81.035 302.811 82.274 301.655 82.274 301.655C82.274 301.655 83.697 291.249 83.837 290.247C83.997 289.1 80.788 289.583 80.788 289.583C80.788 289.583 79.882 300.129 79.634 299.866L74.865 297.948Z" fill="#421B36"/>
<path d="M78.053 313.125C78.204 313.397 81.08 323.169 82.895 323.941C84.711 324.712 95.567 317.775 95.567 317.775C95.567 317.775 90.851 308.455 90.245 308.023C89.64 307.591 77.62 312.347 78.053 313.125Z" fill="#A0D2F4"/>
<path d="M83.156 314.589L81.605 316.817C81.605 316.817 86.682 319.457 88.003 319.455C89.325 319.452 90.564 318.296 90.564 318.296C90.564 318.296 91.987 307.891 92.127 306.888C92.287 305.741 89.078 306.224 89.078 306.224C89.078 306.224 88.172 316.77 87.924 316.507L83.156 314.589Z" fill="#421B36"/>
<path d="M86.816 329.765C86.967 330.038 89.843 339.809 91.658 340.581C93.474 341.353 104.33 334.415 104.33 334.415C104.33 334.415 99.614 325.095 99.008 324.663C98.403 324.231 86.383 328.987 86.816 329.765Z" fill="#A0D2F4"/>
<path d="M91.919 331.229L90.368 333.457C90.368 333.457 95.445 336.097 96.766 336.095C98.088 336.092 99.327 334.936 99.327 334.936C99.327 334.936 100.75 324.531 100.89 323.528C101.05 322.381 97.841 322.864 97.841 322.864C97.841 322.864 96.935 333.41 96.687 333.147L91.919 331.229Z" fill="#421B36"/>
<path d="M95.817 345.47C95.968 345.742 98.843 355.514 100.659 356.286C102.475 357.058 113.331 350.12 113.331 350.12C113.331 350.12 108.615 340.8 108.009 340.368C107.404 339.935 95.384 344.691 95.817 345.47Z" fill="#A0D2F4"/>
<path d="M100.92 346.933L99.369 349.161C99.369 349.161 104.446 351.801 105.767 351.799C107.089 351.796 108.328 350.64 108.328 350.64C108.328 350.64 109.751 340.235 109.891 339.232C110.051 338.085 106.842 338.568 106.842 338.568C106.842 338.568 105.936 349.114 105.688 348.851L100.92 346.933Z" fill="#421B36"/>
<path d="M94.344 294.588C94.177 293.134 95.037 291.565 96.576 291.267C97.945 291.002 99.302 291.877 100.681 291.839C103.471 291.761 103.383 289.197 104.677 287.452C105.602 286.204 107.671 285.92 109.069 285.462C110.754 284.91 112.44 284.357 114.125 283.805C117.496 282.7 120.867 281.596 124.238 280.491C125.282 280.149 124.835 278.493 123.782 278.838C120.037 280.065 116.291 281.293 112.546 282.52C110.673 283.134 108.8 283.746 106.928 284.361C105.586 284.802 104.193 285.214 103.314 286.4C102.606 287.356 102.5 289.118 101.525 289.811C100.245 290.72 98.122 289.386 96.622 289.536C94.177 289.781 92.355 292.193 92.63 294.588C92.754 295.671 94.47 295.684 94.344 294.588Z" fill="#421B36"/>
<path d="M103.056 309.905C102.889 308.451 103.749 306.882 105.287 306.584C106.656 306.319 108.014 307.194 109.392 307.155C112.182 307.077 112.094 304.513 113.388 302.768C114.313 301.52 116.382 301.236 117.78 300.778C119.465 300.226 121.151 299.673 122.836 299.121C126.207 298.016 129.578 296.912 132.949 295.807C133.993 295.465 133.546 293.808 132.493 294.153C128.748 295.38 125.002 296.608 121.257 297.835C119.384 298.449 117.511 299.061 115.639 299.676C114.297 300.117 112.904 300.529 112.025 301.715C111.317 302.671 111.211 304.433 110.236 305.126C108.955 306.035 106.833 304.701 105.332 304.851C102.887 305.096 101.065 307.508 101.34 309.904C101.466 310.988 103.182 311.001 103.056 309.905Z" fill="#421B36"/>
<path d="M111.768 325.221C111.601 323.767 112.461 322.198 113.999 321.9C115.368 321.635 116.725 322.51 118.104 322.472C120.894 322.394 120.806 319.83 122.1 318.085C123.025 316.837 125.094 316.553 126.492 316.095C128.178 315.543 129.863 314.99 131.548 314.438C134.919 313.333 138.29 312.229 141.661 311.124C142.705 310.782 142.258 309.126 141.205 309.471C137.46 310.698 133.714 311.926 129.969 313.153C128.096 313.767 126.223 314.379 124.351 314.994C123.009 315.435 121.616 315.847 120.737 317.033C120.029 317.988 119.923 319.751 118.948 320.444C117.667 321.354 115.545 320.019 114.044 320.169C111.599 320.414 109.777 322.826 110.052 325.222C110.178 326.305 111.894 326.318 111.768 325.221Z" fill="#421B36"/>
<path d="M120.48 340.538C120.313 339.083 121.173 337.515 122.712 337.217C124.081 336.952 125.438 337.827 126.817 337.789C129.607 337.711 129.52 335.147 130.813 333.402C131.738 332.154 133.807 331.87 135.205 331.412C136.89 330.86 138.576 330.307 140.261 329.755C143.632 328.65 147.003 327.546 150.374 326.441C151.418 326.099 150.971 324.442 149.918 324.787C146.173 326.014 142.427 327.242 138.682 328.469C136.809 329.083 134.936 329.695 133.064 330.31C131.722 330.751 130.329 331.163 129.45 332.349C128.742 333.305 128.636 335.067 127.661 335.76C126.38 336.669 124.258 335.335 122.758 335.485C120.313 335.73 118.491 338.142 118.766 340.538C118.89 341.622 120.606 341.634 120.48 340.538Z" fill="#421B36"/>
<path d="M191.146 295.342C191.146 295.342 128.722 339.563 125.924 342.212C123.126 344.861 122.783 349.665 122.783 349.665C122.783 349.665 129.569 350.97 132.194 348.797C134.819 346.624 195.938 304.896 196.287 301.604C196.636 298.314 195.181 294.319 191.146 295.342Z" fill="#421B36"/>
<path d="M150.266 352.944C150.889 353.255 147.775 357.303 151.667 365.867C155.559 374.43 168.342 381.749 168.342 381.749L187.167 356.538L177.046 347.339C177.046 347.339 179.911 330.381 179.07 323.829C178.476 319.196 169.106 304.523 159.608 306.547C150.111 308.571 148.709 320.871 148.709 320.871C148.709 320.871 137.565 318.438 138.284 328.094C138.284 328.094 130.683 330.559 136.846 340.01C136.846 340.01 129.039 343.092 133.148 351.515C137.257 359.938 142.921 358.911 145.738 357.37C148.556 355.829 147.323 353.261 147.323 353.261L150.266 352.944Z" fill="#FFAE7A"/>
<path d="M167.222 380.332C168.929 381.755 209.202 425.396 228.267 424.826C247.333 424.257 286.168 406.513 286.168 406.513L266.818 369.233C266.818 369.233 231.762 384.395 228.678 384.969C224.305 385.783 183.238 354.807 184.58 354.151L167.222 380.332Z" fill="#FFAE7A"/>
<path d="M136.961 329.251C145.126 329.851 153.138 331.916 160.571 335.349C161.566 335.809 162.438 334.331 161.436 333.868C153.712 330.301 145.446 328.159 136.961 327.536C135.86 327.456 135.865 329.171 136.961 329.251Z" fill="#421B36"/>
<path d="M136.187 341.037C139.908 340.462 143.787 342.128 147.296 343.164C150.899 344.228 154.501 345.293 158.104 346.357C159.164 346.67 159.617 345.016 158.56 344.703C154.675 343.555 150.79 342.408 146.905 341.26C143.273 340.187 139.573 338.789 135.732 339.383C134.644 339.552 135.105 341.204 136.187 341.037Z" fill="#421B36"/>
<path d="M140.37 347.538C140.327 348.983 140.283 350.428 140.24 351.874C140.227 352.323 140.644 352.752 141.097 352.731C141.573 352.71 141.94 352.354 141.954 351.874C141.997 350.429 142.041 348.984 142.084 347.538C142.098 347.089 141.68 346.66 141.227 346.681C140.751 346.702 140.384 347.057 140.37 347.538Z" fill="#421B36"/>
<path d="M148.387 354.043C146.988 351.334 144.405 349.289 141.455 348.527C141.007 348.411 140.524 348.674 140.4 349.126C140.278 349.568 140.549 350.064 140.999 350.181C143.544 350.839 145.69 352.556 146.906 354.909C147.118 355.32 147.694 355.442 148.079 355.217C148.496 354.971 148.6 354.455 148.387 354.043Z" fill="#421B36"/>
<path d="M147.946 321.949C151.523 322.516 155.075 323.225 158.592 324.091C160.318 324.516 162.035 324.977 163.742 325.474C165.154 325.885 167.956 326.286 168.081 328.162C168.154 329.257 169.869 329.265 169.796 328.162C169.685 326.489 168.551 325.366 167.056 324.741C165.12 323.931 162.988 323.456 160.962 322.924C156.822 321.836 152.629 320.965 148.402 320.295C147.322 320.124 146.857 321.776 147.946 321.949Z" fill="#421B36"/>
<path d="M158.328 322.845C158.89 320.741 159.629 318.689 160.556 316.718C160.753 316.299 160.673 315.793 160.248 315.545C159.876 315.327 159.273 315.432 159.075 315.853C158.085 317.958 157.274 320.142 156.674 322.389C156.555 322.836 156.824 323.32 157.273 323.444C157.719 323.566 158.208 323.294 158.328 322.845Z" fill="#421B36"/>
<path d="M158.42 317.754C159.876 320.439 161.52 323.018 163.339 325.473C163.614 325.844 164.081 326.032 164.512 325.781C164.878 325.567 165.097 324.982 164.82 324.608C163.001 322.154 161.357 319.575 159.901 316.889C159.374 315.918 157.893 316.783 158.42 317.754Z" fill="#421B36"/>
<path d="M394.913 147.571C394.913 147.571 397.077 127.807 390.874 120.449C384.671 113.091 378.467 119.006 378.467 119.006C378.467 119.006 372.552 113.38 365.772 118.285C365.772 118.285 354.519 116.554 353.942 123.334C353.942 123.334 345.286 122.913 339.948 131.924C334.61 140.934 336.197 148.003 340.525 148.725C344.853 149.446 346.873 139.348 350.191 136.174C353.509 133 358.847 137.761 359.28 140.646C359.713 143.531 364.329 151.466 361.444 154.207C358.559 156.948 356.828 152.187 349.037 151.755C341.246 151.323 342.545 157.814 344.853 159.834C347.161 161.854 353.228 167.769 361.732 167.336C370.237 166.903 373.39 166.731 373.39 166.731C373.39 166.731 388.413 181.159 388.777 181.021C398.674 177.266 410.349 159.402 410.349 159.402L394.913 147.571Z" fill="#FFAE7A"/>
<path d="M353.649 124.195C359.401 123.212 365.106 126.144 367.785 131.286C368.295 132.265 369.776 131.399 369.266 130.42C366.209 124.554 359.683 121.433 353.193 122.541C352.107 122.727 352.568 124.38 353.649 124.195Z" fill="#421B36"/>
<path d="M364.951 119.222C369.433 120.091 373.35 123.315 374.939 127.619C375.318 128.645 376.976 128.202 376.592 127.163C374.804 122.317 370.5 118.555 365.407 117.568C364.329 117.359 363.867 119.012 364.951 119.222Z" fill="#421B36"/>
<path d="M377.658 119.694C381.122 121.249 383.682 124.636 384.056 128.444C384.101 128.905 384.418 129.301 384.913 129.301C385.342 129.301 385.816 128.907 385.77 128.444C385.34 124.062 382.566 120.029 378.523 118.214C378.101 118.025 377.601 118.092 377.35 118.522C377.136 118.887 377.234 119.503 377.658 119.694Z" fill="#421B36"/>
<path d="M301.207 406.534C301.207 406.534 299.458 420.406 313.742 424.965C313.742 424.965 313.134 437.122 317.085 442.593C321.036 448.064 400.362 445.936 406.44 437.73C412.519 429.524 399.567 369.321 391.361 361.419C383.155 353.517 376.655 336.825 364.802 335.002C360.014 334.265 352.35 334.421 343.552 335.49C330.57 337.067 315.12 340.631 302.801 346.247C282.134 355.669 262.986 366.61 262.986 366.61C262.986 366.61 259.031 391.573 285.781 410.68C287.908 412.2 301.207 406.534 301.207 406.534Z" fill="#8380FF"/>
<g opacity="0.2">
<path d="M354.691 378.267C353.924 378.267 353.155 378.267 352.387 378.267C352.708 377.376 352.605 376.272 353.827 376.149C354.166 376.379 354.556 376.646 354.923 376.895C355.127 377.427 355.078 377.879 354.691 378.267ZM383.663 378.267C383.773 378.267 383.883 378.267 383.993 378.267C384.98 378.267 385.968 378.267 386.956 378.267C386.956 378.233 386.945 378.209 386.943 378.177L385.893 377.038C385.517 376.878 385.11 376.737 384.789 376.518C384.231 377.055 383.604 377.43 383.663 378.267ZM369.582 376.464C368.704 376.763 367.893 377.131 367.861 378.267C368.958 378.267 370.055 378.267 371.152 378.267C370.776 377.556 370.382 376.859 369.582 376.464ZM378.412 377.087C377.718 376.629 376.998 376.623 376.167 376.905C376.034 377.351 375.899 377.809 375.762 378.267C376.749 378.267 377.737 378.267 378.725 378.267C378.619 377.872 378.513 377.477 378.412 377.087ZM362.843 377.237C361.499 376.425 360.382 376.644 360.288 378.267C361.165 378.267 362.044 378.267 362.922 378.267C362.894 377.908 362.867 377.548 362.843 377.237ZM337.155 355.931C339.101 356.462 340.301 354.534 339.79 352.729C337.805 352.168 336.109 353.011 336.44 354.564C336.594 354.91 336.756 355.253 336.913 355.598C336.987 355.707 337.062 355.817 337.155 355.931ZM330.577 339.938C331.047 339.613 331.528 339.282 332.048 338.924C331.92 338.192 331.674 337.711 331.377 337.389L329.803 337.838C330.055 338.54 330.32 339.238 330.577 339.938ZM340.267 351.814C341.839 352.055 344.058 352.022 343.476 349.829C342.091 347.432 339.564 349.456 340.267 351.814ZM343.641 333.888L340.272 334.85C340.534 335.41 340.786 335.869 341.134 336.462C342.68 336.929 344.219 335.327 343.641 333.888ZM350.948 344.005C351.755 342.487 351.146 339.757 349.085 340.775C347.182 342.057 348.481 344.488 350.948 344.005ZM358.326 348.478C357.731 348.703 357.129 348.931 356.555 349.149C354.96 352.207 358.351 352.926 359.714 350.377C359.443 349.609 359.237 348.831 358.326 348.478ZM333.869 348.53C334.259 349.493 334.672 350.445 335.076 351.402C336.362 349.575 335.088 348.531 333.869 348.53ZM338.952 347.838C340.161 346.701 339.49 344.906 337.985 344.521C334.713 345.386 336.591 348.401 338.952 347.838ZM347.461 370.265C347.708 368.196 344.486 367.916 344.212 369.652C344.606 370.307 345.016 370.951 345.423 371.598C346.274 371.824 347.278 371.424 347.461 370.265ZM335.954 342.469C335.148 341.362 334.33 340.497 332.86 340.84C330.913 343.407 335.084 345.284 335.954 342.469ZM348.25 351.121C351.046 353.577 352.973 349.382 350.107 348.529C349.665 348.974 349.277 349.109 348.595 349.195C348.504 349.924 347.889 350.449 348.25 351.121ZM348.916 372.924C348.244 373.802 348.135 375.789 349.595 375.726C353.42 375.953 350.949 371.072 348.916 372.924ZM343.826 342.579C343.633 341.967 343.462 341.418 343.308 340.929C340.339 340.175 338.951 343.73 342.423 344.101C342.851 343.634 343.293 343.158 343.826 342.579ZM345.934 336.65C344.878 337.098 344.833 337.143 344.398 338.156C343.522 342.16 350.332 339.153 345.934 336.65ZM375.687 370.03C376.239 370.44 375.858 371.364 376.844 371.759C377.458 371.367 377.959 370.866 378.774 371.008C379.343 370.759 379.456 370.328 379.308 369.897L378.348 368.856C377.47 368.378 376.263 368.428 375.687 370.03ZM351.424 366.124C350.933 364.427 348.399 363.772 348.134 365.943C348.156 367.936 350.976 368.552 351.424 366.124ZM355.296 345.731C354.121 345.856 353.716 344.794 352.793 345.529C350.029 348.065 356.549 350.046 355.296 345.731ZM365.404 375.981C370.446 374.296 363.667 371.008 364.667 373.599C364.453 373.84 364.209 374.113 363.938 374.419C364.331 375.067 364.839 375.526 365.404 375.981ZM346.522 344.764C344.797 344.993 343.981 346.037 344.916 347.597C346.774 348.112 347.176 347.859 347.816 346.166C347.395 345.711 346.968 345.247 346.522 344.764ZM354.466 368.929C353.594 368.723 352.624 368.541 351.944 369.559C352.408 373.674 357.363 370.795 354.466 368.929ZM345.95 364.136C346.282 363.914 346.637 363.674 347.067 363.383C348.408 358.666 341.206 361.526 345.95 364.136ZM371.861 374.405C372.519 374.952 373.086 375.425 373.689 375.928C376.057 375.073 374.63 373.561 373.549 372.146C372.908 372.945 372.015 373.454 371.861 374.405ZM358.161 359.906C359.702 359.364 359.719 357.127 357.779 356.992C355.491 357.556 355.644 360.368 358.161 359.906ZM340.26 358.303C341.561 361.688 345.409 358.352 342.285 356.698C341.12 357.24 341.12 357.24 340.26 358.303ZM362.666 371.635C362.945 371.038 363.209 370.47 363.432 369.99C361.677 366.563 357.713 371.342 362.666 371.635ZM357.692 367.664C357.999 367.554 358.296 367.45 358.529 367.369C358.944 366.359 359.347 365.437 358.312 364.567C357.141 364.897 355.829 364.884 355.772 366.437C356.429 366.855 357.05 367.253 357.692 367.664ZM348.275 358.555C349.056 359.305 349.964 359.412 350.968 359.142C351.114 358.697 351.248 358.293 351.411 357.794C350.127 355.907 348.124 355.881 348.275 358.555ZM343.143 365.321C342.446 364.753 341.882 364.651 341.466 364.831C341.92 365.672 342.388 366.506 342.861 367.336C343.455 366.867 343.672 366.087 343.143 365.321ZM368.93 368.611C368.689 369.025 368.428 369.476 368.204 369.861C368.397 370.534 368.555 371.091 368.721 371.671C370.069 371.601 370.883 370.86 371.494 369.806C370.61 368.948 370.61 368.948 368.93 368.611ZM360.721 363.78C362.502 364.467 363.834 362.538 362.212 361.32C361.671 361.24 361.093 361.154 360.543 361.071C359.646 362.051 360 362.894 360.721 363.78ZM369.671 364.112C371.351 363.741 371.817 361.31 369.883 360.983C369.287 361.208 368.641 361.45 367.922 361.72C368.185 362.968 369.118 363.394 369.671 364.112ZM379.818 374.202C380.26 375.034 381.203 374.607 381.726 375.025C382.247 374.746 382.701 374.503 383.272 374.197L381.805 372.606C380.952 372.42 380.072 372.893 379.818 374.202ZM355.349 360.862C353.428 360.126 352.659 361.153 352.161 362.678C353.4 364.262 355.426 362.404 355.349 360.862ZM354.371 353.635C353.916 353.553 353.558 353.036 352.932 353.368C352.798 353.754 352.64 354.204 352.468 354.697C352.729 355.222 353.135 355.628 353.688 355.94C354.098 355.798 354.5 355.661 354.878 355.53C355.121 355.025 355.344 354.555 355.556 354.11C355.262 353.62 354.785 353.708 354.371 353.635ZM337.861 340.449C339.524 340.136 339.792 337.577 337.683 338.087C337.467 337.748 337.303 337.489 337.139 337.231C335.324 338.184 336.848 339.641 337.861 340.449ZM363.973 358.686C364.504 359.093 365.047 359.508 365.566 359.906C366.339 359.599 366.342 358.798 366.887 358.446C366.724 357.962 366.587 357.561 366.423 357.078C364.871 356.978 364.394 357.301 363.973 358.686ZM374.192 367.769C375.558 366.774 373.999 365.949 373.613 364.988C370.618 364.934 371.821 367.537 374.192 367.769ZM365.59 364.24C365.138 364.556 364.742 364.832 364.321 365.127C364.321 365.51 364.321 365.883 364.321 366.448C367.744 368.135 367.844 366.255 365.59 364.24ZM360.94 355.586C362.051 355.829 362.957 355.564 363.25 354.351C362.788 353.472 361.265 352.286 360.833 353.728C360.499 354.315 359.953 355.318 360.94 355.586ZM356.147 374.014C356.21 375.287 358.231 375.924 358.951 374.855C358.717 374.129 358.467 373.364 358.141 372.353C357.35 373.012 356.736 373.524 356.147 374.014ZM346.494 355.554C347.271 354.193 347.212 353.576 345.938 352.725C345.223 353.057 344.714 353.562 344.259 354.341C345.271 354.536 345.588 355.642 346.494 355.554ZM366.122 367.9C365.976 367.8 365.959 367.882 365.91 368.007C366.014 368.018 366.092 368.017 366.122 367.9ZM371.152 378.267C370.055 378.267 368.958 378.267 367.861 378.267C367.634 379.571 369.083 380.044 370.173 379.973C370.935 379.74 371.095 378.863 371.482 378.267C371.372 378.267 371.262 378.267 371.152 378.267ZM378.725 378.267C377.736 378.267 376.749 378.267 375.762 378.267C375.652 378.267 375.542 378.267 375.432 378.267C375.834 380.23 378.934 380.457 379.383 378.267C379.164 378.267 378.944 378.267 378.725 378.267ZM384.567 379.887C386.525 380.205 386.998 379.699 386.955 378.267C385.967 378.267 384.979 378.267 383.992 378.267C384.011 378.872 384.077 379.46 384.567 379.887ZM361.964 379.963C362.789 379.637 363.044 379.056 362.922 378.267C362.045 378.267 361.166 378.267 360.288 378.267C360.179 378.267 360.069 378.267 359.96 378.267C360.651 378.813 361.036 379.737 361.964 379.963ZM354.17 379.713C354.486 379.177 354.754 378.722 355.021 378.268C354.911 378.268 354.801 378.268 354.691 378.268C353.924 378.268 353.155 378.268 352.387 378.268C352.936 378.901 353.628 378.874 354.17 379.713ZM387.277 386.218C386.713 385.128 384.999 383.219 384.171 385.034C384.302 386.103 384.156 386.361 383.755 387.402C385.211 388.641 386.799 388.169 387.277 386.218ZM374.83 389.159C373.386 387.511 372.358 388.808 371.542 390.248C372.694 392.637 376.776 391.839 374.83 389.159ZM371.466 386.092C370.144 383.013 365.393 385.62 368.894 387.893C370.219 387.809 370.653 386.657 371.466 386.092ZM393.06 403.933C394.109 403.646 394.599 402.918 394.873 401.959C394.586 399.002 391.532 400.201 391.693 402.613C392.126 403.094 392.52 403.603 393.06 403.933ZM365.838 392.033C366.409 391.473 366.971 390.92 367.554 390.346C366.556 388.372 364.674 387.963 363.925 390.294C364.172 391.434 364.766 392.006 365.838 392.033ZM374.641 381.122C372.777 379.951 372.212 381.337 371.486 382.853C373.284 384.509 376.254 383.849 374.641 381.122ZM363.949 382.314C364.491 384.387 367.631 384.516 367.069 382.003C367.12 379.77 364.192 380.343 363.949 382.314ZM398.168 396.704C397.239 396.284 395.975 396.37 395.609 397.473C396.356 399.744 396.469 399.828 398.717 399.638C398.385 398.608 398.791 397.626 398.168 396.704ZM359.298 381.332C358.627 380.446 357.646 380.767 356.758 381.042C353.913 382.945 359.564 385.999 359.298 381.332ZM400.952 400.6C400.157 400.693 399.436 401.395 399.515 402.474C400.083 401.931 400.565 401.293 400.952 400.6ZM390.901 382.583C390.724 382.341 390.589 382.158 390.467 382.001L389.928 381.416C389.693 381.218 389.404 381.04 388.88 380.723C385.858 383.034 389.775 386.162 390.901 382.583ZM379.126 394.185C378.383 392.144 376.188 391.871 375.824 394.283C376.567 396.27 378.405 396.174 379.126 394.185ZM394.798 395.305C395.036 394.359 394.459 393.774 394.067 392.903C392.981 392.532 391.567 392.63 391.444 394.197C391.956 394.695 392.528 395.253 393.077 395.788C393.738 395.602 394.293 395.447 394.798 395.305ZM381.457 380.751C380.849 380.918 380.338 381.058 379.859 381.189C379.588 383.079 379.903 383.234 381.596 383.573C382.117 383.235 382.739 382.831 383.355 382.432C383.237 381.109 382.078 381.219 381.457 380.751ZM396.898 388.976C395.755 389.524 395.702 390.075 396.4 391.524C397.459 391.817 398.318 391.511 398.743 390.977L396.898 388.976ZM379.015 385.768C378.209 384.951 377.312 384.785 376.317 385.08C375.186 386.907 376.215 387.383 377.809 387.861C378.962 387.98 378.76 386.628 379.015 385.768ZM380.964 388.582C380.577 388.966 380.167 389.371 379.757 389.777C380.069 390.373 380.333 390.879 380.655 391.493C383.449 392.209 383.805 388.731 380.964 388.582ZM382.908 398.96C383.411 397.633 382.134 396.093 380.888 396.61C378.83 397.992 381.051 400.337 382.908 398.96ZM392.078 386.438C392.791 386.767 392.284 387.247 392.212 387.732C392.593 387.893 392.98 388.056 393.308 388.193C394.072 387.775 394.511 387.149 394.659 386.548L393.086 384.842C392.831 384.878 392.552 384.95 392.239 385.083C392.178 385.598 392.128 386.017 392.078 386.438ZM400.912 395.496C401.228 395.391 401.535 395.289 401.83 395.191C401.607 394.282 401.168 393.45 400.479 392.777C400.098 393.052 399.802 393.407 399.488 393.846C399.997 394.436 400.432 394.941 400.912 395.496ZM387.333 394.23C387.001 393.626 386.58 393.239 386.143 392.969C385.578 393.028 385.109 393.076 384.597 393.127C384.306 393.441 383.884 393.772 383.748 394.212C385.21 395.814 385.637 395.883 387.333 394.23ZM377.972 400.742C377.688 400.812 377.431 400.89 377.197 400.974C377.878 401.283 378.567 401.573 379.26 401.855C378.953 401.411 378.574 400.997 377.972 400.742ZM368.295 393.78C367.916 396.13 370.202 396.094 371.135 394.888C371.205 393.07 369.389 392.806 368.295 393.78ZM361.605 387.578C362.275 387.305 362.872 387.068 363.344 386.104C362.5 386.004 362.42 385.478 362.519 384.824C361.967 383.916 360.428 385.517 360.383 386.408C360.692 386.849 361.154 387.25 361.605 387.578ZM388.196 397.101C388.149 397.512 388.113 397.835 388.057 398.331C388.922 398.591 389.69 399.481 390.532 399.21C390.525 398.838 390.247 398.452 390.492 398.015C390.956 396.56 389.024 396.19 388.196 397.101ZM374.029 396.675C373.427 397.441 373.043 397.744 372.167 398.07C372.274 398.27 372.393 398.44 372.517 398.598C372.948 398.842 373.387 399.071 373.824 399.304C375.289 398.926 375.631 397.578 374.029 396.675ZM389.461 388.943C385.569 389.418 389.334 392.774 390.616 390.138C390.223 389.732 389.852 389.349 389.461 388.943ZM386.524 402.209C385.649 400.795 383.836 401.59 384.437 403.219C385.179 402.65 385.99 403.027 386.524 402.209Z" fill="#421B36"/>
</g>
<path d="M288.412 412.295C302.007 407.92 315.42 403 328.619 397.545C329.624 397.129 329.184 395.47 328.163 395.891C314.964 401.346 301.551 406.267 287.956 410.641C286.91 410.978 287.357 412.634 288.412 412.295Z" fill="#421B36"/>
<path d="M327.307 398.03C329.006 399.599 330.418 401.277 331.642 403.181C331.884 403.558 332.415 403.747 332.815 403.489C333.192 403.246 333.382 402.719 333.122 402.316C331.826 400.3 330.28 398.444 328.519 396.818C328.189 396.514 327.628 396.468 327.307 396.818C327.004 397.149 326.956 397.706 327.307 398.03Z" fill="#421B36"/>
<path d="M392.479 116.346C392.479 116.346 326.259 154.65 323.23 157.03C320.2 159.41 319.418 164.163 319.418 164.163C319.418 164.163 326.056 166.085 328.869 164.163C331.682 162.241 396.375 126.3 397.024 123.054C397.673 119.808 396.591 115.697 392.479 116.346Z" fill="#421B36"/>
<path d="M383.161 257.187C388.912 269.489 388.028 283.386 387.612 295.02C396.953 294.335 406.715 293.895 415.296 297.649C423.877 301.403 430.793 310.667 428.724 319.802C428.301 321.668 427.528 323.593 428.064 325.429C428.651 327.436 430.598 328.668 432.307 329.873C438.2 334.031 442.809 339.985 445.357 346.733C451.188 362.175 445.266 380.78 432.616 391.382C426.694 396.345 419.124 399.799 411.418 399.233C401.178 398.481 392.837 391.064 385.35 384.039C372.031 371.542 358.712 359.044 345.393 346.547C341.489 342.884 337.384 339.103 332.246 337.601L309.221 343.628C314.831 331.359 327.294 322.508 340.726 321.255C340.726 321.255 331.65 296.832 350.396 289.296L383.161 257.187Z" fill="#421B36"/>
<path d="M355.818 288.297C356.988 285.538 357.224 282.216 355.71 279.629C354.196 277.042 344.804 273.098 341.263 279.359L341.055 295.261C343.539 295.795 348.871 295.42 351.024 294.071C353.178 292.723 354.826 290.637 355.818 288.297Z" fill="#FFAE7A"/>
<path d="M339.48 286.365C340.275 286.324 341.104 286.59 341.939 286.518C342.987 286.427 344.035 286.286 345.083 286.189C347.034 286.008 349.177 286.296 351.073 285.888C352.507 285.58 351.927 283.703 350.866 283.385C349.005 282.828 346.24 283.477 344.384 283.814C343.361 284 342.266 284.201 341.297 284.584C340.45 284.919 340.021 285.491 339.347 285.989C339.18 286.112 339.271 286.376 339.48 286.365Z" fill="#421B36"/>
<path d="M379.167 260.8C378.843 255.052 381.348 249.211 385.736 245.483C390.124 241.755 396.293 240.228 401.913 241.477C406.037 242.394 409.895 244.827 412.111 248.424C414.327 252.021 414.718 256.794 412.716 260.514C410.714 264.234 406.22 266.576 402.092 265.677C403.933 266.198 405.83 266.747 407.316 267.952C408.802 269.158 409.779 271.205 409.161 273.016C408.482 275.002 406.12 275.996 404.03 275.796C401.94 275.597 400.062 274.489 398.263 273.409C399.151 274.822 400.064 276.31 400.184 277.974C400.303 279.638 399.332 281.509 397.689 281.797C396.306 282.039 395.002 281.138 393.929 280.233C391.025 277.785 388.454 274.943 386.308 271.81" fill="#421B36"/>
</svg>
